<?xml version="1.0" encoding="utf-8"?>
<!-- Generator: Adobe Illustrator 24.0.1, SVG Export Plug-In . SVG Version: 6.00 Build 0)  -->
<svg version="1.1" id="SCP_Logo" xmlns="http://www.w3.org/2000/svg" xmlns:xlink="http://www.w3.org/1999/xlink" x="0px" y="0px"
	 viewBox="0 0 2500 2500" style="enable-background:new 0 0 2500 2500;" xml:space="preserve">
<g>
	<path d="M1738.5512695,821.2363281l64.6015625-64.6015625l-59.7883301-59.788208l-64.6015625,64.6016846
		c-52.3657227-46.0568848-111.3105469-83.0943604-175.7355957-110.34375C1422.8535156,617.1943359,1337.7226563,600,1250,600
		c-87.7231445,0-172.8540039,17.1943359-253.027832,51.1044922
		c-64.4246826,27.2493896-123.3701782,64.2868652-175.7359009,110.3439941l-64.6013794-64.6013184l-59.788147,59.7880859
		l64.6013794,64.6013184c-46.0569458,52.3657227-83.0942993,111.3110352-110.3436279,175.7355957
		C617.1943359,1077.1459961,600,1162.2768555,600,1250c0,87.7226563,17.1943359,172.8535156,51.1044922,253.0273438
		c27.2494507,64.425293,64.2871094,123.3702393,110.3442993,175.736084l-64.6016846,64.6016846l59.788147,59.788208
		l64.6015625-64.6015625c52.3656006,46.0571289,111.3109131,83.0942383,175.7353516,110.3427734
		C1077.1459961,1882.8056641,1162.2768555,1900,1250,1900c87.7226563,0,172.8535156-17.1943359,253.0273438-51.1054688
		c64.4251709-27.2486572,123.3701172-64.2861328,175.7359619-110.3435059l64.6018066,64.6019287l59.788208-59.788208
		l-64.6018066-64.6018066c46.0571289-52.3658447,83.0944824-111.3105469,110.3430176-175.7355957
		C1882.8056641,1422.8535156,1900,1337.7226563,1900,1250c0-87.7231445-17.1943359-172.8540039-51.1054688-253.027832
		C1821.6459961,932.5474854,1784.6086426,873.6020508,1738.5512695,821.2363281z M1250,1780c-292.2431641,0-530-237.7568359-530-530
		s237.7568359-530,530-530s530,237.7568359,530,530S1542.2431641,1780,1250,1780z"/>
	<path d="M2210.1044922,1019.6982422c-16.7451172-70.0405273-41.28125-138.315918-72.9765625-203.0839844V362.871582h-453.7421875
		c-64.7675781-31.6948242-133.0429688-56.230957-203.0839844-72.9760742
		C1405.2958984,271.9638672,1327.8105469,262.871582,1250,262.871582s-155.2954102,9.0922852-230.3017578,27.0239258
		c-70.0400391,16.7451172-138.3154297,41.28125-203.0839844,72.9760742H362.871582v453.7421875
		c-31.6948242,64.7685547-56.230957,133.043457-72.9760742,203.0844727
		C271.9638672,1094.7041016,262.871582,1172.1894531,262.871582,1250s9.0922852,155.2958984,27.0239258,230.3017578
		c16.7451172,70.0410156,41.28125,138.3164063,72.9760742,203.0839844v453.7421875h453.7421875
		c64.769043,31.6953125,133.0439453,56.2314453,203.0844727,72.9755859
		c75.0063477,17.9326172,152.4912109,27.0244141,230.3017578,27.0244141s155.2949219-9.0917969,230.3017578-27.0244141
		c70.0410156-16.7441406,138.3154297-41.2802734,203.0839844-72.9755859h453.7421875v-453.7421875
		c31.6953125-64.7685547,56.2314453-133.0429688,72.9755859-203.0839844
		c17.9326172-75.0068359,27.0244141-152.4912109,27.0244141-230.3017578
		C2237.1279297,1172.1889648,2228.0361328,1094.7041016,2210.1044922,1019.6982422z M2066.7998047,1658.0800781
		l-3.9277344,7.8466797v396.9453125h-396.9453125l-7.8466797,3.9277344
		c-127.3398438,63.7480469-264.6376953,96.0722656-408.0800781,96.0722656
		c-143.4428711,0-280.7407227-32.3242188-408.0805664-96.0722656l-7.8461914-3.9277344H437.128418v-396.9453125
		l-3.9282227-7.8466797C369.4516602,1530.7412109,337.128418,1393.4433594,337.128418,1250
		s32.3232422-280.7416992,96.0717773-408.0805664l3.9282227-7.8461914V437.128418h396.9458008l7.8457031-3.9282227
		C969.2587891,369.4516602,1106.5571289,337.128418,1250,337.128418c143.4433594,0,280.7412109,32.3232422,408.0800781,96.0717773
		l7.8466797,3.9282227h396.9453125v396.9458008l3.9277344,7.8461914
		c63.7480469,127.3374023,96.0722656,264.6357422,96.0722656,408.0795898
		C2162.8720703,1393.4423828,2130.5478516,1530.7402344,2066.7998047,1658.0800781z"/>
	<polygon points="850,1150 850,1300 1250,1000 1650,1300 1650,1150 1250,850 	"/>
	<rect x="850" y="1380" width="800" height="120"/>
</g>
</svg>
