<?xml version="1.0" encoding="utf-8"?>
<!-- Generator: Adobe Illustrator 24.0.1, SVG Export Plug-In . SVG Version: 6.00 Build 0)  -->
<!DOCTYPE svg PUBLIC "-//W3C//DTD SVG 1.1//EN" "http://www.w3.org/Graphics/SVG/1.1/DTD/svg11.dtd" [
	<!ENTITY ns_extend "http://ns.adobe.com/Extensibility/1.0/">
	<!ENTITY ns_ai "http://ns.adobe.com/AdobeIllustrator/10.0/">
	<!ENTITY ns_graphs "http://ns.adobe.com/Graphs/1.0/">
	<!ENTITY ns_vars "http://ns.adobe.com/Variables/1.0/">
	<!ENTITY ns_imrep "http://ns.adobe.com/ImageReplacement/1.0/">
	<!ENTITY ns_sfw "http://ns.adobe.com/SaveForWeb/1.0/">
	<!ENTITY ns_custom "http://ns.adobe.com/GenericCustomNamespace/1.0/">
	<!ENTITY ns_adobe_xpath "http://ns.adobe.com/XPath/1.0/">
]>
<svg version="1.1" id="图层_1" xmlns:x="&ns_extend;" xmlns:i="&ns_ai;" xmlns:graph="&ns_graphs;"
	 xmlns="http://www.w3.org/2000/svg" xmlns:xlink="http://www.w3.org/1999/xlink" x="0px" y="0px" viewBox="0 0 40 20"
	 style="enable-background:new 0 0 40 20;" xml:space="preserve">
<style type="text/css">
	.投影{fill:none;}
	.圆角_x0020_2_x0020_pt{fill:#FFFFFF;stroke:#231815;stroke-miterlimit:10;}
	.实时对称_x0020_X{fill:none;}
	.柔化斜面{fill:url(#SVGID_1_);}
	.黄昏{fill:#FFFFFF;}
	.植物_GS{fill:#FFE100;}
	.高卷式发型_GS{fill-rule:evenodd;clip-rule:evenodd;fill:#4CACE2;}
</style>
<metadata>
	<sfw  xmlns="&ns_sfw;">
		<slices></slices>
		<sliceSourceBounds  bottomLeftOrigin="true" height="20" width="40" x="5" y="-35"></sliceSourceBounds>
	</sfw>
</metadata>
<linearGradient id="SVGID_1_" gradientUnits="userSpaceOnUse" x1="-5" y1="-15" x2="-4.2928958" y2="-14.2928905">
	<stop  offset="0" style="stop-color:#E6E7EA"/>
	<stop  offset="0.1746906" style="stop-color:#E2E3E6"/>
	<stop  offset="0.3537763" style="stop-color:#D6D7DA"/>
	<stop  offset="0.5349318" style="stop-color:#C1C4C5"/>
	<stop  offset="0.7174437" style="stop-color:#A4A8A8"/>
	<stop  offset="0.8993385" style="stop-color:#808584"/>
	<stop  offset="1" style="stop-color:#686E6C"/>
</linearGradient>
<g>
	<path d="M6,0l1.5527864,3.1055727c0.2815275,0.563055,0.2815275,1.2257996,0,1.7888546L0,20h8l3.1055727-6.2111454
		c0.3685246-0.7370491,1.42033-0.7370491,1.7888546,0L16,20h8L14,0H6z"/>
	<path d="M40,0h-8l-3.1055737,6.2111454c-0.3685226,0.7370486-1.42033,0.7370486-1.7888527,0L24,0h-8l10,20h8l-3.2763939-6.5527868
		C30.3911572,12.7823124,30.8746529,12,31.6180344,12H34L40,0z"/>
</g>
</svg>
