<?xml version="1.0" encoding="utf-8"?>
<!-- Generator: Adobe Illustrator 24.0.1, SVG Export Plug-In . SVG Version: 6.00 Build 0)  -->
<svg version="1.1" id="图层_1" xmlns="http://www.w3.org/2000/svg" xmlns:xlink="http://www.w3.org/1999/xlink" x="0px" y="0px"
	 viewBox="0 0 500 500" style="enable-background:new 0 0 500 500;" xml:space="preserve">
<style type="text/css">
	.st0{fill:#B40005;}
	.st1{fill:#FFFFFF;}
</style>
<circle cx="250" cy="250" r="212.5"/>
<polygon class="st0" points="130,160 152.5,205 152.5,265 272.5,205 235,205 220,175 340,175 280,295 256,247 190,280 250,400 
	370,160 "/>
<g>
	<path class="st1" d="M250,497.5c-66.1098633,0-128.262207-25.7441406-175.0087891-72.4912109
		C28.2446289,378.2626953,2.5,316.109375,2.5,250c0-66.1098633,25.7446289-128.262207,72.4912109-175.0087891
		S183.8901367,2.5,250,2.5c66.109375,0,128.2626953,25.7446289,175.0087891,72.4912109
		C471.7558594,121.737793,497.5,183.8901367,497.5,250c0,66.109375-25.7441406,128.2626953-72.4912109,175.0087891
		C378.2626953,471.7558594,316.109375,497.5,250,497.5z M250,72.5c-97.8740234,0-177.5,79.6259766-177.5,177.5
		S152.1259766,427.5,250,427.5S427.5,347.8740234,427.5,250S347.8740234,72.5,250,72.5z"/>
	<path class="st0" d="M250,5c33.0769958,0,65.1619263,6.4770813,95.3635254,19.2512207
		c29.1737671,12.3395386,55.3756409,30.0056152,77.8776245,52.5076294
		c22.5020142,22.5019836,40.1680908,48.7038574,52.5076294,77.8776245C488.5229187,184.8380737,495,216.9230042,495,250
		s-6.4770813,65.1619263-19.2512207,95.3635254c-12.3395386,29.1737671-30.0056152,55.3756104-52.5076294,77.8776245
		c-22.5019836,22.5020142-48.7038574,40.1680908-77.8776245,52.5076294C315.1619263,488.5229187,283.0769958,495,250,495
		s-65.1619263-6.4770813-95.3635406-19.2512207c-29.1737671-12.3395386-55.3756104-30.0056152-77.8776169-52.5076294
		s-40.1680717-48.7038574-52.5076141-77.8776245C11.4770765,315.1619263,5,283.0769958,5,250
		s6.4770765-65.1619263,19.2512302-95.3635254c12.3395405-29.1737671,30.0056171-55.3756409,52.5076141-77.8776245
		c22.5020065-22.5020142,48.7038498-40.1680908,77.8776169-52.5076294C184.8380737,11.4770813,216.9230042,5,250,5 M250,430
		c99.2523193,0,180-80.7476807,180-180S349.2523193,70,250,70S70,150.7476807,70,250S150.7476959,430,250,430 M250,0
		C111.9288483,0,0,111.928833,0,250s111.9288483,250,250,250s250-111.928833,250-250S388.071167,0,250,0L250,0z M250,425
		c-96.6498413,0-175-78.3501587-175-175S153.3501587,75,250,75s175,78.3501587,175,175S346.6498413,425,250,425L250,425z"/>
</g>
<g>
	<path d="M258.1494141,54.0239258c-0.7197266-0.0292969-1.3759766-0.1274414-1.9697266-0.2939453
		c-0.59375-0.1669922-1.1269531-0.3496094-1.5986328-0.5493164c-0.4726563-0.1992188-0.8808594-0.3769531-1.2246094-0.5336914
		c-0.34375-0.15625-0.6259766-0.2392578-0.8457031-0.2480469c-0.359375-0.0146484-0.5498047,0.2402344-0.5712891,0.7646484
		l-0.5400391-0.0219727l0.2695313-6.6318359l0.6289063,0.0253906c-0.0019531,0.5405273,0.0947266,1.1225586,0.2900391,1.7456055
		c0.1943359,0.6240234,0.4648438,1.2387695,0.8105469,1.8457031c0.3457031,0.6074219,0.7587891,1.1567383,1.2392578,1.6494141
		c0.4804688,0.4921875,1.0097656,0.8964844,1.5869141,1.2128906c0.5771484,0.315918,1.2158203,0.4882813,1.9160156,0.5166016
		c1.2587891,0.0512695,2.2236328-0.1650391,2.8935547-0.6479492c0.6699219-0.4833984,1.1416016-1.1171875,1.4130859-1.9018555
		c0.2724609-0.784668,0.4257813-1.6191406,0.4619141-2.503418c0.0449219-1.09375-0.2050781-2.2226563-0.7480469-3.3857422
		c-0.5439453-1.1625977-1.2519531-2.3325195-2.125-3.5087891s-1.7783203-2.3017578-2.7148438-3.3754883
		c-1.3955078-1.6176758-2.4746094-3.027832-3.2363281-4.2294922c-0.7617188-1.2021484-1.2783203-2.2924805-1.5488281-3.2719727
		s-0.3867188-1.940918-0.3476563-2.8852539c0.0576172-1.4389648,0.4267578-2.6396484,1.1064453-3.6030273
		s1.5341797-1.675293,2.5634766-2.1367188c1.0292969-0.4609375,2.1445313-0.6669922,3.34375-0.6186523
		c0.8984375,0.0366211,1.6748047,0.1582031,2.3261719,0.3647461c0.6523438,0.206543,1.1992188,0.4204102,1.640625,0.640625
		c0.4414063,0.2207031,0.7714844,0.3354492,0.9921875,0.3442383c0.1796875,0.0073242,0.3212891-0.0317383,0.4248047-0.1176758
		s0.1611328-0.2558594,0.1708984-0.5112305l0.5400391,0.0219727l-0.2675781,6.5874023l-0.5996094-0.0244141
		c-0.0322266-0.6918945-0.1474609-1.4208984-0.3466797-2.1870117s-0.5048828-1.4956055-0.9169922-2.1879883
		s-0.9394531-1.2612305-1.5820313-1.7080078c-0.6425781-0.4462891-1.4130859-0.6879883-2.3125-0.7241211
		c-1.0791016-0.0439453-2.0478516,0.2583008-2.9042969,0.9067383c-0.8574219,0.6484375-1.3164063,1.7441406-1.3789063,3.2875977
		c-0.0361328,0.8847656,0.0927734,1.7753906,0.3867188,2.6728516c0.2939453,0.8979492,0.8095703,1.8793945,1.546875,2.9453125
		s1.7275391,2.3071289,2.9716797,3.7236328c1.1113281,1.2011719,2.1230469,2.4169922,3.0341797,3.6474609
		s1.6259766,2.4829102,2.1445313,3.7573242c0.5185547,1.2749023,0.7509766,2.5864258,0.6962891,3.9350586
		c-0.0458984,1.109375-0.2617188,2.1176758-0.6484375,3.0253906c-0.3876953,0.9072266-0.9189453,1.6777344-1.5947266,2.3105469
		c-0.6767578,0.6333008-1.4716797,1.1152344-2.3857422,1.4458008S259.2285156,54.0673828,258.1494141,54.0239258z"/>
	<path d="M266.8798828,53.6689453l0.0625-0.4453125l2.7041016,0.3779297l4.2373047-30.3051758l-2.703125-0.3779297
		l0.0615234-0.4458008l8.8544922,1.2382813l-0.0625,0.4458008l-2.3769531-0.3325195l-2.0224609,14.4619141l8.3193359,1.1630859
		l2.0224609-14.4619141l-2.3476563-0.328125l0.0625-0.4458008l8.8535156,1.2382813l-0.0615234,0.4458008l-2.7929688-0.390625
		l-4.2382813,30.3051758l2.7929688,0.390625l-0.0625,0.4453125l-8.8535156-1.237793l0.0625-0.4458008l2.3466797,0.328125
		l2.1533203-15.3974609l-8.3193359-1.1635742l-2.1533203,15.3979492l2.3769531,0.3320313l-0.0615234,0.4458008
		L266.8798828,53.6689453z"/>
	<path d="M297.3652344,59.4946289c-1.7275391-0.4287109-3.0478516-1.4633789-3.9589844-3.1035156
		c-0.9121094-1.6401367-1.4101563-3.7226563-1.4951172-6.2470703c-0.0849609-2.5249023,0.2578125-5.3378906,1.0273438-8.4389648
		c0.7724609-3.1152344,1.7880859-5.7763672,3.0458984-7.9833984c1.2587891-2.2070313,2.6748047-3.8261719,4.25-4.8574219
		c1.5742188-1.03125,3.2255859-1.3325195,4.953125-0.9038086c1.7275391,0.4282227,3.0556641,1.46875,3.9863281,3.1210938
		c0.9287109,1.652832,1.4384766,3.7495117,1.5302734,6.2910156c0.0898438,2.5419922-0.2509766,5.3706055-1.0234375,8.4858398
		c-0.7695313,3.1010742-1.7861328,5.746582-3.0507813,7.9365234s-2.6923828,3.7944336-4.2851563,4.8139648
		C300.7529297,59.6279297,299.0927734,59.9228516,297.3652344,59.4946289z M297.4736328,59.0576172
		c0.8339844,0.2070313,1.625-0.0097656,2.3720703-0.6518555c0.7460938-0.6411133,1.4716797-1.6166992,2.1777344-2.925293
		s1.3662109-2.871582,1.9824219-4.6894531s1.1875-3.7890625,1.7148438-5.9150391
		c0.5273438-2.125,0.9443359-4.1391602,1.2509766-6.0410156c0.3066406-1.9023438,0.4560547-3.6040039,0.4472656-5.1049805
		c-0.0087891-1.5014648-0.1923828-2.7138672-0.5498047-3.637207c-0.3583984-0.9233398-0.9550781-1.4887695-1.7900391-1.6958008
		c-0.8154297-0.2021484-1.5966797,0.0209961-2.3447266,0.6699219c-0.7490234,0.6489258-1.4677734,1.6376953-2.1582031,2.965332
		c-0.6894531,1.328125-1.3388672,2.9057617-1.9462891,4.7333984c-0.6083984,1.8276367-1.1757813,3.8037109-1.703125,5.9291992
		c-0.5273438,2.1259766-0.9482422,4.1347656-1.2626953,6.0268555c-0.3154297,1.8925781-0.4765625,3.5795898-0.4833984,5.0615234
		s0.1699219,2.6811523,0.5302734,3.597168C296.0703125,58.2963867,296.6582031,58.8554688,297.4736328,59.0576172z"/>
	<path d="M316.0712891,65.1879883c-0.7167969-0.2558594-1.4248047-0.6040039-2.1279297-1.0458984
		c-0.7021484-0.4414063-1.2978516-1.0200195-1.7851563-1.7353516c-0.4882813-0.7158203-0.7685547-1.5961914-0.8417969-2.6416016
		c-0.0732422-1.0449219,0.1494141-2.2954102,0.6689453-3.7504883l8.1708984-22.9091797L317.5,32.1582031l0.1513672-0.4238281
		l8.8164063,3.1445313l-0.1513672,0.4238281l-2.5429688-0.9072266l-8.1787109,22.9301758
		c-0.7509766,2.1054688-0.9873047,3.7646484-0.7089844,4.9790039c0.2783203,1.2138672,1.0576172,2.0493164,2.3388672,2.5063477
		c0.5087891,0.1811523,1.0605469,0.2988281,1.6582031,0.3525391c0.5966797,0.0537109,1.1894531-0.0175781,1.7802734-0.2133789
		c0.5898438-0.1958008,1.1396484-0.5610352,1.6484375-1.0957031c0.5097656-0.5351563,0.9433594-1.3041992,1.3007813-2.3071289
		l8.609375-24.1381836l-2.4013672-0.8569336l0.1503906-0.4238281l5.6796875,2.0258789L335.5,38.578125l-2.6279297-0.9375
		l-8.5566406,23.9897461c-0.5595703,1.5683594-1.2880859,2.6582031-2.1855469,3.2700195
		c-0.8984375,0.6113281-1.8681641,0.90625-2.9111328,0.8842773
		C318.1748047,65.7626953,317.1259766,65.5639648,316.0712891,65.1879883z"/>
	<path d="M326.3300781,68.4594727l0.1894531-0.4082031l2.4755859,1.1503906l12.890625-27.7529297l-2.4755859-1.1499023
		l0.1894531-0.4082031l8.4072266,3.9052734l-0.1894531,0.4082031l-2.4765625-1.1503906l-12.8896484,27.7529297l1.8496094,0.8588867
		c1.3427734,0.6235352,2.4619141,0.8833008,3.3603516,0.7792969c0.8964844-0.1044922,1.6552734-0.4921875,2.2763672-1.1630859
		c0.6201172-0.6708984,1.1894531-1.5644531,1.7080078-2.6796875l0.5439453,0.2524414l-2.6630859,5.734375L326.3300781,68.4594727z"
		/>
	<path d="M340.8476563,75.168457l0.2275391-0.3886719l2.3564453,1.3774414l15.4384766-26.4199219l-2.3564453-1.3774414
		l0.2265625-0.3886719l7.4853516,4.3745117c1.6230469,0.9482422,2.8183594,2.3027344,3.5859375,4.0625
		c0.7666016,1.7597656,0.9746094,3.8618164,0.6230469,6.3061523c-0.3505859,2.4443359-1.4082031,5.1748047-3.171875,8.1923828
		c-1.7783203,3.0439453-3.6669922,5.3540039-5.6650391,6.9306641c-1.9990234,1.5776367-3.9746094,2.4902344-5.9267578,2.7392578
		c-1.9521484,0.2495117-3.7314453-0.0957031-5.3378906-1.0341797L340.8476563,75.168457z M346.7470703,78.0947266
		l1.2431641,0.7265625c1.0361328,0.6054688,2.2841797,0.7001953,3.7431641,0.284668s3.0351563-1.4580078,4.7285156-3.1269531
		c1.6923828-1.668457,3.4433594-4.050293,5.2529297-7.1455078c1.5966797-2.7329102,2.71875-5.2084961,3.3671875-7.4272461
		c0.6474609-2.21875,0.8789063-4.0722656,0.6953125-5.5610352c-0.1845703-1.4887695-0.7255859-2.4956055-1.6230469-3.0200195
		l-1.96875-1.1503906L346.7470703,78.0947266z"/>
	<path d="M365.4521484,90.59375l0.2724609-0.3579102l2.2421875,1.7109375l18.5634766-24.3256836l-2.2412109-1.7109375
		l0.2724609-0.3574219l7.5605469,5.769043l-0.2734375,0.3579102l-2.2890625-1.7470703l-18.5644531,24.3256836l2.2900391,1.7470703
		l-0.2734375,0.3579102L365.4521484,90.59375z"/>
	<path d="M374.6992188,97.4916992l0.3017578-0.3339844l2.0019531,1.8120117L397.5351563,76.28125l-2.0019531-1.8120117
		l0.3027344-0.3334961l4.9150391,4.4487305l-8.9833984,25.128418l-0.2226563-0.2011719l16.2451172-17.9506836l-2.0693359-1.8720703
		l0.3027344-0.3334961l4.4931641,4.0664063l-0.3017578,0.3334961l-1.9355469-1.7514648l-20.8349609,23.0219727l-0.9345703-0.8452148
		l10.6875-30.8100586l0.1552734,0.1411133l-19.8378906,21.9208984l2.2910156,2.0732422l-0.3017578,0.3334961L374.6992188,97.4916992
		z"/>
	<path d="M393.0107422,114.7988281l0.3339844-0.3017578l1.7890625,1.9819336l22.7138672-20.5053711l-1.4677734-1.6254883
		c-0.6972656-0.7719727-1.421875-1.222168-2.1748047-1.3510742S412.671875,93,411.8642578,93.3925781
		s-1.6572266,0.9907227-2.5478516,1.7949219l-0.421875-0.4677734l4.6425781-4.1914063l11.8408203,13.1157227l-4.6425781,4.1914063
		l-0.4023438-0.4453125c0.890625-0.8041992,1.5693359-1.5917969,2.0351563-2.362793s0.6767578-1.5336914,0.6318359-2.2880859
		c-0.0439453-0.7548828-0.421875-1.5253906-1.1318359-2.3120117l-1.4677734-1.6254883L397.6875,119.3071289l1.8896484,2.0932617
		l-0.3339844,0.3012695L393.0107422,114.7988281z"/>
	<path d="M402.8984375,125.9018555l0.3603516-0.269043l1.6162109,2.1630859l24.515625-18.3129883l-1.6162109-2.1630859
		l0.3603516-0.269043l9.5693359,12.8105469l-5.0107422,3.7431641l-0.359375-0.4804688
		c0.9736328-0.7270508,1.7216797-1.4672852,2.2451172-2.2202148s0.7412109-1.5708008,0.6533203-2.4536133
		c-0.0888672-0.8828125-0.5576172-1.8930664-1.4072266-3.0302734l-2.1367188-2.8603516l-12.0595703,9.0083008l4.0039063,5.3598633
		l2.1630859-1.6162109l0.359375,0.480957l-4.6513672,3.4741211l-0.3583984-0.480957l2.1269531-1.5888672l-4.0039063-5.3598633
		l-12.0957031,9.0351563l2.0292969,2.7163086c0.8496094,1.137207,1.7001953,1.8808594,2.5517578,2.2314453
		c0.8505859,0.3500977,1.7236328,0.390625,2.6181641,0.1220703c0.8945313-0.269043,1.8291016-0.7666016,2.8017578-1.4936523
		l0.359375,0.4804688l-5.0654297,3.7836914L402.8984375,125.9018555z"/>
	<path d="M422.4033203,155.5292969c-0.5683594-0.9423828-0.7832031-1.793457-0.6464844-2.5532227
		c0.1367188-0.7602539,0.5019531-1.440918,1.09375-2.0429688c0.5908203-0.6020508,1.2724609-1.1352539,2.0429688-1.6000977
		c0.8867188-0.534668,1.8085938-1.0322266,2.765625-1.4921875c0.9570313-0.4609375,1.8144531-0.9189453,2.5722656-1.3764648
		c1.0283203-0.6196289,1.7646484-1.2563477,2.2109375-1.9111328c0.4462891-0.6542969,0.5996094-1.4243164,0.4599609-2.309082
		c-0.1396484-0.8852539-0.5966797-1.9697266-1.3710938-3.2543945l-0.9453125-1.5668945l-13.3144531,8.0283203l1.4257813,2.3632813
		l-0.3857422,0.2324219l-4.8173828-7.9897461l0.3847656-0.2324219l1.4414063,2.3891602l26.2041016-15.8007813l-1.4404297-2.3891602
		l0.3857422-0.2324219l5.3134766,8.8120117c0.8154297,1.3525391,1.3203125,2.6772461,1.515625,3.9731445
		c0.1943359,1.2954102,0.0097656,2.515625-0.5517578,3.6601563c-0.5625,1.1450195-1.5820313,2.1625977-3.0595703,3.0532227
		c-1.1552734,0.6972656-2.2675781,1.1049805-3.3349609,1.2231445s-2.0625,0.0288086-2.9853516-0.2670898
		s-1.7578125-0.7436523-2.5048828-1.3442383c-0.7480469-0.6005859-1.3798828-1.2705078-1.8955078-2.0102539
		c1.0146484,1.7705078,1.5322266,3.2387695,1.5537109,4.4057617c0.0205078,1.1669922-0.3408203,2.1669922-1.0820313,2.9995117
		c-0.7421875,0.8325195-1.7480469,1.6323242-3.0195313,2.3989258c-0.6044922,0.3642578-1.2246094,0.7148438-1.8623047,1.0522461
		c-0.6367188,0.3374023-1.2441406,0.6806641-1.8222656,1.0292969c-0.5009766,0.3022461-1.0195313,0.6552734-1.5546875,1.0600586
		c-0.5361328,0.4047852-0.9462891,0.8208008-1.2304688,1.2495117s-0.3134766,0.8310547-0.0859375,1.2080078
		c0.0927734,0.1542969,0.2207031,0.2641602,0.3828125,0.3300781c0.1621094,0.0654297,0.3242188,0.0727539,0.4863281,0.0219727
		l0.2783203,0.4624023c-0.2675781,0.1376953-0.5625,0.1411133-0.8867188,0.0097656
		c-0.3251953-0.1318359-0.6386719-0.3393555-0.9414063-0.6240234S422.6201172,155.8886719,422.4033203,155.5292969z
		 M430.9716797,137.1904297l1.3164063,2.1835938c0.6923828,1.1474609,1.5263672,1.8706055,2.5039063,2.1689453
		c0.9765625,0.2983398,2.0429688,0.2802734,3.1982422-0.0546875c1.1552734-0.3344727,2.3369141-0.8662109,3.5449219-1.5942383
		c1.1171875-0.6738281,2.0683594-1.3759766,2.8544922-2.1064453c0.7851563-0.730957,1.2578125-1.559082,1.4189453-2.484375
		c0.1591797-0.9257813-0.1220703-1.9882813-0.8447266-3.1870117l-1.4873047-2.4663086L430.9716797,137.1904297z"/>
	<path d="M424.5039063,158.1884766l0.4111328-0.184082l1.1181641,2.4902344l27.9130859-12.5400391l-1.1308594-2.5175781
		l0.4101563-0.1845703l2.9628906,6.5952148l-19.8095703,14.4902344l-0.1347656-0.3007813l24.3574219-4.3652344l2.7910156,6.2119141
		l-0.4101563,0.1845703l-1.15625-2.5727539l-27.9121094,12.5400391l1.1552734,2.5722656l-0.4101563,0.1845703l-3.7744141-8.4013672
		l0.4101563-0.184082l1.0458984,2.3256836l27.6660156-12.4291992l0.1103516,0.246582l-31.1748047,5.7172852l-0.3076172-0.684082
		l25.6064453-19.1010742l0.0537109,0.1738281l-28.015625,12.5859375l1.2539063,2.7910156l-0.4101563,0.1845703
		L424.5039063,158.1884766z"/>
	<path d="M434.9833984,182.640625l0.4267578-0.1435547l0.9003906,2.6728516l28.9990234-9.7666016l-0.8994141-2.6728516
		l0.4257813-0.1435547l3.0361328,9.0126953l-0.4267578,0.1435547l-0.9189453-2.7290039l-29,9.7661133l0.9189453,2.7294922
		l-0.4257813,0.1435547L434.9833984,182.640625z"/>
	<path d="M439.7509766,197.5820313l0.4365234-0.109375l0.6484375,2.5898438l29.6835938-7.434082l-0.5322266-2.1245117
		c-0.2529297-1.0087891-0.6806641-1.746582-1.2851563-2.2138672c-0.6035156-0.4672852-1.3544922-0.7177734-2.2519531-0.7504883
		c-0.8974609-0.0332031-1.9287109,0.0961914-3.0927734,0.3876953l-0.1523438-0.6108398l6.0673828-1.5195313l4.2929688,17.140625
		l-6.0673828,1.5195313L467.3515625,203.875c1.1640625-0.2915039,2.1328125-0.668457,2.90625-1.1298828
		c0.7734375-0.4619141,1.3183594-1.0366211,1.6328125-1.7236328c0.3154297-0.6870117,0.34375-1.5449219,0.0869141-2.5727539
		l-0.5322266-2.1245117l-29.6835938,7.434082l0.6855469,2.7358398l-0.4365234,0.1088867L439.7509766,197.5820313z"/>
	<path d="M443.8925781,216.0698242l0.4453125-0.0664063l0.3945313,2.640625l30.2636719-4.5297852l-0.3242188-2.1660156
		c-0.1542969-1.0283203-0.5097656-1.8041992-1.0654297-2.3276367c-0.5566406-0.5234375-1.2792969-0.8452148-2.1689453-0.9648438
		c-0.890625-0.1196289-1.9287109-0.090332-3.1152344,0.0874023l-0.09375-0.6230469l6.1865234-0.9262695l2.6152344,17.4755859
		l-6.1855469,0.9257813l-0.0888672-0.5932617c1.1865234-0.1777344,2.1865234-0.4589844,3.0019531-0.84375
		c0.8144531-0.3847656,1.4111328-0.9042969,1.7910156-1.5571289c0.3808594-0.6538086,0.4921875-1.5048828,0.3349609-2.5527344
		l-0.3242188-2.1660156l-30.2626953,4.5297852l0.4169922,2.7890625l-0.4443359,0.0664063L443.8925781,216.0698242z"/>
	<path d="M445.9912109,230.7880859l0.4492188-0.0249023l0.1494141,2.6958008l30.5527344-1.7036133l-0.1503906-2.6958008
		l0.4492188-0.0249023L478.3320313,245l-6.2451172,0.3481445l-0.0332031-0.5991211
		c1.2128906-0.0673828,2.2451172-0.2705078,3.0976563-0.6083984s1.4863281-0.8994141,1.9003906-1.6835938
		c0.4150391-0.7841797,0.5830078-1.8852539,0.5039063-3.3027344l-0.1992188-3.5644531l-15.0292969,0.8378906l0.3730469,6.6796875
		l2.6953125-0.1503906l0.0332031,0.5991211l-5.7958984,0.3227539l-0.0332031-0.5991211l2.6513672-0.1474609l-0.3730469-6.6796875
		l-15.0742188,0.840332l0.1894531,3.3847656c0.0791016,1.4174805,0.3759766,2.5078125,0.8916016,3.2705078
		c0.515625,0.762207,1.2207031,1.2788086,2.1142578,1.5498047c0.8945313,0.2700195,1.9482422,0.3720703,3.1611328,0.3041992
		l0.0332031,0.5991211l-6.3125,0.3520508L445.9912109,230.7880859z"/>
	<path d="M446.984375,248.4462891l0.4492188,0.0185547l-0.1113281,2.6972656l30.5742188,1.2597656l0.1113281-2.6982422
		l0.4492188,0.0185547l-0.2724609,6.625l-25.0585938,9.1757813l0.0117188-0.2988281l24.1894531,0.9960938l0.1152344-2.7890625
		l0.4492188,0.0195313l-0.2490234,6.0546875l-0.4492188-0.0175781l0.1074219-2.609375l-31.0244141-1.2773438l0.0517578-1.2578125
		l30.5146484-11.5058594l-0.0087891,0.2109375l-29.5400391-1.2167969l-0.1269531,3.0878906l-0.4492188-0.0195313
		L446.984375,248.4462891z"/>
	<path d="M445.4052734,273.6044922l0.4453125,0.0634766l-0.3789063,2.6435547l30.2919922,4.3359375l0.3095703-2.1679688
		c0.1474609-1.0292969,0.0302734-1.875-0.3525391-2.5351563c-0.3828125-0.6611328-0.9833984-1.1767578-1.8017578-1.5458984
		c-0.8183594-0.3701172-1.8212891-0.6396484-3.0097656-0.8095703l0.0898438-0.6240234l6.1914063,0.8867188l-2.5039063,17.4912109
		l-6.1914063-0.8857422l0.0849609-0.5947266c1.1875,0.1699219,2.2265625,0.1875,3.1171875,0.0527344
		c0.890625-0.1357422,1.6123047-0.4619141,2.1630859-0.9785156c0.5517578-0.5175781,0.9023438-1.3007813,1.0527344-2.3496094
		l0.3105469-2.1679688l-30.2919922-4.3359375l-0.3994141,2.7910156l-0.4453125-0.0634766L445.4052734,273.6044922z"/>
	<path d="M439.2509766,303.7539063l31.7851563,1.9921875l0.6972656-2.453125l0.4335938,0.1240234l-2.5117188,8.8291016
		l-0.4326172-0.1230469l0.6894531-2.4238281l-23.4443359-1.7089844l0.0654297-0.2304688l20.9658203,10.4228516l0.6728516-2.3662109
		l0.4326172,0.1230469l-1.6005859,5.6269531l-0.4326172-0.1230469l0.7548828-2.6542969L439.0214844,304.5625
		L439.2509766,303.7539063z"/>
	<path d="M436.5126953,313.3408203l0.4199219,0.1621094l-0.9726563,2.5185547l28.5439453,11.0273438l0.9726563-2.5185547
		l0.4199219,0.1621094l-5.7626953,14.9160156l-5.8349609-2.2539063l0.2167969-0.5605469
		c1.1328125,0.4384766,2.1582031,0.6787109,3.0742188,0.7216797s1.7236328-0.2080078,2.4248047-0.7509766
		c0.7001953-0.5449219,1.3066406-1.4785156,1.8183594-2.8037109l1.2871094-3.3300781l-14.0410156-5.4248047l-2.4111328,6.2412109
		l2.5185547,0.9726563l-0.2167969,0.5595703l-5.4150391-2.0917969l0.2167969-0.5595703l2.4765625,0.9570313l2.4111328-6.2412109
		l-14.0830078-5.4404297l-1.2216797,3.1621094c-0.5117188,1.3242188-0.6894531,2.4404297-0.5341797,3.3476563
		c0.15625,0.9072266,0.5859375,1.6679688,1.2890625,2.2832031c0.703125,0.6142578,1.6220703,1.140625,2.7548828,1.578125
		l-0.2158203,0.5605469l-5.8974609-2.2792969L436.5126953,313.3408203z"/>
	<path d="M430.1630859,329.8076172l0.4013672,0.203125l-1.2167969,2.4101563l27.3144531,13.7949219l1.2167969-2.4101563
		l0.4013672,0.2021484l-2.9882813,5.9189453l-26.6103516-2.0126953l0.1347656-0.2675781l21.6103516,10.9140625l1.2578125-2.4902344
		l0.4023438,0.2021484l-2.7324219,5.4101563l-0.4013672-0.203125l1.1767578-2.3300781l-27.7158203-13.9970703l0.5673828-1.125
		l32.5400391,2.1503906l-0.0947266,0.1875l-26.390625-13.328125l-1.3925781,2.7578125l-0.4023438-0.2021484L430.1630859,329.8076172
		z"/>
	<path d="M415.0791016,356.2734375c1.0849609-1.703125,2.5341797-2.8261719,4.3457031-3.3662109
		c1.8125-0.5419922,3.9326172-0.4775391,6.3603516,0.1923828c2.4277344,0.6689453,5.109375,1.9394531,8.0439453,3.8095703
		c2.9853516,1.9013672,5.2333984,3.9082031,6.7421875,6.0205078c1.5097656,2.1113281,2.3798828,4.1367188,2.6123047,6.0751953
		s-0.0869141,3.5908203-0.9570313,4.9570313c-0.6552734,1.0283203-1.4375,1.7392578-2.3466797,2.1337891
		c-0.9082031,0.3925781-1.8486328,0.5351563-2.8193359,0.4267578c-0.9716797-0.109375-1.8740234-0.4296875-2.7089844-0.9619141
		c-0.6074219-0.3867188-0.9755859-0.7929688-1.1044922-1.21875c-0.1289063-0.4267578-0.0478516-0.8671875,0.2421875-1.3222656
		c0.3115234-0.4892578,0.6767578-0.7421875,1.0976563-0.7587891c0.4199219-0.0175781,0.8759766,0.1308594,1.3701172,0.4453125
		c0.328125,0.2099609,0.5732422,0.4599609,0.734375,0.7529297c0.1601563,0.2919922,0.3310547,0.5957031,0.5117188,0.9130859
		c0.1806641,0.3164063,0.4726563,0.6035156,0.8779297,0.8613281c0.4804688,0.3066406,1.0673828,0.3417969,1.7597656,0.1074219
		c0.6914063-0.234375,1.2529297-0.6894531,1.6826172-1.3642578c0.5585938-0.8769531,0.625-1.9082031,0.1972656-3.09375
		s-1.1777344-2.4160156-2.25-3.6923828s-2.3066406-2.5068359-3.703125-3.6933594s-2.7841797-2.21875-4.1630859-3.0966797
		c-1.5810547-1.0078125-3.2001953-1.9267578-4.8583984-2.7578125s-3.2451172-1.4755859-4.7597656-1.9306641
		c-1.515625-0.4550781-2.8466797-0.6337891-3.9951172-0.5351563c-1.1474609,0.0986328-1.9951172,0.5791016-2.5429688,1.4384766
		c-0.2685547,0.421875-0.4326172,0.8457031-0.4902344,1.2714844s-0.0478516,0.7451172,0.0283203,0.9609375l10.9111328,6.9511719
		l1.3222656-2.0742188l0.3789063,0.2412109l-4.6582031,7.3125l-0.3798828-0.2421875l1.4023438-2.2011719l-11.6318359-7.4111328
		l0.3867188-0.6074219c0.0253906,0.0166016,0.1210938-0.0292969,0.2871094-0.1367188s0.3574219-0.3300781,0.5722656-0.6669922
		c0.171875-0.2705078,0.3203125-0.6142578,0.4443359-1.0332031c0.125-0.4189453,0.2597656-0.8603516,0.4042969-1.3251953
		C414.5712891,357.1894531,414.7880859,356.7294922,415.0791016,356.2734375z"/>
	<path d="M410.4033203,364.25l0.3554688,0.2763672l-1.6572266,2.1308594l24.1601563,18.7792969l1.6572266-2.1318359
		l0.3554688,0.2763672l-9.8134766,12.625l-4.9384766-3.8388672l0.3681641-0.4736328
		c0.9589844,0.7460938,1.8710938,1.2705078,2.7363281,1.5761719c0.8652344,0.3046875,1.7109375,0.296875,2.5390625-0.0214844
		c0.8271484-0.3203125,1.6767578-1.0400391,2.5478516-2.1611328l2.1914063-2.8183594l-11.8847656-9.2373047l-4.1054688,5.28125
		l2.1318359,1.6572266l-0.3681641,0.4736328l-4.5830078-3.5625l0.3681641-0.4736328l2.0957031,1.6298828l4.1054688-5.2822266
		l-11.9199219-9.265625l-2.0800781,2.6767578c-0.8710938,1.1210938-1.3632813,2.1376953-1.4746094,3.0517578
		c-0.1123047,0.9140625,0.0800781,1.7666016,0.5771484,2.5576172c0.4960938,0.7910156,1.2236328,1.5595703,2.1826172,2.3056641
		l-0.3681641,0.4736328l-4.9912109-3.8808594L410.4033203,364.25z"/>
	<path d="M400.4658203,377.1367188l0.3291016,0.3066406l-1.9228516,2.0625l18.4414063,25.8515625l-0.59375,0.6357422
		l-27.1162109-16.5478516l-1.8613281,1.9970703l-0.3291016-0.3076172l6.546875-7.0205078l0.3291016,0.3066406l-1.8212891,1.953125
		l19.8876953,12.5546875l-0.2050781,0.2197266l-13.7285156-19.1591797l-1.6982422,1.8203125l-0.3291016-0.3066406
		L400.4658203,377.1367188z M403.0742188,385.8867188l0.3457031,0.3212891l-4.7050781,5.046875l-0.3457031-0.3222656
		L403.0742188,385.8867188z"/>
	<path d="M388.1308594,390.4492188l0.2998047,0.3359375l-2.0166016,1.7958984l20.3525391,22.8505859l2.015625-1.7958984
		l0.2998047,0.3359375l-4.9511719,4.4101563l-24.0185547-11.6308594l0.2246094-0.1992188l16.1015625,18.078125l2.0839844-1.8554688
		l0.2988281,0.3359375l-4.5253906,4.0302734l-0.2988281-0.3359375l1.9492188-1.7353516l-20.6523438-23.1865234l0.9414063-0.8378906
		l29.484375,13.9326172l-0.1572266,0.1396484l-19.6640625-22.0771484l-2.3066406,2.0546875l-0.2998047-0.3359375
		L388.1308594,390.4492188z"/>
	<path d="M364.8896484,409.1962891c2.125-1.5664063,4.6796875-1.7490234,7.6640625-0.546875
		c2.9853516,1.2001953,6.046875,3.9326172,9.1884766,8.1962891c1.1298828,1.5332031,2.1259766,3.1796875,2.9873047,4.9394531
		c0.8613281,1.7587891,1.4619141,3.5009766,1.8017578,5.2265625c0.3388672,1.7246094,0.3271484,3.3173828-0.0380859,4.7783203
		c-0.3642578,1.4609375-1.1904297,2.6660156-2.4785156,3.6152344c-0.9335938,0.6875-1.8984375,1.03125-2.8935547,1.0283203
		c-0.9960938-0.0029297-1.9277344-0.2382813-2.7949219-0.7080078c-0.8681641-0.46875-1.5732422-1.0722656-2.1152344-1.8085938
		c-0.4189453-0.5673828-0.6210938-1.0703125-0.6083984-1.5078125c0.0126953-0.4384766,0.2363281-0.8173828,0.6708984-1.1376953
		c0.4677734-0.3447266,0.8964844-0.4609375,1.2890625-0.3486328c0.3925781,0.1103516,0.7666016,0.4082031,1.1230469,0.890625
		c0.2402344,0.3261719,0.3876953,0.6601563,0.4404297,1.0029297c0.0537109,0.3427734,0.1142578,0.6943359,0.1806641,1.0546875
		c0.0673828,0.3603516,0.2382813,0.7285156,0.5146484,1.1025391c0.3203125,0.4345703,0.8222656,0.6943359,1.5048828,0.7783203
		c0.6826172,0.0830078,1.2978516-0.0761719,1.8447266-0.4794922c0.6445313-0.4746094,1.0048828-1.1738281,1.0830078-2.0976563
		c0.0771484-0.9228516-0.0498047-1.9804688-0.3808594-3.1708984c-0.3310547-1.1914063-0.7871094-2.4335938-1.3681641-3.7285156
		c-0.5820313-1.2949219-1.2294922-2.5458984-1.9453125-3.7519531c-0.7138672-1.2060547-1.4140625-2.2744141-2.0996094-3.2041016
		c-0.9697266-1.3164063-1.96875-2.5458984-2.9970703-3.6884766s-2.0527344-2.1533203-3.0732422-3.0322266
		c-1.0195313-0.8789063-1.9980469-1.5917969-2.9365234-2.1396484c-0.9375-0.5488281-1.796875-0.8798828-2.5771484-0.9941406
		c-0.7792969-0.1152344-1.4511719,0.0351563-2.015625,0.4511719c-0.6591797,0.4863281-1.1240234,1.1123047-1.3916016,1.8779297
		c-0.2685547,0.765625-0.3955078,1.5537109-0.3828125,2.3642578c0.0136719,0.8095703,0.1035156,1.4794922,0.2695313,2.0087891
		l-0.7041016,0.15625c-0.1640625-0.8291016-0.2109375-1.6845703-0.1396484-2.5664063s0.2919922-1.7197266,0.6621094-2.5146484
		C363.5449219,410.4482422,364.1162109,409.765625,364.8896484,409.1962891z"/>
	<path d="M359.2285156,413.8710938l0.234375,0.3837891l-2.3046875,1.4072266l15.9384766,26.1201172l2.3056641-1.40625
		l0.234375,0.3847656l-13.6503906,8.3291016L358.7285156,443.75l0.5126953-0.3125
		c0.6328125,1.0371094,1.2998047,1.8515625,2,2.4433594c0.7011719,0.5908203,1.4951172,0.8837891,2.3818359,0.8789063
		c0.8867188-0.0058594,1.9365234-0.3779297,3.1484375-1.1171875l3.0478516-1.859375l-7.8408203-12.8496094l-5.7109375,3.484375
		l1.40625,2.3056641l-0.5117188,0.3125l-3.0234375-4.9560547l0.5117188-0.3125l1.3828125,2.2666016l5.7109375-3.484375
		l-7.8642578-12.8876953l-2.8935547,1.765625c-1.2119141,0.7392578-2.0322266,1.5166016-2.4609375,2.3320313
		c-0.4277344,0.8144531-0.5498047,1.6796875-0.3662109,2.5957031c0.1845703,0.9150391,0.5927734,1.8916016,1.2255859,2.9287109
		l-0.5126953,0.3134766l-3.2929688-5.3974609L359.2285156,413.8710938z"/>
	<path d="M338.3623047,426.1064453l0.1826172,0.4111328l-2.5791016,1.1425781l6.8154297,31.0146484l-0.7958984,0.3525391
		l-18.4443359-25.8632813l-2.4960938,1.1054688l-0.1826172-0.4111328l8.7773438-3.8886719l0.1826172,0.4121094l-2.4414063,1.0810547
		l13.3632813,19.3535156l-0.2744141,0.1220703l-5.1074219-23.0107422l-2.2763672,1.0078125l-0.1816406-0.4111328
		L338.3623047,426.1064453z M337.3271484,435.1777344l0.1914063,0.4316406l-6.3085938,2.7949219l-0.1914063-0.4316406
		L337.3271484,435.1777344z"/>
	<path d="M304.7470703,438.8310547c1.0439453-0.3486328,1.9208984-0.3730469,2.6328125-0.0732422
		s1.2958984,0.8046875,1.7548828,1.5136719c0.4580078,0.7089844,0.8291016,1.4902344,1.1142578,2.34375
		c0.328125,0.9814453,0.6123047,1.9902344,0.8525391,3.0244141c0.2402344,1.0351563,0.5,1.9716797,0.7802734,2.8115234
		c0.3808594,1.1376953,0.8408203,1.9960938,1.3818359,2.5742188c0.5410156,0.5791016,1.2597656,0.8964844,2.1533203,0.9541016
		c0.8945313,0.0566406,2.0527344-0.1523438,3.4755859-0.6269531l1.7353516-0.5800781l-4.9248047-14.7470703l-2.6181641,0.875
		l-0.1425781-0.4267578l8.8496094-2.9560547l0.1425781,0.4267578l-2.6464844,0.8837891l9.6933594,29.0244141l2.6464844-0.8837891
		l0.1425781,0.4267578l-9.7597656,3.2597656c-1.4980469,0.5-2.9013672,0.7041016-4.2080078,0.6103516
		s-2.4580078-0.5390625-3.4521484-1.3378906s-1.7646484-2.0166016-2.3105469-3.6523438
		c-0.4277344-1.2802734-0.5830078-2.4541016-0.4648438-3.5214844s0.421875-2.0195313,0.9130859-2.8544922
		c0.4902344-0.8369141,1.109375-1.5537109,1.8583984-2.1513672c0.75-0.5986328,1.5410156-1.0683594,2.3759766-1.4101563
		c-1.9492188,0.6035156-3.4951172,0.7880859-4.6386719,0.5527344c-1.1425781-0.2353516-2.0400391-0.8046875-2.6904297-1.7109375
		c-0.6503906-0.9052734-1.2109375-2.0625-1.6816406-3.4707031c-0.2226563-0.6689453-0.4296875-1.3515625-0.6201172-2.046875
		c-0.1894531-0.6953125-0.3916016-1.3632813-0.6054688-2.0039063c-0.1855469-0.5546875-0.4169922-1.1376953-0.6953125-1.7480469
		c-0.2773438-0.6113281-0.5947266-1.1025391-0.9501953-1.4736328c-0.3564453-0.3720703-0.7431641-0.4873047-1.1601563-0.3476563
		c-0.1708984,0.0566406-0.3056641,0.1572266-0.4052734,0.3007813s-0.1416016,0.3007813-0.1279297,0.4697266l-0.5126953,0.1708984
		c-0.0751953-0.2910156-0.0136719-0.5800781,0.1845703-0.8681641c0.1992188-0.2880859,0.4707031-0.5478516,0.8144531-0.78125
		S304.3486328,438.9638672,304.7470703,438.8310547z M320.7705078,451.1992188l-2.4189453,0.8076172
		c-1.2705078,0.4248047-2.1582031,1.0810547-2.6630859,1.96875c-0.5048828,0.8886719-0.7197266,1.9326172-0.6455078,3.1337891
		c0.0742188,1.2001953,0.3349609,2.4697266,0.78125,3.8076172c0.4130859,1.2373047,0.890625,2.3193359,1.4316406,3.2460938
		c0.5419922,0.9257813,1.2470703,1.5683594,2.1142578,1.9267578c0.8691406,0.3583984,1.9667969,0.3154297,3.2949219-0.1279297
		l2.7314453-0.9121094L320.7705078,451.1992188z"/>
	<path d="M301.7041016,440.2949219l0.0898438,0.4414063l-2.6748047,0.5458984l6.1230469,29.9814453l2.7041016-0.5527344
		l0.0898438,0.4414063l-7.0839844,1.4462891l-9.8007813-22.5019531l0.3232422-0.0654297l-1.0742188,24.7226563l-6.6728516,1.3623047
		l-0.0898438-0.4404297l2.7626953-0.5644531l-6.1230469-29.9814453l-2.7626953,0.5644531l-0.0898438-0.4414063l9.0234375-1.8427734
		l0.0908203,0.4414063l-2.4990234,0.5097656l6.0693359,29.7167969l-0.2646484,0.0537109l1.2480469-31.6699219l0.734375-0.1503906
		l13.0302734,29.1679688l-0.1806641,0.0136719l-6.1455078-30.0908203l-2.9980469,0.6123047l-0.0898438-0.4414063
		L301.7041016,440.2949219z"/>
	<path d="M269.6308594,446.015625l0.0224609,0.4492188l-2.8164063,0.1416016l-4.7587891,31.3964844l-0.8691406,0.0439453
		l-7.9443359-30.7578125l-2.7275391,0.1376953l-0.0214844-0.4492188l9.5869141-0.4824219l0.0234375,0.4492188l-2.6669922,0.1337891
		l5.5351563,22.8583984l-0.2998047,0.015625l3.4833984-23.3125l-2.4863281,0.125l-0.0234375-0.4492188L269.6308594,446.015625z
		 M265.4121094,454.1123047l0.0234375,0.4726563l-6.890625,0.3466797l-0.0244141-0.4726563L265.4121094,454.1123047z"/>
	<path d="M241.9853516,446.1435547c2.019043,0.0693359,3.7216797,0.7470703,5.1079102,2.0332031
		c1.3867188,1.2851563,2.4082031,3.1445313,3.0649414,5.5761719c0.65625,2.4316406,0.9248047,5.3857422,0.8046875,8.8642578
		c-0.1210938,3.5371094-0.7080078,6.4931641-1.7607422,8.8652344c-1.0522461,2.3730469-2.3540039,4.1513672-3.90625,5.3369141
		c-1.5512695,1.1845703-3.1367188,1.7490234-4.7558594,1.6933594c-1.2192383-0.0419922-2.2290039-0.3544922-3.0297852-0.9375
		c-0.7998047-0.5830078-1.3999023-1.3203125-1.7998047-2.2119141c-0.3994141-0.8916016-0.5820313-1.8330078-0.5483398-2.8222656
		c0.0249023-0.7197266,0.1884766-1.2431641,0.4897461-1.5703125s0.7216797-0.4814453,1.2617188-0.4628906
		c0.5795898,0.0205078,0.9833984,0.2060547,1.2114258,0.5595703c0.2280273,0.3525391,0.331543,0.8222656,0.3115234,1.40625
		c-0.0131836,0.3896484-0.1044922,0.7285156-0.2749023,1.015625c-0.1699219,0.2861328-0.3452148,0.5878906-0.5263672,0.9042969
		c-0.1806641,0.3164063-0.2797852,0.7148438-0.2963867,1.1943359c-0.0195313,0.5693359,0.2475586,1.0927734,0.8012695,1.5703125
		c0.5541992,0.4765625,1.230957,0.7285156,2.0302734,0.7558594c1.0395508,0.0361328,1.9614258-0.4316406,2.7646484-1.4013672
		c0.8041992-0.9707031,1.4833984-2.2421875,2.0375977-3.8134766c0.5546875-1.5722656,0.9882813-3.2607422,1.300293-5.0654297
		c0.3125-1.8056641,0.496582-3.5253906,0.5527344-5.1591797c0.0644531-1.8740234,0.0341797-3.7363281-0.0927734-5.5869141
		c-0.1259766-1.8505859-0.3779297-3.5439453-0.7553711-5.0800781s-0.8999023-2.7744141-1.5683594-3.7128906
		c-0.6679688-0.9384766-1.5117188-1.4248047-2.53125-1.4599609c-0.4990234-0.0175781-0.9472656,0.0576172-1.3432617,0.2236328
		c-0.3959961,0.1669922-0.6669922,0.3378906-0.8129883,0.5126953l-0.4453125,12.9296875l2.4584961,0.0849609l-0.015625,0.4492188
		l-8.6650391-0.2978516l0.015625-0.4501953l2.6083984,0.0898438l0.4750977-13.7841797l0.7192383,0.0244141
		c-0.0009766,0.0302734,0.0869141,0.0898438,0.2641602,0.1777344c0.1772461,0.0888672,0.4658203,0.140625,0.8652344,0.1542969
		c0.3198242,0.0107422,0.6914063-0.0361328,1.1157227-0.1416016c0.4238281-0.1054688,0.8730469-0.2138672,1.3466797-0.3251953
		C240.9384766,446.1708984,241.4453125,446.1240234,241.9853516,446.1435547z"/>
	<path d="M234.2363281,446.3613281l-0.0571289,0.4462891l-2.7973633-0.3583984l-10.2329102,30.0605469l-0.8632813-0.1103516
		l-2.3833008-31.6767578L215.1943359,444.375l0.0571289-0.4462891l9.5219727,1.2207031l-0.0571289,0.4462891l-2.6479492-0.3398438
		l1.4077148,23.4765625l-0.2973633-0.0380859l7.5488281-22.3291016l-2.4702148-0.3164063l0.0576172-0.4462891
		L234.2363281,446.3613281z M228.652832,453.5849609l-0.0600586,0.46875l-6.84375-0.8769531l0.0600586-0.46875
		L228.652832,453.5849609z"/>
	<path d="M215.6831055,443.8291016l-0.0883789,0.4414063l-2.7651367-0.5556641l-6.0288086,30l2.7646484,0.5556641
		l-0.0883789,0.4414063l-9.3237305-1.8740234l0.0883789-0.4414063l2.8237305,0.5673828l6.0288086-30l-2.8232422-0.5673828
		l0.0883789-0.4414063L215.6831055,443.8291016z"/>
	<path d="M204.3652344,441.6875l-0.1254883,0.4326172l-2.5927734-0.7539063l-8.5454102,29.3818359l2.5922852,0.7548828
		l-0.1254883,0.4316406l-6.3662109-1.8515625l-2.9072266-26.5273438l0.2880859,0.0839844l-6.7612305,23.2460938l2.6787109,0.7792969
		L182.375,468.0976563l-5.8188477-1.6923828l0.1254883-0.4326172l2.5063477,0.7294922l8.6713867-29.8144531l1.2099609,0.3515625
		l3.8603516,32.3818359l-0.2016602-0.0595703l8.2563477-28.3886719l-2.9667969-0.8623047l0.1254883-0.4326172L204.3652344,441.6875z
		"/>
	<path d="M176.840332,433.0195313l-0.1899414,0.4082031l-2.4750977-1.1513672l-12.9086914,27.7431641l2.4750977,1.1523438
		l-0.1899414,0.4072266l-8.1054688-3.7705078l0.1899414-0.4082031l2.1757813,1.0117188l6.1601563-13.2392578l-7.6157227-3.5429688
		l-6.1601563,13.2392578l2.1484375,1l-0.1894531,0.4072266l-8.105957-3.7705078l0.1899414-0.4082031l2.5566406,1.1894531
		l12.9086914-27.7441406l-2.5566406-1.1894531l0.1899414-0.4082031l8.1054688,3.7714844L165.253418,428.125l-2.1484375-1
		l-6.559082,14.0966797l7.6162109,3.5429688l6.5585938-14.0957031l-2.1757813-1.0126953l0.1894531-0.4082031L176.840332,433.0195313
		z"/>
	<path d="M155.8217773,422.8564453l-0.2255859,0.3896484l-2.4414063-1.4111328l-15.3134766,26.4921875l2.4414063,1.4111328
		l-0.2250977,0.3896484l-8.2333984-4.7587891l0.2250977-0.3896484l2.4931641,1.4414063l15.3139648-26.4931641l-2.4936523-1.4414063
		l0.2255859-0.3896484L155.8217773,422.8564453z"/>
	<path d="M139.9882813,412.4121094c0.5957031,0.4033203,1.1015625,0.8330078,1.5185547,1.2880859
		c0.4160156,0.4550781,0.7724609,0.8916016,1.0688477,1.3095703c0.2958984,0.4189453,0.5493164,0.7851563,0.7587891,1.0996094
		s0.4052734,0.5332031,0.5874023,0.6572266c0.2978516,0.2021484,0.5942383,0.0859375,0.8891602-0.3486328l0.4467773,0.3027344
		l-3.7265625,5.4931641l-0.5214844-0.3544922c0.2871094-0.4570313,0.5117188-1.0029297,0.6748047-1.6357422
		c0.1635742-0.6318359,0.2583008-1.296875,0.284668-1.9951172s-0.034668-1.3828125-0.1831055-2.0546875
		s-0.3847656-1.2939453-0.7089844-1.8671875c-0.3237305-0.5732422-0.7753906-1.0566406-1.3544922-1.4501953
		c-1.0429688-0.7070313-1.9760742-1.0322266-2.8007813-0.9755859c-0.8237305,0.0576172-1.5585938,0.3476563-2.2036133,0.8710938
		c-0.6450195,0.5224609-1.2158203,1.1503906-1.7128906,1.8828125c-0.6142578,0.90625-0.9975586,1.9970703-1.1494141,3.2714844
		s-0.1669922,2.6416016-0.0458984,4.1015625c0.121582,1.4599609,0.296875,2.8935547,0.5268555,4.2998047
		c0.3325195,2.1103516,0.5048828,3.8779297,0.5185547,5.3007813c0.0131836,1.4228516-0.1230469,2.6210938-0.4101563,3.5957031
		c-0.2861328,0.9755859-0.6948242,1.8535156-1.2255859,2.6357422c-0.8085938,1.1914063-1.7553711,2.0175781-2.8408203,2.4765625
		c-1.0854492,0.4599609-2.1870117,0.6142578-3.3051758,0.4638672c-1.1176758-0.1513672-2.1733398-0.5644531-3.1665039-1.2373047
		c-0.7446289-0.5058594-1.3393555-1.0185547-1.784668-1.5380859s-0.796875-0.9892578-1.0556641-1.4091797
		s-0.4790039-0.6914063-0.6611328-0.8154297c-0.1489258-0.1015625-0.2900391-0.1425781-0.4233398-0.1240234
		s-0.2714844,0.1328125-0.4145508,0.34375l-0.4467773-0.3027344l3.7011719-5.4560547l0.496582,0.3369141
		c-0.3378906,0.6044922-0.6240234,1.2851563-0.859375,2.0410156c-0.234375,0.7558594-0.359375,1.5371094-0.3745117,2.3427734
		c-0.0146484,0.8056641,0.1328125,1.5673828,0.4433594,2.2851563s0.8378906,1.3300781,1.5825195,1.8349609
		c0.8935547,0.6064453,1.8759766,0.8603516,2.9458008,0.7617188c1.0703125-0.0986328,2.0385742-0.7880859,2.9057617-2.0664063
		c0.4970703-0.7324219,0.8574219-1.5566406,1.0810547-2.4746094c0.2241211-0.9179688,0.3037109-2.0234375,0.2392578-3.3183594
		c-0.0644531-1.2939453-0.2509766-2.8710938-0.5605469-4.7304688c-0.3110352-1.6074219-0.5297852-3.1738281-0.6547852-4.6992188
		s-0.0712891-2.9667969,0.1601563-4.3232422s0.7260742-2.59375,1.4838867-3.7109375
		c0.6235352-0.9189453,1.3388672-1.6611328,2.1459961-2.2275391c0.8081055-0.5673828,1.6660156-0.9414063,2.5742188-1.1220703
		c0.9086914-0.1816406,1.8383789-0.171875,2.7890625,0.0292969
		C138.171875,411.4013672,139.0942383,411.8056641,139.9882813,412.4121094z"/>
	<path d="M113.003418,390.9365234c0.8188477,0.7353516,1.2739258,1.4853516,1.3647461,2.2529297
		c0.0917969,0.7666016-0.0576172,1.5244141-0.4477539,2.2734375c-0.3891602,0.7480469-0.8847656,1.4580078-1.4858398,2.1279297
		c-0.6914063,0.7695313-1.4267578,1.515625-2.2080078,2.2353516c-0.7802734,0.7207031-1.4663086,1.4101563-2.0571289,2.0693359
		c-0.8012695,0.8925781-1.3198242,1.7177734-1.5551758,2.4736328c-0.2348633,0.7568359-0.15625,1.5380859,0.2358398,2.3427734
		c0.3925781,0.8056641,1.1469727,1.7089844,2.2636719,2.7109375l1.3618164,1.2216797l10.3828125-11.5722656l-2.0541992-1.8427734
		l0.3007813-0.3349609l6.9443359,6.2304688l-0.300293,0.3349609l-2.0771484-1.8632813l-20.4350586,22.7763672l2.0766602,1.8632813
		l-0.300293,0.3349609l-7.6591797-6.8720703c-1.1757813-1.0546875-2.0463867-2.1728516-2.6118164-3.3554688
		c-0.5644531-1.1826172-0.7460938-2.4033203-0.543457-3.6621094s0.8798828-2.5302734,2.0317383-3.8144531
		c0.9018555-1.0048828,1.8457031-1.7197266,2.831543-2.1445313c0.9863281-0.4257813,1.9638672-0.6318359,2.9326172-0.6181641
		c0.9697266,0.0126953,1.8989258,0.1962891,2.7890625,0.5517578c0.890625,0.3554688,1.690918,0.8115234,2.4003906,1.3681641
		c-1.4882813-1.3955078-2.4130859-2.6484375-2.7739258-3.7587891c-0.3608398-1.109375-0.309082-2.171875,0.1567383-3.1845703
		s1.1943359-2.0722656,2.1860352-3.1777344c0.4707031-0.5244141,0.9614258-1.0410156,1.472168-1.5507813
		c0.5107422-0.5087891,0.9912109-1.0146484,1.4418945-1.5175781c0.390625-0.4355469,0.7832031-0.9248047,1.1762695-1.4677734
		c0.394043-0.5439453,0.6645508-1.0625,0.8110352-1.5556641c0.1469727-0.4931641,0.0561523-0.8857422-0.2714844-1.1796875
		c-0.1337891-0.1201172-0.2875977-0.1884766-0.4624023-0.2041016c-0.1738281-0.0146484-0.3310547,0.0253906-0.4711914,0.1210938
		l-0.4018555-0.3603516c0.215332-0.2099609,0.4970703-0.2998047,0.8457031-0.2685547
		c0.3491211,0.0302734,0.7094727,0.1376953,1.0820313,0.3212891
		C112.3486328,390.4248047,112.690918,390.65625,113.003418,390.9365234z M110.175293,410.9794922l-1.8979492-1.7021484
		c-0.9975586-0.8955078-2.0068359-1.3427734-3.0283203-1.3417969c-1.0214844,0-2.0356445,0.3300781-3.0429688,0.9882813
		c-1.0068359,0.6582031-1.9814453,1.5117188-2.9233398,2.5615234c-0.8710938,0.9707031-1.5756836,1.9208984-2.1132813,2.8496094
		c-0.5371094,0.9287109-0.7470703,1.8583984-0.6293945,2.7900391c0.1176758,0.9326172,0.6977539,1.8662109,1.7397461,2.8007813
		l2.1435547,1.9228516L110.175293,410.9794922z"/>
	<path d="M110.2509766,388.7304688l-0.3320313,0.3037109l-1.8222656-1.9921875l-22.5771484,20.6552734l1.8222656,1.9921875
		l-0.3320313,0.3037109l-10.7929688-11.7978516l4.6147461-4.2226563l0.4052734,0.4433594
		c-0.8964844,0.8193359-1.5673828,1.6308594-2.0141602,2.4316406c-0.4458008,0.8007813-0.5810547,1.6367188-0.4057617,2.5058594
		c0.1757813,0.8701172,0.7421875,1.828125,1.7006836,2.8759766l2.409668,2.6337891l11.105957-10.1601563l-4.515625-4.9355469
		l-1.9921875,1.8222656l-0.4047852-0.4423828l4.2832031-3.9189453l0.4047852,0.4423828l-1.9589844,1.7929688l4.515625,4.9355469
		l11.1396484-10.1904297l-2.2885742-2.5019531c-0.9584961-1.046875-1.878418-1.703125-2.7602539-1.9667969
		s-1.7543945-0.2177734-2.6181641,0.1376953c-0.8632813,0.3564453-1.7431641,0.9453125-2.6396484,1.7646484l-0.4052734-0.4423828
		l4.6650391-4.2675781L110.2509766,388.7304688z"/>
	<path d="M98.3320313,375.7011719l-0.3598633,0.2705078l-1.6396484-2.1826172l-24.4658203,18.3789063l1.6396484,2.1826172
		l-0.3598633,0.2705078l-5.2070313-6.9326172c-1.1293945-1.5029297-1.706543-3.2138672-1.7319336-5.1337891
		c-0.0253906-1.9189453,0.5966797-3.9384766,1.8671875-6.0556641s3.3027344-4.2255859,6.097168-6.3242188
		c2.8183594-2.1181641,5.4541016-3.5166016,7.9077148-4.1962891s4.628418-0.7568359,6.5249023-0.2294922
		c1.8964844,0.5263672,3.402832,1.5332031,4.5200195,3.0205078L98.3320313,375.7011719z M94.0258789,370.71875l-0.8647461-1.1513672
		c-0.7207031-0.9599609-1.8339844-1.5302734-3.340332-1.7119141c-1.5058594-0.1826172-3.362793,0.1689453-5.5703125,1.0507813
		c-2.2070313,0.8828125-4.7436523,2.4003906-7.6103516,4.5537109c-2.5302734,1.9013672-4.5239258,3.7490234-5.9804688,5.5439453
		s-2.3881836,3.4140625-2.7954102,4.8574219c-0.4067383,1.4443359-0.2978516,2.5820313,0.3266602,3.4130859l1.3696289,1.8232422
		L94.0258789,370.71875z"/>
	<path d="M73.5395508,336.6738281c0.5253906,0.9658203,0.7021484,1.8261719,0.53125,2.5791016
		s-0.5654297,1.4169922-1.1835938,1.9921875c-0.6181641,0.5742188-1.3227539,1.0771484-2.1132813,1.5068359
		c-0.909668,0.4941406-1.8525391,0.9501953-2.8295898,1.3671875c-0.9765625,0.4169922-1.8540039,0.8369141-2.6318359,1.2587891
		c-1.0541992,0.5732422-1.8188477,1.1767578-2.2939453,1.8105469s-0.6625977,1.3964844-0.5629883,2.2861328
		c0.1000977,0.890625,0.5078125,1.9951172,1.2241211,3.3125l0.8740234,1.6083984l13.6606445-7.4248047l-1.3183594-2.4248047
		l0.3955078-0.2148438l4.4550781,8.1972656l-0.3950195,0.2148438l-1.3325195-2.4511719l-26.8857422,14.6123047l1.3320313,2.4511719
		l-0.3950195,0.2148438l-4.9140625-9.0410156c-0.7539063-1.3876953-1.1992188-2.7333984-1.3359375-4.0371094
		c-0.1357422-1.3027344,0.1020508-2.5136719,0.7148438-3.6318359s1.6772461-2.0898438,3.1928711-2.9130859
		c1.1860352-0.6445313,2.3149414-1.0019531,3.3862305-1.0722656c1.0717773-0.0703125,2.0620117,0.0634766,2.9707031,0.4003906
		s1.7231445,0.8212891,2.4423828,1.4550781c0.7197266,0.6328125,1.3212891,1.3300781,1.8032227,2.0927734
		c-0.9345703-1.8144531-1.3857422-3.3037109-1.3540039-4.4707031s0.4365234-2.1494141,1.2148438-2.9482422
		s1.8193359-1.5527344,3.1240234-2.2617188c0.6196289-0.3369141,1.2553711-0.6591797,1.9067383-0.9677734
		c0.6518555-0.3085938,1.2744141-0.6240234,1.8671875-0.9462891c0.5141602-0.2792969,1.0478516-0.609375,1.6005859-0.9892578
		c0.5532227-0.3798828,0.9819336-0.7783203,1.2851563-1.1933594c0.3037109-0.4150391,0.3500977-0.8164063,0.1396484-1.203125
		c-0.0859375-0.1582031-0.2080078-0.2734375-0.3671875-0.3466797c-0.1586914-0.0722656-0.3203125-0.0869141-0.4848633-0.0439453
		l-0.2578125-0.4746094c0.2734375-0.125,0.5688477-0.1152344,0.8867188,0.0302734
		c0.3188477,0.1464844,0.6225586,0.3681641,0.9121094,0.6650391
		C73.09375,335.9716797,73.3388672,336.3046875,73.5395508,336.6738281z M64.1582031,354.6103516l-1.2172852-2.2412109
		c-0.6401367-1.1767578-1.440918-1.9365234-2.4038086-2.2783203c-0.9624023-0.3417969-2.0283203-0.3710938-3.1982422-0.0888672
		c-1.1689453,0.2832031-2.3735352,0.7607422-3.6123047,1.4345703c-1.1464844,0.6230469-2.128418,1.28125-2.9462891,1.9765625
		c-0.8168945,0.6943359-1.3261719,1.5009766-1.5283203,2.4179688c-0.2006836,0.9179688,0.0327148,1.9912109,0.7011719,3.2216797
		l1.375,2.5302734L64.1582031,354.6103516z"/>
	<path d="M71.5864258,333.1992188l-0.4121094,0.1796875l-1.1308594-2.5830078l-28.03125,12.2724609l1.1308594,2.5839844
		l-0.4121094,0.1796875l-3.8139648-8.7109375l0.4121094-0.1806641l1.1547852,2.6376953l28.03125-12.2724609l-1.1547852-2.6376953
		l0.4121094-0.1806641L71.5864258,333.1992188z"/>
	<path d="M64.2075195,313.5527344c0.6645508,1.9072266,0.6479492,3.7402344-0.050293,5.4970703
		c-0.6977539,1.7578125-2.0620117,3.3828125-4.0917969,4.8730469c-2.0302734,1.4912109-4.6879883,2.8085938-7.9746094,3.9541016
		c-3.3427734,1.1650391-6.3105469,1.6855469-8.9033203,1.5615234c-2.5922852-0.1240234-4.7211914-0.6953125-6.3867188-1.7138672
		s-2.7646484-2.2929688-3.2978516-3.8232422c-0.4013672-1.1513672-0.4746094-2.2060547-0.2207031-3.1630859
		c0.2543945-0.9570313,0.7250977-1.7832031,1.4121094-2.4775391c0.6875-0.6953125,1.4980469-1.2050781,2.4331055-1.53125
		c0.6801758-0.2373047,1.2270508-0.2734375,1.6411133-0.1113281c0.4140625,0.1630859,0.7099609,0.4990234,0.8876953,1.0097656
		c0.190918,0.5478516,0.1630859,0.9912109-0.0839844,1.3310547c-0.246582,0.3408203-0.6464844,0.6064453-1.1987305,0.7988281
		c-0.3681641,0.1289063-0.7167969,0.1660156-1.0458984,0.1103516c-0.3286133-0.0546875-0.6733398-0.109375-1.0341797-0.1640625
		c-0.3598633-0.0537109-0.7670898-0.0019531-1.2202148,0.1552734c-0.5385742,0.1875-0.9296875,0.6259766-1.1743164,1.3154297
		c-0.2441406,0.6884766-0.2348633,1.4111328,0.0283203,2.1660156c0.3422852,0.9824219,1.1108398,1.6728516,2.3061523,2.0712891
		c1.1953125,0.3994141,2.6259766,0.5732422,4.2919922,0.5224609c1.6660156-0.0517578,3.3969727-0.2578125,5.1933594-0.6181641
		c1.7963867-0.3613281,3.4663086-0.8115234,5.0102539-1.3486328c1.7705078-0.6171875,3.4956055-1.3183594,5.175293-2.1054688
		c1.6796875-0.7861328,3.1679688-1.6328125,4.4638672-2.5400391c1.2963867-0.9072266,2.2617188-1.8417969,2.8950195-2.8037109
		c0.6337891-0.9619141,0.7827148-1.9248047,0.4472656-2.8876953c-0.1645508-0.4726563-0.3959961-0.8632813-0.6943359-1.171875
		c-0.2983398-0.3095703-0.5551758-0.5-0.7714844-0.5732422l-12.2172852,4.2568359l0.8095703,2.3232422l-0.4248047,0.1474609
		l-2.8525391-8.1875l0.4248047-0.1474609l0.8588867,2.4648438l13.0244141-4.5380859l0.2368164,0.6796875
		c-0.0283203,0.0097656-0.0517578,0.1132813-0.0703125,0.3105469c-0.0185547,0.1962891,0.0375977,0.484375,0.1689453,0.8623047
		c0.1054688,0.3017578,0.2841797,0.6318359,0.5356445,0.9882813c0.2509766,0.3574219,0.5146484,0.7373047,0.7895508,1.1386719
		C63.8032227,312.5869141,64.0297852,313.0429688,64.2075195,313.5527344z"/>
	<path d="M60.7783203,305.1689453l-0.4384766,0.1015625l-0.6176758-2.6591797l-29.8061523,6.9238281l0.6176758,2.6591797
		l-0.4384766,0.1015625l-2.0229492-8.7080078l0.4384766-0.1015625l0.5429688,2.3378906l14.2236328-3.3046875l-1.9003906-8.1816406
		l-14.2236328,3.3037109l0.5361328,2.3085938l-0.4384766,0.1015625l-2.0224609-8.7080078l0.4379883-0.1015625l0.6381836,2.7470703
		l29.8066406-6.9238281l-0.6381836-2.7470703l0.4384766-0.1015625l2.0224609,8.7080078l-0.4384766,0.1015625l-0.5361328-2.3085938
		l-15.144043,3.5185547l1.9003906,8.1816406l15.1445313-3.5175781L58.3173828,296.5625l0.4379883-0.1015625L60.7783203,305.1689453z
		"/>
	<path d="M55.2851563,278.7880859l-0.4467773,0.0546875l-0.3251953-2.6503906l-30.3720703,3.7275391l0.2666016,2.1728516
		c0.1269531,1.0332031,0.4614258,1.8173828,1.003418,2.3554688s1.2563477,0.8789063,2.1425781,1.0214844
		c0.887207,0.1435547,1.9257813,0.1416016,3.1166992-0.0039063l0.0766602,0.625l-6.2084961,0.7617188l-2.1523438-17.5380859
		l6.2084961-0.7617188l0.0732422,0.5957031c-1.190918,0.1455078-2.1987305,0.4003906-3.0234375,0.7636719
		c-0.8242188,0.3632813-1.4350586,0.8662109-1.8320313,1.5087891c-0.3969727,0.6435547-0.53125,1.4912109-0.4023438,2.5429688
		l0.2670898,2.1738281l30.3720703-3.7265625l-0.3432617-2.7998047l0.4462891-0.0546875L55.2851563,278.7880859z"/>
	<path d="M53.0600586,256.2451172l-0.4501953-0.0097656l0.0610352-2.7294922l-30.5922852-0.6835938l-0.0610352,2.7285156
		l-0.449707-0.0097656l0.199707-8.9375l0.4501953,0.0097656l-0.0537109,2.3994141l14.5986328,0.3266602l0.1879883-8.3979492
		l-14.5991211-0.3266602l-0.0527344,2.3696289l-0.4501953-0.0102539l0.2001953-8.9375l0.449707,0.0097656l-0.0629883,2.8193359
		l30.5922852,0.6845703l0.0629883-2.8193359l0.4501953,0.0097656l-0.2001953,8.9379883l-0.449707-0.0102539l0.0527344-2.3691406
		l-15.543457-0.3476563l-0.1879883,8.3979492l15.5439453,0.3476563l0.0537109-2.3994141l0.449707,0.0097656L53.0600586,256.2451172z
		"/>
	<path d="M53.5883789,234.875l-0.4467773-0.0556641l0.3496094-2.7983398l-30.09375-10.1352539l0.1074219-0.8632813
		l31.6694336-2.4868164l0.3378906-2.7089844l0.4467773,0.0556641l-1.1889648,9.5263672l-0.4467773-0.0561523l0.3310547-2.6494141
		l-23.472168,1.484375l0.0371094-0.2978516l22.3535156,7.4765625l0.3085938-2.4711914l0.4462891,0.0561523L53.5883789,234.875z
		 M46.3461914,229.3154297l-0.46875-0.0585938l0.8544922-6.847168l0.46875,0.0585938L46.3461914,229.3154297z"/>
	<path d="M55.7739258,216.8803711l-0.4394531-0.0976563l0.5830078-2.6362305l-29.8779297-6.6083984l-0.5830078,2.6362305
		l-0.4394531-0.097168l1.4321289-6.4736328l26.2807617-4.6333008l-0.0649414,0.2929688l-23.6386719-5.2290039l-0.6025391,2.7246094
		l-0.4394531-0.0976563l1.309082-5.9169922l0.4394531,0.0976563l-0.5639648,2.5483398l30.3173828,6.7055664l-0.2719727,1.2304688
		l-32.0605469,5.9667969l0.0454102-0.2050781l28.8671875,6.3852539l0.6674805-3.0170898l0.4394531,0.097168L55.7739258,216.8803711z
		"/>
	<path d="M60.3935547,196.394043l-0.4267578-0.1435547l0.8691406-2.5878906l-29.0078125-9.7412109l-0.8691406,2.5878906
		l-0.4267578-0.1430664l2.7602539-8.2192383c0.5981445-1.7817383,1.6811523-3.2275391,3.2480469-4.3364258
		c1.5673828-1.1083984,3.5830078-1.7397461,6.0473633-1.8935547c2.4648438-0.1533203,5.3535156,0.3266602,8.6665039,1.4389648
		c3.3417969,1.1220703,5.9882813,2.5014648,7.9384766,4.1376953c1.9511719,1.6357422,3.246582,3.3842773,3.8876953,5.2451172
		s0.6650391,3.6728516,0.0732422,5.4360352L60.3935547,196.394043z M62.0585938,190.0224609l0.4584961-1.3652344
		c0.3818359-1.137207,0.2211914-2.3779297-0.4829102-3.722168c-0.7036133-1.34375-2.0449219-2.6748047-4.0229492-3.9931641
		c-1.9785156-1.3183594-4.6665039-2.5483398-8.0649414-3.6894531c-3-1.0078125-5.652832-1.6025391-7.956543-1.7861328
		c-2.3041992-0.1826172-4.1665039-0.0327148-5.5864258,0.4501953c-1.4204102,0.4833984-2.2958984,1.2177734-2.6269531,2.203125
		L33.050293,180.28125L62.0585938,190.0224609z"/>
	<path d="M71.9990234,165.9355469l-0.4023438-0.2021484l1.1982422-2.3862305l-27.3457031-13.7319336l-0.9829102,1.9570313
		c-0.4667969,0.9296875-0.6235352,1.7685547-0.4707031,2.5166016c0.1533203,0.7480469,0.559082,1.4277344,1.2172852,2.0380859
		c0.6586914,0.6108398,1.5244141,1.1850586,2.5966797,1.7236328l-0.2827148,0.5629883l-5.5898438-2.8071289l7.9296875-15.7910156
		l5.5898438,2.8071289l-0.2695313,0.5361328c-1.0722656-0.5385742-2.0522461-0.8847656-2.9394531-1.0395508
		c-0.8876953-0.1547852-1.6748047-0.0742188-2.3618164,0.2407227s-1.2685547,0.9462891-1.7441406,1.8935547l-0.9829102,1.9570313
		l27.3457031,13.7319336l1.265625-2.5200195l0.4023438,0.2021484L71.9990234,165.9355469z"/>
	<path d="M83.2202148,146.5014648c-0.940918,1.5117188-2.3320313,2.4477539-4.1733398,2.809082
		c-1.8417969,0.3618164-3.9765625,0.1928711-6.4038086-0.5053711c-2.4277344-0.6982422-4.9980469-1.8916016-7.7104492-3.5795898
		c-2.7250977-1.6962891-4.9433594-3.4833984-6.6547852-5.3613281c-1.7109375-1.8774414-2.8139648-3.7241211-3.3095703-5.5405273
		c-0.4951172-1.8154297-0.2724609-3.4790039,0.668457-4.9907227c0.9404297-1.5107422,2.3398438-2.4536133,4.1987305-2.828125
		c1.8583984-0.3745117,4.0102539-0.2124023,6.4560547,0.4848633c2.4458008,0.6977539,5.03125,1.8945313,7.7563477,3.5908203
		c2.7124023,1.6884766,4.9150391,3.4716797,6.6083984,5.3500977c1.6928711,1.878418,2.7788086,3.7319336,3.2573242,5.5605469
		C84.3916016,143.3208008,84.1606445,144.9907227,83.2202148,146.5014648z M82.8378906,146.2636719
		c0.4541016-0.7294922,0.4916992-1.5488281,0.1113281-2.4570313c-0.3798828-0.9077148-1.0834961-1.8994141-2.1103516-2.9746094
		c-1.0273438-1.074707-2.3105469-2.1855469-3.8491211-3.3320313c-1.5395508-1.1464844-3.2382813-2.2983398-5.0976563-3.4555664
		s-3.6464844-2.1748047-5.3608398-3.0541992c-1.7148438-0.878418-3.2875977-1.5449219-4.7182617-2
		c-1.4306641-0.4541016-2.640625-0.6542969-3.6293945-0.5981445c-0.9887695,0.0556641-1.7109375,0.4492188-2.1650391,1.1787109
		c-0.4438477,0.7133789-0.4726563,1.5258789-0.0859375,2.4379883c0.3862305,0.9116211,1.1049805,1.9013672,2.1552734,2.9667969
		c1.050293,1.0664063,2.3505859,2.1699219,3.9013672,3.3120117c1.5512695,1.1420898,3.2558594,2.2915039,5.1152344,3.4487305
		s3.6401367,2.1772461,5.3432617,3.0605469s3.2583008,1.5571289,4.6655273,2.0205078
		c1.4072266,0.4643555,2.6030273,0.6660156,3.5849609,0.605957
		C81.6811523,147.3637695,82.394043,146.9770508,82.8378906,146.2636719z"/>
	<path d="M93.0805664,130.9682617l-0.3457031-0.2880859l1.7851563-2.144043l-23.5170898-19.5786133l-1.7851563,2.1445313
		l-0.3457031-0.2880859l6.4106445-7.7006836c0.5761719-0.6918945,1.2680664-1.2998047,2.0751953-1.824707
		c0.8076172-0.5244141,1.7211914-0.8828125,2.7402344-1.0756836c1.019043-0.1923828,2.1181641-0.1230469,3.296875,0.2070313
		c1.1787109,0.3310547,2.4023438,1.0244141,3.6704102,2.0795898c1.3027344,1.0849609,2.2602539,2.2138672,2.8735352,3.3881836
		s0.9609375,2.315918,1.0424805,3.4248047c0.0820313,1.109375-0.0366211,2.1425781-0.3554688,3.1000977
		c-0.3193359,0.9575195-0.7470703,1.7587891-1.284668,2.4042969l-2.2075195,2.6513672l9.8046875,8.1625977l1.765625-2.1210938
		l0.3461914,0.2880859L93.0805664,130.9682617z M86.7880859,117.1806641l1.5932617-1.9135742
		c0.5112305-0.6147461,0.730957-1.4467773,0.6582031-2.496582c-0.0727539-1.0493164-0.4799805-2.2016602-1.2211914-3.456543
		c-0.7412109-1.2543945-1.8554688-2.5009766-3.3422852-3.7392578c-1.4179688-1.1801758-2.7348633-1.9838867-3.9511719-2.4106445
		c-1.215332-0.4267578-2.284668-0.5551758-3.206543-0.3857422c-0.9213867,0.1694336-1.6450195,0.5693359-2.1694336,1.1992188
		l-1.7275391,2.0751953L86.7880859,117.1806641z"/>
	<path d="M105.6738281,116.0932617l-0.3188477-0.3178711l1.9277344-1.9326172l-21.6655273-21.609375l-1.9277344,1.9326172
		l-0.3188477-0.3178711l6.5463867-6.5629883l0.3188477,0.3173828l-1.9277344,1.9331055l21.6655273,21.609375l1.4404297-1.4443359
		c1.0449219-1.0478516,1.6723633-2.0112305,1.8813477-2.8901367c0.2094727-0.8789063,0.1049805-1.7241211-0.3134766-2.5371094
		c-0.4179688-0.8125-1.0625-1.6533203-1.9335938-2.5219727l0.4238281-0.4248047l4.4765625,4.4648438L105.6738281,116.0932617z"/>
	<path d="M115.9389648,105.6743164l-0.2900391-0.3442383l2.15625-1.8173828l-15.2167969-27.871582l0.6655273-0.5605469
		l24.9418945,19.6728516l2.0869141-1.7597656l0.2900391,0.3442383l-7.3398438,6.1875l-0.2900391-0.34375l2.0415039-1.7211914
		l-18.2421875-14.8442383l0.2290039-0.1933594l11.3383789,20.6645508l1.9038086-1.6049805l0.2900391,0.3442383
		L115.9389648,105.6743164z M114.3955078,96.675293l-0.3046875-0.3608398l5.2758789-4.4472656l0.3046875,0.3608398
		L114.3955078,96.675293z"/>
	<path d="M137.8510742,88.8637695c-1.6503906,1.1650391-3.4165039,1.6542969-5.2978516,1.4677734
		c-1.8823242-0.1860352-3.8198242-1.0493164-5.8125-2.5893555c-1.9931641-1.5400391-3.9926758-3.7314453-6-6.574707
		c-2.0415039-2.8920898-3.3603516-5.6010742-3.9560547-8.1274414c-0.5961914-2.5258789-0.6342773-4.7299805-0.1142578-6.6118164
		s1.4418945-3.2900391,2.7651367-4.2241211c0.996582-0.7036133,1.9897461-1.0649414,2.9799805-1.0844727
		c0.9897461-0.0195313,1.9135742,0.2050781,2.7709961,0.6738281c0.8574219,0.4692383,1.5712891,1.1079102,2.1425781,1.9165039
		c0.4150391,0.5883789,0.6010742,1.1040039,0.559082,1.546875s-0.2836914,0.8203125-0.7250977,1.1313477
		c-0.4741211,0.3349609-0.9082031,0.4301758-1.3032227,0.2866211c-0.3950195-0.1430664-0.7612305-0.4541016-1.0986328-0.9321289
		c-0.2246094-0.3183594-0.3564453-0.6430664-0.394043-0.9746094c-0.0380859-0.3310547-0.0805664-0.6772461-0.1279297-1.0390625
		c-0.0473633-0.3613281-0.2089844-0.7382813-0.4858398-1.1303711c-0.3286133-0.4658203-0.8574219-0.7207031-1.5874023-0.7661133
		c-0.7294922-0.0449219-1.4213867,0.1630859-2.074707,0.6245117c-0.8496094,0.6000977-1.3012695,1.5292969-1.3549805,2.7880859
		c-0.0537109,1.2592773,0.1733398,2.6826172,0.6821289,4.2695313c0.5083008,1.5874023,1.184082,3.1948242,2.0263672,4.8212891
		c0.8422852,1.6274414,1.7353516,3.1083984,2.6782227,4.4438477c1.081543,1.5322266,2.2314453,2.9970703,3.4506836,4.3945313
		s2.4433594,2.5947266,3.6728516,3.590332s2.394043,1.6660156,3.4936523,2.0092773
		c1.0991211,0.34375,2.065918,0.2216797,2.8989258-0.3666992c0.4082031-0.2880859,0.7202148-0.6186523,0.9350586-0.9902344
		c0.2148438-0.3720703,0.3271484-0.671875,0.3378906-0.8999023l-7.4609375-10.5693359l-2.0097656,1.4189453l-0.2592773-0.3676758
		l7.0825195-5l0.2597656,0.3676758l-2.1323242,1.5048828l7.9541016,11.2680664l-0.5878906,0.4150391
		c-0.0175781-0.0244141-0.1235352-0.0185547-0.3178711,0.0180664c-0.1948242,0.0366211-0.4555664,0.1699219-0.7822266,0.4003906
		c-0.2617188,0.1845703-0.5288086,0.4472656-0.8032227,0.7871094c-0.2739258,0.340332-0.5664063,0.6982422-0.8764648,1.0732422
		C138.6679688,88.2084961,138.2924805,88.5522461,137.8510742,88.8637695z"/>
	<path d="M153.4418945,79.1503906c-0.6611328,0.375-1.3881836,0.684082-2.1811523,0.9272461
		c-0.793457,0.2431641-1.6206055,0.315918-2.480957,0.2177734c-0.8608398-0.0976563-1.7104492-0.4609375-2.5493164-1.0883789
		S144.590332,77.59375,143.828125,76.25l-12.0048828-21.1538086l-2.4526367,1.3916016l-0.2216797-0.3911133l8.1401367-4.6196289
		l0.222168,0.3911133l-2.3481445,1.3330078l12.015625,21.1728516c1.1030273,1.9443359,2.2050781,3.2075195,3.3061523,3.7895508
		c1.1005859,0.5830078,2.2426758,0.5385742,3.425293-0.1328125c0.4697266-0.2666016,0.9199219-0.6079102,1.3500977-1.0249023
		c0.4306641-0.4165039,0.7641602-0.9121094,1.0019531-1.4868164c0.2373047-0.574707,0.3198242-1.2294922,0.2475586-1.9648438
		c-0.0722656-0.7348633-0.3710938-1.5654297-0.8964844-2.4916992l-12.6489258-22.2885742l-2.2177734,1.2583008l-0.222168-0.3911133
		l5.2446289-2.9760742l0.222168,0.3911133l-2.4267578,1.3769531l12.5708008,22.1518555
		c0.8217773,1.4477539,1.1708984,2.7114258,1.0473633,3.7905273s-0.5341797,2.0068359-1.2324219,2.7822266
		S154.4160156,78.5976563,153.4418945,79.1503906z"/>
	<path d="M162.3388672,73.6191406l-0.1835938-0.4106445l2.4643555-1.1030273l-12.5-27.9306641l-2.4643555,1.1030273
		l-0.1835938-0.4106445l14.5947266-6.5317383l2.5551758,5.7094727l-0.5473633,0.2451172
		c-0.496582-1.109375-1.0551758-2.0014648-1.6748047-2.6772461c-0.6201172-0.675293-1.3706055-1.0668945-2.2509766-1.1743164
		c-0.8808594-0.1064453-1.9692383,0.1293945-3.2651367,0.7094727L155.625,42.6064453l6.1484375,13.7392578l6.1064453-2.7329102
		l-1.1030273-2.4643555l0.5478516-0.2451172l2.3710938,5.2988281l-0.5473633,0.2451172l-1.0844727-2.4233398l-6.1064453,2.7324219
		l6.1669922,13.7807617l3.0942383-1.3847656c1.2958984-0.5800781,2.2080078-1.2470703,2.7363281-2.0014648
		c0.527832-0.7539063,0.7587891-1.5966797,0.6923828-2.5283203s-0.3476563-1.9521484-0.84375-3.0610352l0.5473633-0.2451172
		l2.5830078,5.7709961L162.3388672,73.6191406z"/>
	<path d="M195.0053711,61.597168c-0.7299805,0.2133789-1.5083008,0.347168-2.3364258,0.4013672
		c-0.8276367,0.0541992-1.6494141-0.0649414-2.4643555-0.3583984c-0.8149414-0.2924805-1.5585938-0.8413086-2.230957-1.6450195
		s-1.2250977-1.9467773-1.6586914-3.4301758L179.4931641,33.21875l-2.7070313,0.7910156l-0.1259766-0.4316406l8.9838867-2.6254883
		l0.1264648,0.4321289l-2.5917969,0.7573242l6.8286133,23.3676758c0.6269531,2.1455078,1.4086914,3.6279297,2.3466797,4.4477539
		c0.9375,0.8198242,2.0585938,1.0390625,3.3642578,0.6577148c0.5185547-0.1513672,1.034668-0.3803711,1.5498047-0.6870117
		c0.5146484-0.3066406,0.953125-0.7124023,1.3164063-1.2172852c0.362793-0.5043945,0.59375-1.1225586,0.6923828-1.8549805
		c0.0986328-0.7319336-0.0014648-1.6088867-0.2998047-2.6313477l-7.1884766-24.5986328l-2.4472656,0.715332l-0.1264648-0.4321289
		l5.7880859-1.6914063l0.1259766,0.4321289l-2.6777344,0.7827148l7.144043,24.4472656
		c0.4667969,1.5981445,0.5161133,2.9082031,0.1479492,3.9301758c-0.3686523,1.0219727-0.980957,1.8300781-1.8388672,2.4243164
		S196.0800781,61.2832031,195.0053711,61.597168z"/>
	<path d="M212.2954102,57.4750977c-0.706543,0.1376953-1.3681641,0.1943359-1.984375,0.1689453
		s-1.1772461-0.0800781-1.6826172-0.1650391c-0.5053711-0.0844727-0.9438477-0.1630859-1.3144531-0.2363281
		c-0.3710938-0.0727539-0.6645508-0.0883789-0.8803711-0.0463867c-0.3530273,0.0688477-0.4794922,0.3608398-0.3793945,0.8759766
		l-0.5297852,0.1035156l-1.2695313-6.5151367l0.6181641-0.1201172c0.1225586,0.5258789,0.3510742,1.0698242,0.6850586,1.6313477
		c0.3334961,0.5620117,0.7382813,1.0981445,1.2148438,1.6083984c0.4765625,0.5112305,1.0053711,0.9506836,1.5864258,1.3188477
		s1.1889648,0.6391602,1.8242188,0.8134766c0.6347656,0.1743164,1.2958984,0.1943359,1.9833984,0.0605469
		c1.2368164-0.2412109,2.125-0.6738281,2.6655273-1.2988281c0.5405273-0.6245117,0.8525391-1.3500977,0.9360352-2.1767578
		c0.0834961-0.8261719,0.0410156-1.6733398-0.128418-2.5424805c-0.2094727-1.0742188-0.7128906-2.1147461-1.5097656-3.1210938
		c-0.7973633-1.0058594-1.7568359-1.9804688-2.8774414-2.9238281c-1.1210938-0.9428711-2.2617188-1.8286133-3.4213867-2.6572266
		c-1.7314453-1.2519531-3.1064453-2.3745117-4.1254883-3.3681641c-1.0185547-0.9931641-1.7729492-1.9350586-2.262207-2.8256836
		c-0.4892578-0.8901367-0.8242188-1.7993164-1.0048828-2.7270508c-0.2753906-1.4130859-0.1938477-2.6669922,0.2451172-3.7612305
		c0.4384766-1.09375,1.105957-1.9838867,2.0009766-2.6704102s1.9321289-1.1445313,3.1098633-1.3740234
		c0.8833008-0.1723633,1.6660156-0.2329102,2.3481445-0.1826172c0.6826172,0.050293,1.2636719,0.1318359,1.7441406,0.2446289
		s0.8286133,0.1479492,1.0444336,0.105957c0.1767578-0.0341797,0.3051758-0.1054688,0.3867188-0.2128906
		c0.0805664-0.1074219,0.097168-0.2861328,0.0483398-0.5366211l0.5297852-0.1030273l1.2607422,6.4707031l-0.5888672,0.1147461
		c-0.190918-0.6655273-0.4716797-1.3481445-0.8422852-2.0478516c-0.3706055-0.6992188-0.8364258-1.3383789-1.3974609-1.9169922
		s-1.2050781-1.0102539-1.9335938-1.2963867c-0.7280273-0.2861328-1.5336914-0.3432617-2.4169922-0.1708984
		c-1.0600586,0.206543-1.9326172,0.7241211-2.6166992,1.5527344s-0.878418,2.0014648-0.5825195,3.5175781
		c0.1689453,0.8691406,0.5004883,1.7060547,0.9936523,2.5112305c0.4931641,0.8056641,1.2211914,1.6416016,2.1850586,2.5083008
		c0.9633789,0.8666992,2.2133789,1.8461914,3.7504883,2.9370117c1.359375,0.9121094,2.6245117,1.8613281,3.7949219,2.8481445
		s2.1552734,2.0405273,2.9541016,3.1606445c0.7993164,1.1206055,1.3276367,2.3432617,1.5859375,3.668457
		c0.2124023,1.0893555,0.234375,2.1201172,0.0678711,3.0927734c-0.1674805,0.972168-0.5068359,1.8447266-1.0185547,2.6166992
		c-0.5117188,0.7724609-1.1743164,1.4248047-1.9873047,1.9575195S213.3554688,57.2685547,212.2954102,57.4750977z"/>
	<path d="M225.144043,48.5366211c-0.2148438-1.9077148-0.2202148-3.6054688-0.0151367-5.0927734
		c0.2045898-1.4868164,0.5102539-2.8422852,0.9160156-4.0654297c0.4052734-1.2231445,0.8242188-2.3720703,1.2568359-3.4472656
		c0.4321289-1.0751953,0.7788086-2.1518555,1.0400391-3.2304688c0.2607422-1.0786133,0.3227539-2.2290039,0.1850586-3.4511719
		c-0.2099609-1.8632813-0.7421875-3.3730469-1.597168-4.5297852c-0.8544922-1.1567383-2.1166992-1.6411133-3.7861328-1.453125
		c-1.1923828,0.1342773-2.1416016,0.5131836-2.8457031,1.1357422c-0.7050781,0.6230469-1.0263672,1.2104492-0.9643555,1.7617188
		c0.0473633,0.4174805,0.1694336,0.7885742,0.3671875,1.1132813c0.1972656,0.3251953,0.3984375,0.6342773,0.6025391,0.9282227
		s0.3266602,0.6201172,0.3666992,0.9775391c0.0708008,0.6264648-0.0112305,1.1074219-0.2451172,1.4428711
		c-0.2338867,0.3359375-0.5996094,0.5317383-1.0961914,0.5878906c-0.4765625,0.0537109-0.902832-0.0644531-1.2773438-0.3544922
		c-0.375-0.2895508-0.605957-0.8222656-0.6933594-1.5976563c-0.1123047-0.9980469,0.0610352-1.9614258,0.5200195-2.8886719
		c0.4589844-0.9267578,1.1796875-1.7211914,2.1621094-2.3833008c0.9819336-0.6611328,2.1982422-1.0737305,3.6494141-1.2373047
		c0.9536133-0.1074219,1.8969727-0.0849609,2.8300781,0.0664063c0.9326172,0.1518555,1.7768555,0.456543,2.5332031,0.9145508
		c0.7558594,0.4584961,1.387207,1.1044922,1.8935547,1.9375c0.5063477,0.8339844,0.8310547,1.8842773,0.9741211,3.1508789
		c0.1425781,1.2670898-0.0097656,2.4619141-0.4570313,3.5839844s-1.0209961,2.2397461-1.7207031,3.3520508
		c-0.7001953,1.1132813-1.402832,2.2866211-2.1088867,3.5209961c-0.706543,1.2338867-1.2578125,2.5981445-1.652832,4.0917969
		c-0.3955078,1.4936523-0.4853516,3.1943359-0.2705078,5.1020508L225.144043,48.5366211z M226.1875,55.1210938
		c-0.7949219,0.0898438-1.4956055-0.0541992-2.1015625-0.4311523s-0.9414063-0.8564453-1.0068359-1.4375
		c-0.0688477-0.6108398,0.1513672-1.1567383,0.6606445-1.6367188s1.1616211-0.7646484,1.956543-0.8544922
		c0.7753906-0.0874023,1.4697266,0.0463867,2.0830078,0.3994141c0.6132813,0.3535156,0.9545898,0.8359375,1.0234375,1.4472656
		c0.0654297,0.5810547-0.1601563,1.1240234-0.6772461,1.6269531C227.6083984,54.7382813,226.9628906,55.0341797,226.1875,55.1210938
		z"/>
</g>
</svg>
