<?xml version="1.0" encoding="utf-8"?>
<!-- Generator: Adobe Illustrator 24.0.1, SVG Export Plug-In . SVG Version: 6.00 Build 0)  -->
<svg version="1.1" id="图层_1" xmlns="http://www.w3.org/2000/svg" xmlns:xlink="http://www.w3.org/1999/xlink" x="0px" y="0px"
	 viewBox="0 0 750 155" style="enable-background:new 0 0 750 155;" xml:space="preserve">
<style type="text/css">
	.st0{fill:#F7931E;}
	.st1{fill:#0071BC;}
</style>
<g>
	<circle class="st0" cx="215" cy="45" r="10"/>
</g>
<g>
	<path class="st1" d="M195,45c0-2.5507088,0.4826202-4.9873009,1.3530884-7.2304459C166.7461548,38.6441536,145,41.5497665,145,45
		s21.74617,6.3558464,51.3531036,7.2304459C195.4826355,49.9873009,195,47.5507088,195,45z"/>
</g>
<g>
	<g>
		<path d="M196.2053833,32.7716751l3.0444946-0.0899582C202.9108276,28.0074902,208.602417,25,215,25
			c6.3975677,0,12.0891724,3.0074902,15.7501221,7.6817169l3.0444946,0.0899582
			c2.9822235,0.0880928,5.904953,0.198246,8.750412,0.3282509C237.9384308,22.4516296,227.3401947,15,215,15
			s-22.9384155,7.4516468-27.5450287,18.0999413C190.3004456,32.9699364,193.2231598,32.8597679,196.2053833,32.7716751z"/>
	</g>
	<g>
		<path d="M233.7946167,57.2283249l-3.0445099,0.0899582C227.0891266,61.9925079,221.3975677,65,215,65
			c-6.397583,0-12.0891418-3.0074921-15.7501068-7.6817169l-3.0445099-0.0899582
			c-2.9822083-0.0880928-5.9049225-0.1982613-8.7503967-0.3282661C192.0615845,67.5483398,202.6598053,75,215,75
			s22.9384155-7.4516449,27.5450134-18.099926C239.6995544,57.0300789,236.7768402,57.1402321,233.7946167,57.2283249z"/>
	</g>
</g>
<g>
	<path class="st1" d="M233.6469116,37.7695541C234.5173798,40.0126991,235,42.4492912,235,45
		s-0.4826355,4.9873009-1.3531036,7.2304459C263.2538452,51.3558464,285,48.4502335,285,45
		S263.2538452,38.6441536,233.6469116,37.7695541z"/>
</g>
<g>
	<path d="M15,139V81h25.199707c3.6801758,0,6.9326172,0.74543,9.7602539,2.2373047
		c2.8261719,1.49086,5.0400391,3.562294,6.6401367,6.2142868C58.199707,92.1025772,59,95.168251,59,98.648613
		c0,3.7574997-1,7.0295029-3,9.8180466c-2,2.7905579-4.6801758,4.8205185-8.0400391,6.090889L59.7998047,139h-11.199707
		l-10.7202148-22.9515915H25.0800781V139H15z M25.0800781,107.6797562h14.159668c2.9326172,0,5.2666016-0.814209,7-2.443634
		c1.7324219-1.6294327,2.6000977-3.7979584,2.6000977-6.50457c0-2.7056046-0.8676758-4.8741302-2.6000977-6.50457
		c-1.7333984-1.628418-4.0673828-2.4436417-7-2.4436417h-14.159668V107.6797562z"/>
	<path d="M69.0795898,139V81h40.3198242v8.8652725H79.159668v15.577179h21.199707v8.6174698H79.159668v16.0748138h30.5595703V139
		H69.0795898z"/>
	<path d="M115.559082,139l22-58h11.6801758l21.6796875,58h-10.8798828l-5.6000977-15.9918747h-22.7197266L126.1191406,139
		H115.559082z M134.5991211,114.8882904h17.0400391l-8.5600586-23.9458389L134.5991211,114.8882904z"/>
	<path d="M177.9589844,139V81h10.0800781v49.0517883h29.5996094V139H177.9589844z"/>
	<path d="M227.7983398,139V81h10v58H227.7983398z"/>
	<path d="M264.6777344,139V89.948204h-18.7202148V81h47.4399414v8.948204h-18.7197266V139H264.6777344z"/>
	<path d="M318.7563477,139v-22.7857132L296.5161133,81h11.6801758l15.9199219,26.1831436L340.1958008,81h10.9609375
		l-22.3203125,35.2142868V139H318.7563477z"/>
</g>
<path d="M100,15c-16.5685425,0-30,13.4314575-30,30s13.4314575,30,30,30s30-13.4314575,30-30S116.5685425,15,100,15z M100,65
	c-11.0457153,0-20-8.9543457-20-20c0-11.0457153,8.9542847-20,20-20s20,8.9542847,20,20C120,56.0456543,111.0457153,65,100,65z"/>
<rect x="55" y="16" width="10" height="58"/>
<rect x="15" y="16" width="10" height="58"/>
<rect x="20" y="40" width="40" height="10"/>
<g>
	<path d="M145,64V52.8560181c-3.8256836-0.6567383-7.1838989-1.368042-10-2.1248169V74h45V64H145z"/>
	<path d="M145,16h-10v23.2687988c2.8161011-0.7567749,6.1743164-1.4680786,10-2.1248169V16z"/>
</g>
<g>
	<path d="M300,40.8839722V16h-10v22.0892944C294.1271973,38.9515991,297.5028687,39.8890991,300,40.8839722z"/>
	<path d="M260,34.1727295V30l2.8052368,4.4082642c4.1315308,0.3604736,8.0368042,0.7661743,11.680542,1.2122803L262,16h-12
		v17.4804688C253.4487305,33.6828613,256.7866211,33.9144897,260,34.1727295z"/>
	<path d="M290,51.9107056V60l-4.5910645-7.2144775c-3.0342407,0.5286255-6.3673096,1.0227051-9.9695435,1.4764404L288,74h12
		V49.1160278C297.5028687,50.1109009,294.1271973,51.0484009,290,51.9107056z"/>
	<path d="M250,56.5195313V74h10V55.8272705C256.7866211,56.0855103,253.4487305,56.3171387,250,56.5195313z"/>
</g>
<g>
	<path d="M504.1916199,131.0188904c1.0756226,0,5.592926,0,6.9554138,0c2.2231445,0,2.6530151-1.1402283,2.9399414-8.6248932
		c1.7922974,1.3543472,5.4499512,2.7086945,7.81604,3.2790451c-0.9316406,10.406517-3.2268066,13.1867294-9.9672546,13.1867294
		c-1.721344,0-7.3862305,0-9.0346375,0c-8.3188782,0-10.3261414-2.5661011-10.3261414-10.3354492v-13.7570877h-9.7523804
		c-0.8606567,13.7570877-4.2304077,21.4549026-23.3052673,25.0901718c-0.6447754-2.1383362-2.8679504-5.5594788-4.517334-7.2705383
		c16.2059631-2.5661011,18.4291077-7.4841766,19.0738831-17.8196335h-17.7833557v-8.0545349h64.25v8.0545349h-19.217804v13.6855545
		C501.3227234,130.7337036,501.6815796,131.0188904,504.1916199,131.0188904z M494.1523743,80.1971207h24.9537048v17.7485886
		h-9.0346375v-9.5514679h-43.8846436v9.5514679h-8.6057434V80.1971207h26.3891296
		c-0.7177124-1.9246979-1.5783997-3.8489075-2.4380798-5.559967l8.8916626-2.5661011
		C491.7862549,74.5661011,493.2197571,77.6310196,494.1523743,80.1971207z M506.7726746,101.4383926h-37.2880859V93.597496
		h37.2880859V101.4383926z"/>
	<path d="M564.993103,77.7020721c8.5338135,9.0526505,18.5720825,15.3966064,29.9738159,20.3857422
		c-2.0792236,1.9246979-4.5892944,4.847023-5.7368164,7.3420715c-2.3661499-1.2117538-4.6602783-2.4950485-6.8834839-3.8493881
		v4.6333847h-17.7123413v8.2681732h17.0665894v7.4131317h-17.0665894v8.6248779h26.3890991v7.62677h-61.3101196v-7.62677h25.8863525
		v-8.6248779H539.178772v-7.4131317h16.4208374v-8.2681732h-17.4254761v-4.8470306
		c-2.2941284,1.3543472-4.5892944,2.5661011-6.8834229,3.7063293c-1.2195435-2.2093964-3.7286377-5.1317215-5.8798218-7.1274719
		c12.9071655-5.3463287,26.0292969-14.5410843,33.2006226-25.7320709l7.6721191,3.5642166L564.993103,77.7020721z
		 M577.6134033,98.658165c-6.2386475-4.1340866-12.0465088-8.9095764-17.5684204-14.8257751
		c-5.0911255,5.6310196-11.1138916,10.620636-17.49646,14.8257751H577.6134033z"/>
	<path d="M607.7243652,122.2514114v-16.8930588h-7.6721802v-7.8404083h7.6721802V84.9015579h-8.7477417v-7.9119415h25.2406006
		v7.9119415h-8.1740112v12.6163864h6.7404785v7.8404083h-6.7404785v14.7547226l8.1029663-2.1383362l1.0756226,7.6983032
		c-8.8916626,2.4945602-18.5010986,5.0606613-25.958313,7.0564194l-1.649353-8.1255875
		C600.4820557,124.0335236,603.9247437,123.1784744,607.7243652,122.2514114z M646.0170288,113.8406525h4.6602783v15.8954315
		c0,1.9242096,0.5737915,2.4945526,2.0082397,2.4945526h3.6566772c1.9362793,0,2.3670654-2.067276,2.6539917-11.4046173
		c1.9353027,1.4969254,4.6602783,2.6371536,6.6685181,3.1364517c-0.7887573,11.1904984-2.0082397,14.4695511-9.3225098,14.4695511
		h-5.2340698c-6.0237427,0-8.3179321-1.7105865-8.3179321-7.8408966v-8.2681808
		c-3.442688,6.7001877-8.963623,12.9726181-17.9273071,17.6770554c-1.0036011-1.6395264-3.8005371-4.8470306-5.3779907-6.0587769
		c18.3571777-9.5514755,20.3644409-23.7358398,20.3644409-34.7837601V87.8949432h7.960022V99.371109
		C647.8093872,103.7903671,647.3795166,108.7799835,646.0170288,113.8406525z M661.505249,114.0547714h-8.4608154V83.4756775
		h-18.3571777v30.5790939h-8.1029663V76.0630341h34.9209595V114.0547714z"/>
	<path d="M734.9280396,121.0396576h-28.6113281c-4.3743896,8.6248779-12.5493164,14.8262482-28.3964233,18.6751709
		c-0.8606567-2.2093964-3.0118408-5.4884338-4.8041992-7.3415985c11.6166992-2.5661011,18.5001221-6.2724228,22.6595459-11.3335724
		h-23.2333374v-7.1274719h27.105896c2.1511841-6.2729034,2.3661499-13.970726,2.6530151-23.3085556h9.1066284
		c-0.2869263,8.9100647-0.7167358,16.6794205-2.5100708,23.3085556h26.0302734V121.0396576z M734.1393433,95.9494781h-8.9636841
		v-8.4107666h-43.4547729v8.4107666h-8.5328369V79.5557175h26.3881836
		c-0.7886963-1.7110596-1.6494141-3.4216309-2.5100708-4.9185638L705.7429199,72
		c1.4344482,2.2809219,3.0119019,5.1322021,4.0874634,7.5557175h24.30896V95.9494781z M692.8357544,106.5701141
		l-5.1630859,6.4150085c-2.1511841-2.423027-6.8843994-5.6310196-10.6849976-7.6978226l4.8761597-5.7025528
		C685.6644287,101.2957993,690.4696045,104.2891846,692.8357544,106.5701141z M700.0061035,96.377243l-5.3779907,6.1303177
		c-2.0073242-2.3524628-6.5965576-5.7736053-10.3261719-7.9119492l5.0201416-5.559967
		C693.0506592,90.8888092,697.7119141,93.9537277,700.0061035,96.377243z M735,132.7294617l-5.2350464,6.7717285
		c-5.5219116-3.7068176-14.9154053-8.0545349-24.0939941-10.7632294l4.0155029-6.2724228
		C719.0089722,125.0316391,729.1911621,129.2367706,735,132.7294617z"/>
</g>
</svg>
