<?xml version="1.0" encoding="utf-8"?>
<!-- Generator: Adobe Illustrator 24.0.1, SVG Export Plug-In . SVG Version: 6.00 Build 0)  -->
<!DOCTYPE svg PUBLIC "-//W3C//DTD SVG 1.1//EN" "http://www.w3.org/Graphics/SVG/1.1/DTD/svg11.dtd" [
	<!ENTITY ns_extend "http://ns.adobe.com/Extensibility/1.0/">
	<!ENTITY ns_ai "http://ns.adobe.com/AdobeIllustrator/10.0/">
	<!ENTITY ns_graphs "http://ns.adobe.com/Graphs/1.0/">
	<!ENTITY ns_vars "http://ns.adobe.com/Variables/1.0/">
	<!ENTITY ns_imrep "http://ns.adobe.com/ImageReplacement/1.0/">
	<!ENTITY ns_sfw "http://ns.adobe.com/SaveForWeb/1.0/">
	<!ENTITY ns_custom "http://ns.adobe.com/GenericCustomNamespace/1.0/">
	<!ENTITY ns_adobe_xpath "http://ns.adobe.com/XPath/1.0/">
]>
<svg version="1.1" xmlns:x="&ns_extend;" xmlns:i="&ns_ai;" xmlns:graph="&ns_graphs;"
	 xmlns="http://www.w3.org/2000/svg" xmlns:xlink="http://www.w3.org/1999/xlink" x="0px" y="0px" viewBox="0 0 500 500"
	 style="enable-background:new 0 0 500 500;" xml:space="preserve">
<style type="text/css">
	.投影{fill:none;}
	.圆角_x0020_2_x0020_pt{fill:#FFFFFF;stroke:#231815;stroke-miterlimit:10;}
	.实时对称_x0020_X{fill:none;}
	.柔化斜面{fill:url(#SVGID_1_);}
	.黄昏{fill:#FFFFFF;}
	.植物_GS{fill:#FFE100;}
	.高卷式发型_GS{fill-rule:evenodd;clip-rule:evenodd;fill:#4CACE2;}
	.st0{display:none;}
	.st1{display:inline;opacity:0.5;}
	.st2{fill:#FFFFFF;stroke:#231815;stroke-miterlimit:10;}
</style>
<metadata>
	<sfw  xmlns="&ns_sfw;">
		<slices></slices>
		<sliceSourceBounds  bottomLeftOrigin="true" height="683.8787231" width="683.5126953" x="-91.7563477" y="-591.9393921">
			</sliceSourceBounds>
		<optimizationSettings>
			<targetSettings  fileFormat="PNG24Format" targetSettingsID="0">
				<PNG24Format  filtered="false" interlaced="false" matteColor="#FFFFFF" noMatteColor="true" transparency="true">
					</PNG24Format>
			</targetSettings>
		</optimizationSettings>
	</sfw>
</metadata>
<linearGradient id="SVGID_1_" gradientUnits="userSpaceOnUse" x1="0" y1="0" x2="0.7071043" y2="0.7071093">
	<stop  offset="0" style="stop-color:#E6E7EA"/>
	<stop  offset="0.1746906" style="stop-color:#E2E3E6"/>
	<stop  offset="0.3537763" style="stop-color:#D6D7DA"/>
	<stop  offset="0.5349318" style="stop-color:#C1C4C5"/>
	<stop  offset="0.7174437" style="stop-color:#A4A8A8"/>
	<stop  offset="0.8993385" style="stop-color:#808584"/>
	<stop  offset="1" style="stop-color:#686E6C"/>
</linearGradient>
<g id="图层_3" class="st0">
	<g class="st1">
		<g>
			<line class="st2" x1="0" y1="0" x2="0" y2="500"/>
			<line class="st2" x1="25" y1="0" x2="25" y2="500"/>
			<line class="st2" x1="50" y1="0" x2="50" y2="500"/>
			<line class="st2" x1="75" y1="0" x2="75" y2="500"/>
			<line class="st2" x1="100" y1="0" x2="100" y2="500"/>
			<line class="st2" x1="125" y1="0" x2="125" y2="500"/>
			<line class="st2" x1="150" y1="0" x2="150" y2="500"/>
			<line class="st2" x1="175" y1="0" x2="175" y2="500"/>
			<line class="st2" x1="200" y1="0" x2="200" y2="500"/>
			<line class="st2" x1="225" y1="0" x2="225" y2="500"/>
			<line class="st2" x1="250" y1="0" x2="250" y2="500"/>
			<line class="st2" x1="275" y1="0" x2="275" y2="500"/>
			<line class="st2" x1="300" y1="0" x2="300" y2="500"/>
			<line class="st2" x1="325" y1="0" x2="325" y2="500"/>
			<line class="st2" x1="350" y1="0" x2="350" y2="500"/>
			<line class="st2" x1="375" y1="0" x2="375" y2="500"/>
			<line class="st2" x1="400" y1="0" x2="400" y2="500"/>
			<line class="st2" x1="425" y1="0" x2="425" y2="500"/>
			<line class="st2" x1="450" y1="0" x2="450" y2="500"/>
			<line class="st2" x1="475" y1="0" x2="475" y2="500"/>
			<line class="st2" x1="500" y1="0" x2="500" y2="500"/>
		</g>
		<g>
			<line class="st2" x1="158.4936523" y1="591.5063477" x2="591.5063477" y2="341.5063477"/>
			<line class="st2" x1="145.9936523" y1="569.8557129" x2="579.0063477" y2="319.8557129"/>
			<line class="st2" x1="133.4936523" y1="548.2050781" x2="566.5063477" y2="298.2050781"/>
			<line class="st2" x1="120.9936523" y1="526.5544434" x2="554.0063477" y2="276.5544434"/>
			<line class="st2" x1="108.4936523" y1="504.9038086" x2="541.5063477" y2="254.9038086"/>
			<line class="st2" x1="95.9936523" y1="483.2531738" x2="529.0063477" y2="233.2531738"/>
			<line class="st2" x1="83.4936523" y1="461.6025391" x2="516.5063477" y2="211.6025391"/>
			<line class="st2" x1="70.9936523" y1="439.9519043" x2="504.0063477" y2="189.9519043"/>
			<line class="st2" x1="58.4936485" y1="418.3012695" x2="491.5063477" y2="168.3012695"/>
			<line class="st2" x1="45.9936485" y1="396.6506348" x2="479.0063477" y2="146.6506348"/>
			<line class="st2" x1="33.4936485" y1="375" x2="466.5063477" y2="125"/>
			<line class="st2" x1="20.9936485" y1="353.3493652" x2="454.0063477" y2="103.3493652"/>
			<line class="st2" x1="8.4936495" y1="331.6987305" x2="441.5063477" y2="81.6987305"/>
			<line class="st2" x1="-4.006351" y1="310.0480957" x2="429.0063477" y2="60.0480957"/>
			<line class="st2" x1="-16.5063515" y1="288.3974609" x2="416.5063477" y2="38.3974609"/>
			<line class="st2" x1="-29.0063515" y1="266.7468262" x2="404.0063477" y2="16.7468243"/>
			<line class="st2" x1="-41.5063515" y1="245.0961914" x2="391.5063477" y2="-4.9038105"/>
			<line class="st2" x1="-54.0063515" y1="223.4455566" x2="379.0063477" y2="-26.5544453"/>
			<line class="st2" x1="-66.5063477" y1="201.7949219" x2="366.5063477" y2="-48.2050819"/>
			<line class="st2" x1="-79.0063477" y1="180.1442871" x2="354.0063477" y2="-69.8557129"/>
			<line class="st2" x1="-91.5063477" y1="158.4936523" x2="341.5063477" y2="-91.5063477"/>
		</g>
		<g>
			<line class="st2" x1="591.5063477" y1="158.4936066" x2="158.4936066" y2="-91.50634"/>
			<line class="st2" x1="579.0063477" y1="180.1442566" x2="145.9936218" y2="-69.8557053"/>
			<line class="st2" x1="566.5063477" y1="201.7948914" x2="133.4936218" y2="-48.2050705"/>
			<line class="st2" x1="554.0063477" y1="223.4455261" x2="120.9936218" y2="-26.5544319"/>
			<line class="st2" x1="541.5063477" y1="245.0961609" x2="108.4936218" y2="-4.9037962"/>
			<line class="st2" x1="529.0063477" y1="266.7467957" x2="95.9936218" y2="16.7468395"/>
			<line class="st2" x1="516.5063477" y1="288.3974304" x2="83.4936295" y2="38.3974762"/>
			<line class="st2" x1="504.0063477" y1="310.0480652" x2="70.9936295" y2="60.0481148"/>
			<line class="st2" x1="491.5063477" y1="331.6987" x2="58.4936333" y2="81.6987457"/>
			<line class="st2" x1="479.0063477" y1="353.3493347" x2="45.9936333" y2="103.3493881"/>
			<line class="st2" x1="466.5063782" y1="374.9999695" x2="33.4936371" y2="125.0000229"/>
			<line class="st2" x1="454.0063782" y1="396.6506042" x2="20.993639" y2="146.6506653"/>
			<line class="st2" x1="441.5063782" y1="418.301239" x2="8.4936409" y2="168.3013"/>
			<line class="st2" x1="429.0063782" y1="439.9518738" x2="-4.0063572" y2="189.9519348"/>
			<line class="st2" x1="416.5063782" y1="461.6025085" x2="-16.5063553" y2="211.6025696"/>
			<line class="st2" x1="404.0063782" y1="483.2531738" x2="-29.0063534" y2="233.2532043"/>
			<line class="st2" x1="391.5063782" y1="504.9038086" x2="-41.5063515" y2="254.9038391"/>
			<line class="st2" x1="379.0063782" y1="526.5544434" x2="-54.0063477" y2="276.5544739"/>
			<line class="st2" x1="366.5063782" y1="548.2050781" x2="-66.5063477" y2="298.2051086"/>
			<line class="st2" x1="354.0063782" y1="569.8557129" x2="-79.00634" y2="319.8557434"/>
			<line class="st2" x1="341.5063782" y1="591.5063477" x2="-91.50634" y2="341.5063782"/>
		</g>
	</g>
</g>
<g id="图层_2">
	<g>
		<path d="M33.2548828,186.5908203c1.0307617,1.4545898,2.3945313,2.4760742,4.0913086,3.0649414
			c1.6308594,0.565918,3.2421875,0.612793,4.831543,0.1411133c1.5893555-0.472168,3.034668-1.4238281,4.3354492-2.8544922
			c0.8626709-0.9497681,1.5947876-2.0810547,2.2190552-3.3621216c0.0385132,1.7145386,0.3582153,3.2249756,0.9699097,4.5232544
			c0.9365234,1.9882813,2.3510742,3.3110352,4.2436523,3.9677734c2.0556641,0.7133789,3.9047852,0.440918,5.5478516-0.8164063
			c1.6430664-1.2583008,2.9794922-3.3720703,4.0097656-6.3408203c0.1699219-0.4892578,0.3515625-1.0664063,0.5454102-1.7299805
			c0.1938477-0.6640625,0.3310547-1.1650391,0.4116211-1.5019531c0.2421875-1.0126953,0.5214844-1.9765625,0.8383789-2.8896484
			c0.3056641-0.8808594,0.7514648-2.0615234,1.3378906-3.5390625l0.9492188-2.5766602
			c0.0224609-0.065918-0.0639648-0.1318359-0.2597656-0.199707c-0.1958008-0.0683594-0.3046875-0.0698242-0.3276367-0.0043945
			c-0.4868164,1.402832-1.0297852,2.2563477-1.6289063,2.5605469c-0.5991211,0.3037109-1.5834961,0.2182617-2.9541016-0.2573242
			l-22.6606445-7.8637695c-0.9462891-0.3286133-1.6191406-0.6811523-2.0185547-1.0571289
			c-0.3994141-0.3764648-0.6044922-0.840332-0.6137695-1.3916016c-0.0097656-0.5517578,0.1499023-1.3012695,0.4785156-2.2470703
			c0.0336914-0.0976563-0.046875-0.1806641-0.2426758-0.2485352c-0.1958008-0.0683594-0.3110352-0.0532227-0.3447266,0.0449219
			c-0.3847656,1.1088867-0.6743164,1.9951172-0.8681641,2.659668l-1.190918,3.5898438
			c-0.2832031,0.8149414-0.5576172,1.5517578-0.8217773,2.2099609c-0.2646484,0.6567383-0.4921875,1.2084961-0.684082,1.6542969
			c-0.5053711,1.140625-0.9165039,2.1674805-1.2333984,3.081543c-0.7363281,2.1206055-1.0048828,4.184082-0.8051758,6.1914063
			C31.609375,183.4057617,32.2241211,185.1367188,33.2548828,186.5908203z M50.3881836,178.9370117
			c0.206665-0.5957031,0.4453125-1.24823,0.710083-1.9468994l9.3172607,3.2335205
			c1.206543,0.418457,1.96875,0.8837891,2.284668,1.3959961c0.315918,0.5112305,0.3100586,1.2402344-0.0185547,2.1870117
			c-0.5322266,1.5332031-1.4213867,2.5405273-2.6669922,3.0224609c-1.2456055,0.4814453-2.7983398,0.3999023-4.6577148-0.2456055
			c-1.9907227-0.6904297-3.4633789-1.7138672-4.4189453-3.0683594
			C49.9824219,182.159668,49.7993164,180.6333008,50.3881836,178.9370117z M33.7275391,174.8007813
			c0.4980469-1.4365234,1.0410156-2.2900391,1.6289063-2.5605469c0.5874023-0.2714844,1.4194336-0.2202148,2.496582,0.1533203
			l11.7913818,4.0918579c-0.2058716,0.8032227-0.461853,1.6586304-0.7816162,2.5805054
			c-0.8491211,2.4472656-2.2172852,4.019043-4.1044922,4.7172852c-1.887207,0.6972656-4.0874023,0.6103516-6.5996094-0.2612305
			C33.7207031,181.9819336,32.2441406,179.074707,33.7275391,174.8007813z"/>
		<path d="M24.2353516,206.9672852c0.2021484,0.0444336,0.3149414,0.0161133,0.3369141-0.0849609
			c0.237793-1.0800781,0.4941406-1.8457031,0.7709961-2.2973633c0.2763672-0.4521484,0.6689453-0.7104492,1.1787109-0.7749023
			c0.5087891-0.0649414,1.2861328,0.0180664,2.3320313,0.2485352l23.3242188,5.1352539
			c1.0117188,0.2226563,1.7436523,0.4716797,2.1958008,0.7485352c0.4511719,0.2758789,0.7231445,0.6894531,0.8144531,1.2402344
			c0.0908203,0.550293,0.0209961,1.3481445-0.2089844,2.394043c-0.0224609,0.1010742,0.0678711,0.1743164,0.2700195,0.21875
			c0.2026367,0.0444336,0.3149414,0.0161133,0.3369141-0.0849609l0.5175781-2.5913086
			c0.2739258-1.5668945,0.5263672-2.8730469,0.7563477-3.918457c0.2080078-0.9443359,0.5161133-2.1855469,0.9257813-3.7216797
			l0.6518555-2.7207031c0.0151367-0.0678711-0.0786133-0.1235352-0.28125-0.1679688
			c-0.2021484-0.0444336-0.3105469-0.0336914-0.3256836,0.0341797c-0.237793,1.0791016-0.5053711,1.8515625-0.8017578,2.3168945
			c-0.2973633,0.4648438-0.7021484,0.737793-1.2148438,0.8198242c-0.5136719,0.0810547-1.2758789,0.0107422-2.2875977-0.2119141
			l-23.425293-5.1572266c-1.0117188-0.2226563-1.7421875-0.4814453-2.1899414-0.7739258
			c-0.4482422-0.293457-0.7011719-0.7114258-0.7583008-1.2543945c-0.0576172-0.543457,0.0332031-1.3544922,0.2705078-2.4335938
			c0.0151367-0.0683594-0.0786133-0.1235352-0.28125-0.1679688c-0.2021484-0.0449219-0.3105469-0.0336914-0.3256836,0.0341797
			c-0.2524414,1.1459961-0.4365234,2.0605469-0.5507813,2.7431641l-0.7739258,3.7548828l-0.8969727,3.8344727
			c-0.175293,0.6328125-0.3847656,1.5063477-0.6298828,2.6196289
			C23.9428711,206.8496094,24.0332031,206.9223633,24.2353516,206.9672852z"/>
		<path d="M24.5327148,238.2705078c1.3398438,1.1757813,2.902832,1.8540039,4.6899414,2.0336914
			c1.7177734,0.1728516,3.2958984-0.1552734,4.7329102-0.9819336c1.4370117-0.8276367,2.6220703-2.0883789,3.5561523-3.7817383
			c0.6191406-1.1236572,1.069397-2.3937988,1.3800049-3.7846069c0.4347534,1.6588745,1.0953979,3.0540771,1.9910889,4.1757202
			c1.371582,1.7167969,3.0541992,2.6757813,5.0478516,2.8764648c2.1645508,0.2177734,3.9008789-0.4755859,5.2075195-2.0795898
			c1.3066406-1.6049805,2.1171875-3.9702148,2.4316406-7.097168c0.0517578-0.5151367,0.0947266-1.1186523,0.1298828-1.809082
			c0.034668-0.6914063,0.0517578-1.2104492,0.0527344-1.5566406c0.0004883-1.0415039,0.0493164-2.0439453,0.1459961-3.0053711
			c0.0932617-0.9277344,0.2529297-2.1791992,0.4814453-3.7524414l0.3261719-2.7265625
			c0.0068359-0.0693359-0.0927734-0.1137695-0.2988281-0.1342773c-0.206543-0.0209961-0.3129883,0.0024414-0.3198242,0.0717773
			c-0.1484375,1.4770508-0.4790039,2.4331055-0.9912109,2.8681641c-0.512207,0.434082-1.4902344,0.5791016-2.9335938,0.434082
			l-23.8657227-2.3999023c-0.9970703-0.1005859-1.7329102-0.2875977-2.2084961-0.5605469
			c-0.4760742-0.2739258-0.7827148-0.6777344-0.9194336-1.2119141c-0.137207-0.534668-0.1557617-1.300293-0.0551758-2.2963867
			c0.0102539-0.1035156-0.0878906-0.1650391-0.2939453-0.1860352c-0.2060547-0.0205078-0.3144531,0.0205078-0.324707,0.1235352
			c-0.1176758,1.1679688-0.1938477,2.0976563-0.2285156,2.7885742l-0.3266602,3.7680664
			c-0.0864258,0.8588867-0.1826172,1.6391602-0.2875977,2.340332c-0.1054688,0.7001953-0.1987305,1.2895508-0.2817383,1.7680664
			c-0.2275391,1.2265625-0.3896484,2.3208008-0.4863281,3.2832031c-0.2246094,2.2333984-0.0083008,4.3027344,0.6508789,6.2094727
			C22.1938477,235.5532227,23.1933594,237.0942383,24.5327148,238.2705078z M52.0253906,226.6123047
			c0.4257813,0.4243164,0.5883789,1.1347656,0.4882813,2.1318359c-0.1625977,1.6147461-0.7939453,2.8012695-1.8935547,3.5585938
			c-1.1005859,0.7563477-2.6298828,1.0371094-4.5883789,0.840332c-2.0966797-0.2109375-3.7661133-0.8652344-5.0097656-1.9619141
			c-1.2431641-1.097168-1.7749023-2.5390625-1.5957031-4.3256836c0.0632324-0.6273193,0.1442871-1.317627,0.2400513-2.0587158
			l9.8126831,0.9869385C50.75,225.9116211,51.5991211,226.1875,52.0253906,226.6123047z M22.2607422,226.6914063
			c0.1523438-1.5126953,0.4829102-2.46875,0.9916992-2.8681641c0.5087891-0.4003906,1.3300781-0.5429688,2.4638672-0.4291992
			l12.4189453,1.2487183c-0.0141602,0.8290405-0.0649414,1.720459-0.1625977,2.6912231
			c-0.2592773,2.5776367-1.2260742,4.4238281-2.9003906,5.5400391c-1.6738281,1.1152344-3.8344727,1.5410156-6.4799805,1.2749023
			C23.918457,233.6787109,21.8081055,231.1928711,22.2607422,226.6914063z"/>
		<path d="M30.0102539,271.9042969c0.0341797-0.0019531,0.0761719-0.046875,0.1245117-0.1347656
			s0.0712891-0.1660156,0.0683594-0.2363281c-0.0053711-0.1367188-0.0424805-0.2050781-0.1113281-0.203125
			c-2.4765625-0.5585938-4.4692383-1.7949219-5.9775391-3.7050781c-1.5092773-1.9121094-2.3164063-4.2128906-2.421875-6.9042969
			l-0.0683594-1.7617188c-0.0351563-0.8964844,0.0083008-1.546875,0.1308594-1.9492188
			c0.1220703-0.4023438,0.3793945-0.6796875,0.7709961-0.8339844c0.3911133-0.1523438,1.0356445-0.2460938,1.9331055-0.28125
			l23.7089844-0.9277344c1.0356445-0.0410156,1.8061523,0.015625,2.3139648,0.1679688
			c0.5063477,0.1542969,0.8652344,0.4863281,1.0756836,0.9960938c0.2094727,0.5097656,0.3359375,1.2988281,0.3779297,2.3691406
			c0.0039063,0.1035156,0.109375,0.1523438,0.3164063,0.1445313c0.2070313-0.0097656,0.3085938-0.0644531,0.3046875-0.1679688
			l-0.1547852-2.6386719c-0.1318359-1.5839844-0.2172852-2.8945313-0.2573242-3.9296875
			c-0.0405273-1.0356445-0.0581055-2.3486328-0.050293-3.9384766l-0.0517578-2.6420898
			c-0.0024414-0.0693359-0.1074219-0.0996094-0.3144531-0.0913086c-0.2070313,0.0078125-0.3095703,0.0458984-0.3066406,0.1157227
			c0.0419922,1.0693359-0.0224609,1.8671875-0.1914063,2.3920898c-0.1699219,0.5253906-0.4926758,0.8920898-0.9682617,1.1010742
			c-0.4760742,0.2080078-1.230957,0.3330078-2.2666016,0.3735352l-23.9677734,0.9370117
			c-1.0351563,0.0405273-1.8076172-0.0249023-2.3144531-0.1948242c-0.5083008-0.1704102-0.8583984-0.5024414-1.050293-0.9956055
			c-0.1923828-0.4941406-0.3095703-1.2929688-0.3525391-2.3969727c-0.0029297-0.0698242-0.1079102-0.0996094-0.3149414-0.0913086
			c-0.2070313,0.0078125-0.309082,0.0458984-0.3066406,0.1157227l0.9555664,24.4326172
			c0.0107422,0.2773438,0.078125,0.4726563,0.2041016,0.5898438c0.1254883,0.1152344,0.3261719,0.1679688,0.6025391,0.15625
			C23.7285156,271.6835938,26.581543,271.7265625,30.0102539,271.9042969z"/>
		<path d="M53.0600586,282.9443359c0.5205078,0.0966797,0.9223633,0.3867188,1.2036133,0.8681641
			c0.2817383,0.4814453,0.5014648,1.2519531,0.6601563,2.3105469c0.0151367,0.1025391,0.1254883,0.1386719,0.3305664,0.1074219
			c0.2045898-0.0302734,0.2993164-0.0966797,0.2841797-0.1992188l-0.4418945-2.6054688
			c-0.3041992-1.5615234-0.534668-2.8710938-0.6928711-3.9296875c-0.1430664-0.9570313-0.2983398-2.2255859-0.4643555-3.8066406
			l-0.362793-2.7744141c-0.0102539-0.0693359-0.1176758-0.0869141-0.3227539-0.0566406s-0.3022461,0.0791016-0.2919922,0.1484375
			c0.1635742,1.0927734,0.1889648,1.9101563,0.078125,2.4501953c-0.1113281,0.5400391-0.3920898,0.9404297-0.8417969,1.2001953
			c-0.4506836,0.2587891-1.1875,0.4648438-2.2124023,0.6181641l-23.722168,3.5488281
			c-1.0244141,0.1533203-1.7993164,0.1728516-2.3217773,0.0595703c-0.5239258-0.1142578-0.9091797-0.4140625-1.15625-0.9013672
			c-0.2480469-0.4863281-0.453125-1.2773438-0.6166992-2.3701172c-0.0102539-0.0683594-0.1176758-0.0869141-0.3227539-0.0556641
			c-0.2045898,0.0302734-0.3022461,0.0791016-0.2919922,0.1484375c0.1738281,1.1601563,0.3286133,2.0800781,0.465332,2.7587891
			l0.6181641,3.7832031l0.53125,3.9023438c0.0625,0.6533203,0.1787109,1.5439453,0.347168,2.671875
			c0.015625,0.1025391,0.1254883,0.1376953,0.3305664,0.1074219s0.2998047-0.0976563,0.2841797-0.1992188
			c-0.1635742-1.09375-0.1972656-1.9003906-0.1000977-2.4208984c0.0966797-0.5214844,0.3710938-0.9033203,0.8242188-1.1455078
			c0.4521484-0.2421875,1.2080078-0.4423828,2.2670898-0.6005859l23.6196289-3.5332031
			C51.7666016,282.8759766,52.5390625,282.8476563,53.0600586,282.9443359z"/>
		<path d="M50.1279297,327.1396484c2.715332-0.8017578,5.0947266-2.1972656,7.1367188-4.1865234
			c2.0410156-1.9882813,3.4472656-4.3935547,4.2177734-7.2128906c0.7695313-2.8203125,0.6904297-5.8037109-0.2382813-8.9501953
			c-0.8310547-2.8164063-2.2583008-5.3925781-4.2802734-7.7304688c-2.0224609-2.3388672-4.5048828-4.0097656-7.4482422-5.0126953
			c-2.9428711-1.0039063-6.1206055-1.0019531-9.5322266,0.0048828c-2.9150391,0.8603516-5.4135742,2.3085938-7.4946289,4.3457031
			c-2.0820313,2.0361328-3.4887695,4.4677734-4.2207031,7.2949219s-0.6435547,5.7802734,0.2661133,8.8613281
			c0.918457,3.1132813,2.5,5.7890625,4.7451172,8.0253906c2.2441406,2.2353516,4.8598633,3.7773438,7.8466797,4.625
			C44.1123047,328.0507813,47.1132813,328.0292969,50.1279297,327.1396484z M39.0883789,322.4033203
			c-2.3149414-0.2167969-4.2285156-0.9033203-5.7397461-2.0595703c-1.5117188-1.15625-2.5410156-2.6621094-3.0883789-4.5166016
			c-0.6357422-2.1542969-0.4931641-4.2929688,0.4277344-6.4199219c0.9204102-2.1259766,2.5039063-4.0517578,4.75-5.7763672
			c2.2451172-1.7255859,4.9746094-3.0625,8.1879883-4.0107422c4.0742188-1.2021484,7.4848633-1.3271484,10.2333984-0.3740234
			c2.7475586,0.953125,4.5668945,2.9375,5.456543,5.9521484c0.6943359,2.3515625,0.6210938,4.6054688-0.2182617,6.7626953
			c-0.8408203,2.15625-2.3242188,4.0527344-4.4516602,5.6884766c-2.128418,1.6367188-4.7158203,2.9042969-7.7631836,3.8037109
			C44.0009766,322.3037109,41.4023438,322.6201172,39.0883789,322.4033203z"/>
		<path d="M48.4692383,352l21.4433594-10.5136719c1.0854492-0.5322266,1.8935547-0.7460938,2.4262695-0.6416016
			c0.5317383,0.1044922,1.0185547,0.6054688,1.4594727,1.5058594c0.9121094,1.8603516,1.0825195,3.71875,0.5126953,5.5761719
			c-0.5708008,1.8564453-1.9355469,3.6025391-4.0952148,5.2392578c-0.078125,0.0761719-0.0791016,0.1914063-0.0029297,0.3466797
			s0.1606445,0.2099609,0.2539063,0.1650391c1.2397461-0.6083984,2.9101563-1.3603516,5.0102539-2.2548828
			c2.0996094-0.8955078,3.6376953-1.5244141,4.6137695-1.8876953c0.1235352-0.0605469,0.144043-0.1767578,0.0605469-0.3466797
			c-0.0834961-0.1708984-0.1958008-0.2412109-0.3339844-0.2109375c-0.5415039,0.0722656-1.0229492-0.125-1.4438477-0.5908203
			c-0.4213867-0.4667969-0.9204102-1.2890625-1.4980469-2.4677734l-1.5976563-3.1396484
			c-1.065918-2.0166016-2.046875-3.9394531-2.9438477-5.7695313c-1.7485352-3.5664063-3.2304688-6.7050781-4.4448242-9.4179688
			c-0.8666992-1.7675781-0.9589844-2.8183594-0.2768555-3.1523438c0.1547852-0.0761719,0.190918-0.2001953,0.1074219-0.3701172
			c-0.0839844-0.1708984-0.203125-0.2177734-0.3579102-0.1416016c-0.9931641,0.4863281-2.5117188,1.1347656-4.5566406,1.9453125
			c-2.0458984,0.8095703-3.71875,1.4570313-5.0195313,1.9414063c-0.0927734,0.0458984-0.1098633,0.1494141-0.0488281,0.3125
			c0.0600586,0.1630859,0.1450195,0.2363281,0.253418,0.2226563c5.5966797-0.7451172,9.300293,0.7275391,11.1098633,4.4189453
			c0.425293,0.8671875,0.5209961,1.5332031,0.2856445,1.9941406c-0.2353516,0.4619141-0.8803711,0.9511719-1.9345703,1.4677734
			l-21.5366211,10.5605469c-0.9301758,0.4560547-1.6699219,0.6933594-2.2177734,0.7119141
			c-0.5493164,0.0185547-1.0341797-0.2050781-1.4545898-0.671875c-0.421875-0.4658203-0.9052734-1.2578125-1.4526367-2.3740234
			c-0.0458984-0.0927734-0.1616211-0.09375-0.3476563-0.0029297c-0.1860352,0.0917969-0.2563477,0.1835938-0.2104492,0.2763672
			c0.5620117,1.1474609,1.0185547,2.0390625,1.3691406,2.6748047l1.894043,3.7451172l1.8461914,3.8837891
			c0.2880859,0.6669922,0.7060547,1.5576172,1.2539063,2.6738281c0.0454102,0.09375,0.1611328,0.0947266,0.347168,0.0029297
			c0.1860352-0.0908203,0.2563477-0.1835938,0.2109375-0.2763672c-0.5629883-1.1474609-0.8964844-2.0224609-0.9990234-2.6259766
			c-0.1040039-0.6035156,0.015625-1.1035156,0.3588867-1.5029297C46.8554688,352.9072266,47.5078125,352.4716797,48.4692383,352z"/>
		<path d="M75.8261719,394.3994141l19.371582-14.1445313c0.8364258-0.6113281,1.5058594-0.9824219,2.0087891-1.1142578
			c0.5019531-0.1318359,0.9985352-0.0234375,1.487793,0.3242188c0.4892578,0.3486328,1.0805664,0.9970703,1.7729492,1.9453125
			c0.0615234,0.0839844,0.175293,0.0644531,0.3427734-0.0576172s0.2207031-0.2255859,0.159668-0.3095703l-1.7529297-2.3115234
			c-1.074707-1.3544922-1.8862305-2.4082031-2.4360352-3.1611328c-0.8149414-1.1162109-1.7041016-2.390625-2.6660156-3.8261719
			l-1.4550781-2.0810547c-0.0610352-0.0839844-0.175293-0.0644531-0.3427734,0.0576172s-0.2202148,0.2255859-0.1591797,0.3095703
			c0.753418,1.03125,1.2192383,1.8457031,1.3984375,2.4423828c0.1787109,0.5957031,0.1269531,1.1259766-0.1547852,1.5888672
			c-0.2827148,0.4619141-0.8417969,0.9990234-1.6787109,1.6103516l-8.4928589,6.2015991l-9.8681641-13.5143433l8.4933472-6.2019043
			c0.8364258-0.6103516,1.5229492-0.9736328,2.0600586-1.0869141c0.5366211-0.1142578,1.0620117,0.0039063,1.5756836,0.3564453
			c0.5136719,0.3515625,1.137207,1.0302734,1.8706055,2.0341797c0.0405273,0.0556641,0.1445313,0.0224609,0.3120117-0.0996094
			s0.2304688-0.2109375,0.1899414-0.2666016l-1.722168-2.2705078c-1.074707-1.3544922-1.9985352-2.5615234-2.7719727-3.6210938
			c-0.5708008-0.78125-1.296875-1.8330078-2.1772461-3.1572266l-1.6079102-2.2900391
			c-0.0610352-0.0830078-0.175293-0.0644531-0.3427734,0.0585938c-0.1674805,0.1220703-0.2207031,0.2246094-0.1591797,0.3085938
			c0.6918945,0.9472656,1.1191406,1.6943359,1.2817383,2.2392578c0.1621094,0.5439453,0.109375,1.0429688-0.1586914,1.4951172
			c-0.269043,0.4521484-0.8208008,0.984375-1.6577148,1.5947266l-19.371582,14.1455078
			c-0.8364258,0.6113281-1.5185547,0.9804688-2.0449219,1.1083984c-0.5268555,0.1279297-1.0229492,0.0195313-1.487793-0.3251953
			c-0.4663086-0.34375-1.0546875-1.0048828-1.7675781-1.9804688C53.8344727,370.34375,53.730957,370.3779297,53.5634766,370.5
			s-0.230957,0.2109375-0.1899414,0.2666016c0.7128906,0.9765625,1.2866211,1.7333984,1.722168,2.2705078l2.3330078,3.1074219
			l2.6162109,3.6708984c0.3994141,0.6064453,0.9560547,1.3964844,1.6689453,2.3730469
			c0.0405273,0.0556641,0.1450195,0.0234375,0.3120117-0.0996094c0.1674805-0.1220703,0.230957-0.2109375,0.1899414-0.2666016
			c-0.753418-1.0322266-1.234375-1.8359375-1.4404297-2.4121094c-0.2070313-0.5761719-0.1694336-1.0947266,0.1132813-1.5576172
			c0.2817383-0.4628906,0.8417969-1,1.6787109-1.6113281l9.6228027-7.0266724l9.8681641,13.5142822l-9.623291,7.0270386
			c-0.8647461,0.6308594-1.5537109,1.0058594-2.065918,1.1230469c-0.5131836,0.1181641-1.012207-0.0087891-1.4975586-0.3818359
			c-0.4868164-0.3720703-1.105957-1.0742188-1.8588867-2.1064453c-0.0615234-0.0830078-0.175293-0.0644531-0.3427734,0.0585938
			c-0.1674805,0.1220703-0.2207031,0.2246094-0.159668,0.3085938c0.6313477,0.8642578,1.1445313,1.5380859,1.5390625,2.0195313
			l2.7915039,3.734375l2.3105469,3.2529297c0.3994141,0.6054688,0.9555664,1.3964844,1.6689453,2.3730469
			c0.0610352,0.0839844,0.175293,0.0644531,0.3427734-0.0576172s0.2202148-0.2255859,0.1591797-0.3085938
			c-0.7128906-0.9765625-1.1630859-1.7392578-1.3486328-2.2871094c-0.1870117-0.5478516-0.1342773-1.046875,0.1586914-1.4951172
			C74.4243164,395.5410156,74.9892578,395.0107422,75.8261719,394.3994141z"/>
		<path d="M109.5556641,404.1035156c-0.1357422-0.1337891-0.2392578-0.1630859-0.3120117-0.0888672
			c-0.8725586,0.8857422-1.9331055,1.1992188-3.1801758,0.9394531c-1.2480469-0.2587891-2.5849609-1.0917969-4.012207-2.4970703
			l-3.0635376-3.0170898l7.4155884-7.5297852c0.6547852-0.6640625,1.3110352-0.9873047,1.9711914-0.9667969
			c0.6586914,0.0195313,1.3583984,0.3925781,2.0966797,1.1191406l1.1069336,1.0908203
			c1.5258789,1.5019531,2.4160156,3.0585938,2.6733398,4.6679688c0.2563477,1.6103516-0.121582,3.3232422-1.1328125,5.1376953
			c-0.0483398,0.0976563,0.0073242,0.2011719,0.1669922,0.3105469c0.1591797,0.1083984,0.2631836,0.1386719,0.3120117,0.0888672
			l4.7612305-4.9824219c0.2177734-0.2207031,0.2036133-0.453125-0.0419922-0.6953125l-15.6503906-15.4130859
			c-0.0737305-0.0722656-0.1835938-0.0351563-0.3286133,0.1123047c-0.1455078,0.1474609-0.1811523,0.2578125-0.1074219,0.3310547
			c0.762207,0.7509766,1.2617188,1.3759766,1.4980469,1.875c0.2353516,0.4990234,0.2446289,0.9804688,0.0292969,1.4462891
			c-0.2167969,0.4658203-0.6879883,1.0683594-1.4150391,1.8066406L85.512207,404.9287109
			c-0.7270508,0.7373047-1.3286133,1.2246094-1.8022461,1.4599609c-0.4750977,0.2353516-0.9511719,0.2392578-1.4287109,0.0117188
			c-0.4785156-0.2285156-1.1108398-0.7304688-1.8979492-1.5058594c-0.0737305-0.0732422-0.1835938-0.0351563-0.3291016,0.1123047
			s-0.1811523,0.2578125-0.1074219,0.3300781l16.3149414,16.0673828c0.2211914,0.2177734,0.4111328,0.3212891,0.5698242,0.3076172
			s0.3349609-0.1191406,0.5288086-0.3154297c1.5507813-1.5751953,3.3945313-3.2011719,5.53125-4.8779297
			c0.0239258-0.0244141,0.0234375-0.0859375-0.0014648-0.1835938c-0.0253906-0.0976563-0.074707-0.1826172-0.1484375-0.2548828
			c-0.0986328-0.0976563-0.1723633-0.1210938-0.2202148-0.0722656c-2.1655273,1.1162109-4.2143555,1.4980469-6.1459961,1.1464844
			c-1.9326172-0.3515625-3.8574219-1.4726563-5.7768555-3.3632813l-1.2182617-1.1992188
			c-0.590332-0.5820313-0.8520508-1.1777344-0.7827148-1.7890625c0.0678711-0.6113281,0.4536133-1.2734375,1.1567383-1.9873047
			l8.2155151-8.342041l3.0266724,2.9807129c1.4516602,1.4296875,2.2802734,2.8164063,2.4863281,4.1572266
			c0.2055664,1.3417969-0.1884766,2.5175781-1.1821289,3.5263672c-0.0488281,0.0498047,0.0014648,0.1464844,0.1489258,0.2919922
			s0.2451172,0.1933594,0.2939453,0.1445313c0.4848633-0.4921875,1.1142578-1.1816406,1.8891602-2.0664063l1.7080078-1.8076172
			l3.3085938-3.2861328C109.722168,404.3408203,109.6904297,404.2363281,109.5556641,404.1035156z"/>
		<path d="M132.9277344,438.1914063c-0.1206055-0.1289063-0.2241211-0.1621094-0.3125-0.0976563
			c-2.9155273,1.5585938-5.4101563,2.3867188-7.4838867,2.4863281c-2.074707,0.0996094-4.0776367-0.5488281-6.0092773-1.9443359
			c-2.015625-1.4560547-3.4213867-3.2695313-4.2167969-5.4423828c-0.7954102-2.171875-0.9316406-4.5488281-0.4077148-7.1328125
			c0.5234375-2.5820313,1.715332-5.1611328,3.5761719-7.7373047c1.8398438-2.5478516,3.8740234-4.4648438,6.1040039-5.7519531
			c2.2290039-1.2871094,4.4609375-1.9003906,6.6977539-1.8408203c2.2353516,0.0605469,4.3051758,0.7773438,6.2094727,2.1533203
			c2.043457,1.4755859,3.3535156,3.3486328,3.9301758,5.6181641c0.5756836,2.2695313,0.4262695,4.8359375-0.4472656,7.6972656
			c-0.0253906,0.1523438,0.0419922,0.265625,0.2026367,0.3388672c0.159668,0.0732422,0.2705078,0.0673828,0.331543-0.0166016
			l3.6704102-6.2314453c0.1943359-0.328125,0.3017578-0.5810547,0.3232422-0.7578125
			c0.0209961-0.1767578-0.0639648-0.3974609-0.2553711-0.6630859c-0.5698242-0.9228516-1.4570313-1.9794922-2.6630859-3.1699219
			c-1.206543-1.1914063-2.4672852-2.2617188-3.7832031-3.2119141c-2.9677734-2.1445313-6.0874023-3.5029297-9.3583984-4.0761719
			s-6.3530273-0.3173828-9.2451172,0.7666016c-2.8925781,1.0849609-5.2998047,2.9580078-7.2207031,5.6171875
			c-1.8808594,2.6035156-2.8876953,5.4130859-3.0195313,8.4277344c-0.1328125,3.0146484,0.5742188,5.9423828,2.1210938,8.7851563
			c1.5463867,2.8427734,3.8173828,5.3457031,6.8139648,7.5107422c2.6308594,1.9003906,5.5683594,3.3193359,8.8120117,4.2558594
			c0.3325195,0.0703125,0.5620117,0.0761719,0.6894531,0.0185547c0.1264648-0.0576172,0.3388672-0.234375,0.6381836-0.5292969
			l4.3916016-4.7529297C133.0771484,438.4267578,133.0473633,438.3203125,132.9277344,438.1914063z"/>
		<path d="M165.0336914,462.2363281c-0.3076172-1.1865234-0.4692383-3.1455078-0.4848633-5.8798828l-0.5166016-28.5849609
			c0.0136719-0.1083984-0.1035156-0.2236328-0.3515625-0.34375c-0.2177734-0.1054688-0.3803711-0.1269531-0.4873047-0.0644531
			l-20.9072266,17.3183594c-1.6831055,1.4101563-3.0424805,2.4296875-4.0771484,3.0595703
			c-1.0356445,0.6298828-1.9355469,0.9804688-2.6987305,1.0507813c-0.7641602,0.0703125-1.5810547-0.1054688-2.4506836-0.5273438
			c-0.1235352-0.0605469-0.2314453,0.0019531-0.3217773,0.1884766c-0.0908203,0.1865234-0.0732422,0.3105469,0.050293,0.3701172
			c0.6523438,0.3173828,1.5214844,0.7011719,2.6083984,1.1513672c1.2104492,0.5117188,2.2358398,0.9707031,3.0742188,1.3779297
			c0.8696289,0.4228516,1.8798828,0.9511719,3.0307617,1.5869141c1.0253906,0.5751953,1.8188477,0.9980469,2.3779297,1.2705078
			c0.1552734,0.0751953,0.2783203,0.0195313,0.3686523-0.1669922c0.0908203-0.1865234,0.0581055-0.3173828-0.097168-0.3925781
			c-1.3359375-0.6494141-2.2490234-1.4755859-2.7397461-2.4824219c-0.4902344-1.0058594-0.4638672-2.0683594,0.0791016-3.1865234
			c0.3769531-0.7763672,0.9858398-1.5175781,1.828125-2.2226563l3.8063354-3.1615601l11.4277344,5.5489502l0.1296997,7.8381958
			c0.0175781,1.5449219-0.1015625,2.5810547-0.3579102,3.1083984c-0.2114258,0.4355469-0.5375977,0.6513672-0.9770508,0.6494141
			c-0.4404297-0.0029297-1.0644531-0.2001953-1.8720703-0.5927734c-0.1245117-0.0605469-0.2314453,0.0029297-0.3222656,0.1894531
			c-0.090332,0.1855469-0.0737305,0.3095703,0.0507813,0.3701172c0.6210938,0.3007813,1.4746094,0.6777344,2.5620117,1.1289063
			c1.1484375,0.4804688,2.1108398,0.9091797,2.8876953,1.2871094c0.5898438,0.2861328,1.5532227,0.7929688,2.890625,1.5185547
			c1.2744141,0.6962891,2.222168,1.1943359,2.8442383,1.4960938c0.1547852,0.0751953,0.2783203,0.0205078,0.3686523-0.1660156
			s0.0581055-0.3173828-0.097168-0.3925781C165.8828125,464.203125,165.3408203,463.421875,165.0336914,462.2363281z
			 M148.3500977,441.5794678l9.9567871-8.2701416l0.2186279,13.2114258L148.3500977,441.5794678z"/>
		<path d="M233.8417969,447.7246094c-0.7163086-0.4023438-1.6772461-0.7900391-2.8837891-1.1650391
			s-2.409668-0.6367188-3.609375-0.7851563c-1.8168945-0.2246094-3.5844727-0.1376953-5.3037109,0.2587891
			c-1.7197266,0.3974609-3.1791992,1.15625-4.3789063,2.2783203c-1.2006836,1.1230469-1.9121094,2.5917969-2.1362305,4.4082031
			c-0.1777344,1.4394531-0.0068359,2.7314453,0.5136719,3.8740234c0.5195313,1.1435547,1.1875,2.1484375,2.003418,3.0136719
			c0.8144531,0.8662109,1.9799805,1.9326172,3.4941406,3.1982422c1.543457,1.3046875,2.7470703,2.4091797,3.6098633,3.3164063
			c0.8618164,0.9072266,1.5581055,1.9667969,2.0869141,3.1806641c0.5288086,1.2128906,0.7001953,2.5742188,0.5141602,4.0820313
			c-0.2202148,1.7832031-0.8212891,2.9873047-1.8032227,3.6142578c-0.9829102,0.6279297-2.1591797,0.8564453-3.5297852,0.6865234
			c-1.5087891-0.1855469-2.7924805-0.8486328-3.8520508-1.9892578c-1.0600586-1.1396484-1.8955078-2.4082031-2.5058594-3.8056641
			s-1.3007813-3.2060547-2.0712891-5.4238281c-0.0175781-0.140625-0.112793-0.2138672-0.2861328-0.2177734
			c-0.1738281-0.0039063-0.2685547,0.0625-0.2856445,0.1992188L213.4116211,466.5l-0.8544922,8.1943359
			c-0.0341797,0.2744141-0.015625,0.4765625,0.0556641,0.6064453c0.0703125,0.1318359,0.1826172,0.2763672,0.3378906,0.4335938
			c0.519043,0.5859375,1.6005859,1.1982422,3.2446289,1.8359375s3.2192383,1.0498047,4.7280273,1.2363281
			c2.090332,0.2578125,4.0322266,0.1054688,5.8242188-0.4560547s3.2529297-1.4775391,4.3842773-2.7470703
			c1.1308594-1.2705078,1.8066406-2.7958984,2.0268555-4.5791016c0.1904297-1.5419922-0.0014648-2.9492188-0.5751953-4.2207031
			c-0.5742188-1.2714844-1.3242188-2.3818359-2.2509766-3.3310547s-2.1801758-2.078125-3.7583008-3.3867188
			c-1.449707-1.2226563-2.5927734-2.2519531-3.4296875-3.0859375c-0.8364258-0.8339844-1.5131836-1.7695313-2.0283203-2.8076172
			c-0.5161133-1.0380859-0.6972656-2.1738281-0.5449219-3.4082031c0.1860352-1.5078125,0.7646484-2.6015625,1.7358398-3.2832031
			c0.9716797-0.6796875,2.1425781-0.9355469,3.5136719-0.7666016c2.0566406,0.2539063,3.5654297,1.2060547,4.5283203,2.8554688
			c0.9619141,1.6503906,1.7382813,3.6074219,2.3291016,5.8730469l0.2905273,1.0273438
			c0.0209961,0.1074219,0.1206055,0.1455078,0.2988281,0.1152344c0.1777344-0.0302734,0.2729492-0.0966797,0.2856445-0.2001953
			l0.9331055-7.5576172c0.0292969-0.2392578,0.0024414-0.4433594-0.081543-0.6103516
			C234.3212891,448.0703125,234.1333008,447.8994141,233.8417969,447.7246094z"/>
		<path d="M275.9785156,478.6367188c-1.2089844,0.0400391-2.0917969-0.015625-2.6494141-0.1699219
			c-0.5585938-0.1542969-0.9414063-0.4785156-1.1474609-0.9726563c-0.2070313-0.4931641-0.3271484-1.2587891-0.3623047-2.2949219
			l-0.8066406-23.9716797c-0.0351563-1.0361328,0.0341797-1.7978516,0.2080078-2.2880859
			c0.1728516-0.4892578,0.5419922-0.8388672,1.1054688-1.0478516c0.5625-0.2089844,1.4306641-0.3330078,2.6044922-0.3730469
			c0.1035156-0.0029297,0.1523438-0.1083984,0.1455078-0.3154297c-0.0078125-0.2070313-0.0625-0.3095703-0.1660156-0.3056641
			l-2.8974609,0.1494141c-1.7246094,0.1279297-3.0517578,0.2060547-3.9833984,0.2373047
			c-1.3818359,0.046875-2.9355469,0.0654297-4.6640625,0.0537109l-2.5380859,0.0332031
			c-0.1035156,0.0039063-0.1523438,0.109375-0.1455078,0.3164063s0.0625,0.3085938,0.1660156,0.3046875
			c1.2763672-0.0429688,2.2119141,0.0292969,2.8066406,0.2167969c0.5927734,0.1875,1.0019531,0.5283203,1.2265625,1.0214844
			c0.2236328,0.4941406,0.3535156,1.2578125,0.3876953,2.2939453l0.3538818,10.5106812l-16.7238159,0.5623779l-0.3536987-10.5105591
			c-0.034668-1.0351563,0.0512695-1.8066406,0.2592773-2.3154297c0.2070313-0.5078125,0.6005859-0.875,1.1806641-1.1025391
			c0.5795898-0.2265625,1.4916992-0.3613281,2.7338867-0.4023438c0.0683594-0.0029297,0.0996094-0.1074219,0.0927734-0.3144531
			s-0.0449219-0.3095703-0.1132813-0.3076172l-2.8461914,0.1484375c-1.7241211,0.1269531-3.2416992,0.2119141-4.5532227,0.2568359
			c-0.9667969,0.0322266-2.2451172,0.0410156-3.8349609,0.0253906l-2.7973633,0.0419922
			c-0.1035156,0.0039063-0.1518555,0.1083984-0.1450195,0.3154297s0.0625,0.3095703,0.1660156,0.3056641
			c1.1728516-0.0390625,2.0302734,0.0273438,2.5722656,0.1982422c0.5410156,0.1728516,0.9238281,0.4970703,1.1474609,0.9726563
			c0.2231445,0.4765625,0.3520508,1.2324219,0.387207,2.2675781l0.8066406,23.9726563
			c0.034668,1.0351563-0.0429688,1.8076172-0.2329102,2.3144531c-0.1904297,0.5078125-0.559082,0.8574219-1.1054688,1.0478516
			c-0.5463867,0.1914063-1.4238281,0.3076172-2.6318359,0.3476563c-0.0693359,0.0029297-0.1000977,0.1074219-0.0927734,0.3144531
			c0.0068359,0.2070313,0.0444336,0.3095703,0.1137695,0.3066406c1.2080078-0.0400391,2.15625-0.0888672,2.8461914-0.1474609
			l3.8813477-0.1826172l4.5063477-0.0996094c0.7255859,0.0107422,1.6923828-0.0048828,2.9013672-0.0458984
			c0.0683594-0.0019531,0.0996094-0.1064453,0.0927734-0.3134766s-0.0449219-0.3095703-0.1142578-0.3076172
			c-1.2773438,0.0429688-2.2119141-0.0117188-2.8041992-0.1650391c-0.5932617-0.1523438-1.0009766-0.4755859-1.2250977-0.96875
			c-0.2236328-0.4931641-0.3530273-1.2587891-0.3881836-2.2939453l-0.4007568-11.9085083l16.723877-0.5631104l0.401001,11.9091187
			c0.0361328,1.0703125-0.0419922,1.8496094-0.2324219,2.3398438c-0.1904297,0.4912109-0.5771484,0.8320313-1.1572266,1.0244141
			c-0.5820313,0.1923828-1.5107422,0.3095703-2.7880859,0.3525391c-0.1035156,0.0039063-0.1513672,0.1083984-0.1445313,0.3154297
			c0.0068359,0.2080078,0.0625,0.3095703,0.1660156,0.3056641c1.0693359-0.0361328,1.9150391-0.0810547,2.5351563-0.1367188
			l4.6582031-0.2089844l3.9882813-0.0820313c0.7265625,0.0097656,1.6923828-0.0048828,2.9013672-0.0458984
			c0.1035156-0.0039063,0.1523438-0.109375,0.1445313-0.3164063
			C276.1367188,478.734375,276.0820313,478.6328125,275.9785156,478.6367188z"/>
		<path d="M317.7724609,469.9960938c-0.84375,0.1855469-1.7529297-0.0908203-2.7294922-0.8310547
			c-0.9765625-0.7392578-2.3193359-2.1757813-4.0273438-4.3105469l-18.1357422-22.1025391
			c-0.0556641-0.09375-0.21875-0.1103516-0.4882813-0.0507813c-0.2363281,0.0517578-0.3769531,0.1357422-0.421875,0.2519531
			l-5.6582031,26.5517578c-0.4453125,2.1503906-0.8789063,3.7939453-1.3007813,4.9287109
			c-0.4208984,1.1367188-0.9101563,1.9697266-1.4648438,2.4980469c-0.5556641,0.5302734-1.3056641,0.8984375-2.2490234,1.1064453
			c-0.1347656,0.0292969-0.1806641,0.1455078-0.1357422,0.3486328c0.0449219,0.2021484,0.1347656,0.2880859,0.2695313,0.2587891
			c0.7080078-0.15625,1.6279297-0.3945313,2.7597656-0.7148438c1.2666016-0.3496094,2.3554688-0.6259766,3.2666016-0.8261719
			c0.9433594-0.2080078,2.0644531-0.4199219,3.3613281-0.6347656c1.1611328-0.1855469,2.0458984-0.3457031,2.6523438-0.4794922
			c0.1689453-0.0371094,0.2314453-0.15625,0.1865234-0.359375c-0.0449219-0.2021484-0.1513672-0.2841797-0.3203125-0.2470703
			c-1.4501953,0.3193359-2.6796875,0.2373047-3.6884766-0.2480469c-1.0087891-0.484375-1.6464844-1.3349609-1.9140625-2.5488281
			c-0.1865234-0.8427734-0.1679688-1.8017578,0.0546875-2.8769531l1.0245972-4.8406372l12.4066162-2.7354736l4.9633179,6.0673218
			c0.9716797,1.2001953,1.5205078,2.0869141,1.6474609,2.6601563c0.1044922,0.4726563-0.0175781,0.8447266-0.3642578,1.1152344
			c-0.3476563,0.2714844-0.9589844,0.5029297-1.8359375,0.6962891c-0.1357422,0.0302734-0.1796875,0.1455078-0.1357422,0.3486328
			c0.0449219,0.2021484,0.1347656,0.2880859,0.2695313,0.2587891c0.6738281-0.1484375,1.5771484-0.3828125,2.7099609-0.7041016
			c1.1992188-0.3349609,2.2197266-0.5957031,3.0634766-0.78125c0.640625-0.140625,1.7099609-0.3417969,3.2089844-0.6015625
			c1.4316406-0.2441406,2.484375-0.4414063,3.1591797-0.5898438c0.1689453-0.0371094,0.2304688-0.1572266,0.1865234-0.359375
			C318.0478516,470.0410156,317.9414063,469.9589844,317.7724609,469.9960938z M289.1435547,463.3110352l2.680481-12.6633911
			l8.3664551,10.227417L289.1435547,463.3110352z"/>
		<path d="M341.4765625,428.4169922c0.3095703-1.3115234,1.1015625-2.234375,2.375-2.7714844
			c0.0634766-0.0263672,0.0546875-0.1357422-0.0253906-0.3261719c-0.0810547-0.1914063-0.1533203-0.2734375-0.2158203-0.2460938
			l-2.1289063,0.9521484c-1.1191406,0.546875-1.9970703,0.9541016-2.6337891,1.2216797
			c-0.7001953,0.2949219-1.5722656,0.6259766-2.6181641,0.9902344l-2.0732422,0.8173828
			c-0.0634766,0.0263672-0.0546875,0.1357422,0.0253906,0.3261719c0.0800781,0.1914063,0.1523438,0.2734375,0.2158203,0.2460938
			c1.2412109-0.5224609,2.4199219-0.4375,3.5361328,0.2539063c1.1152344,0.6923828,2.0351563,1.8974609,2.7597656,3.6162109
			l6.4901123,15.4111328l-24.5379639-12.0830078c-0.3300781-0.1601563-0.9199219-0.4921875-1.7695313-0.9970703
			c-0.4921875-0.2792969-0.8291016-0.4560547-1.0097656-0.5302734c-0.1816406-0.0732422-0.3994141-0.0566406-0.6533203,0.0498047
			c-0.6376953,0.2685547-1.1708984,0.5126953-1.6035156,0.7314453l-3.6083984,1.5761719
			c-0.7958984,0.3349609-1.4072266,0.5742188-1.8349609,0.7167969l-2.0244141,0.796875
			c-0.0644531,0.0263672-0.0556641,0.1357422,0.0244141,0.3261719c0.0810547,0.1914063,0.1523438,0.2734375,0.2167969,0.2460938
			c0.8271484-0.3476563,1.7392578-0.4511719,2.7363281-0.3085938c0.9076538,0.1299438,2.1016235,0.5488892,3.5526733,1.2269897
			l8.4961548,20.1743774c0.7109375,1.6875,0.8681641,3.1953125,0.4716797,4.5234375s-1.2949219,2.2880859-2.6953125,2.8769531
			c-0.0947266,0.0410156-0.1025391,0.15625-0.0224609,0.3476563c0.0810547,0.1904297,0.1689453,0.265625,0.2636719,0.2255859
			c1.0185547-0.4287109,1.7919922-0.7724609,2.3203125-1.0332031l2.9394531-1.2939453l2.5986328-1.0380859
			c0.4912109-0.1689453,1.1816406-0.4414063,2.0732422-0.8173828c0.0634766-0.0263672,0.0546875-0.1357422-0.0253906-0.3261719
			c-0.0800781-0.1914063-0.1533203-0.2734375-0.2158203-0.2460938c-1.2421875,0.5224609-2.4208984,0.4384766-3.5361328-0.2539063
			c-1.1162109-0.6914063-2.0283203-1.8808594-2.7392578-3.5683594l-7.8164063-18.5579224l33.1240234,16.0501099
			c0.0898438,0.0371094,0.2001953,0.0087891,0.3300781-0.0830078s0.1748047-0.1855469,0.1347656-0.28125l-10.2949219-24.4453125
			C341.3671875,431.2265625,341.1660156,429.7275391,341.4765625,428.4169922z"/>
		<path d="M383.0712891,427.5c-0.0566406-0.0869141-0.1669922-0.0976563-0.3300781-0.0332031
			c-0.1640625,0.0654297-0.2324219,0.1503906-0.2050781,0.2558594c0.3984375,3.2822266,0.2685547,5.9072266-0.3896484,7.8769531
			s-1.9863281,3.6025391-3.9863281,4.8984375c-2.0869141,1.3525391-4.2871094,2.0058594-6.5996094,1.9619141
			c-2.3134766-0.0449219-4.578125-0.7783203-6.796875-2.2011719s-4.1914063-3.4667969-5.9199219-6.1337891
			c-1.7089844-2.6367188-2.7607422-5.2275391-3.1533203-7.7714844c-0.3935547-2.5439453-0.1572266-4.8466797,0.7080078-6.9101563
			c0.8642578-2.0625,2.2822266-3.7324219,4.2539063-5.0097656c2.1152344-1.3710938,4.3349609-1.9150391,6.6601563-1.6308594
			c2.3232422,0.2841797,4.6621094,1.3525391,7.0136719,3.2021484c0.1328125,0.0791016,0.2617188,0.0566406,0.3886719-0.0664063
			c0.1259766-0.1220703,0.1611328-0.2275391,0.1044922-0.3144531l-4.4814453-5.6767578
			c-0.2353516-0.2998047-0.4316406-0.4921875-0.5888672-0.5751953c-0.1572266-0.0839844-0.3935547-0.0849609-0.7109375-0.0029297
			c-1.0664063,0.1972656-2.3720703,0.6425781-3.9189453,1.3359375c-1.546875,0.6943359-3.0009766,1.4824219-4.3632813,2.3642578
			c-3.0722656,1.9912109-5.4677734,4.4082031-7.1855469,7.25c-1.71875,2.8417969-2.5947266,5.8076172-2.6298828,8.8964844
			c-0.0361328,3.0888672,0.8388672,6.0097656,2.6230469,8.7636719c1.7460938,2.6953125,4.0009766,4.6503906,6.7636719,5.8642578
			c2.7617188,1.2148438,5.7480469,1.6152344,8.9580078,1.2011719c3.2089844-0.4130859,6.3642578-1.6240234,9.4667969-3.6337891
			c2.7236328-1.765625,5.109375-3.9902344,7.15625-6.6748047c0.1865234-0.2851563,0.2744141-0.4970703,0.2666016-0.6367188
			c-0.0078125-0.1386719-0.0957031-0.4003906-0.2626953-0.7861328L383.0712891,427.5z"/>
		<path d="M420.1376953,404.9042969c-0.8818359,0.8271484-1.5830078,1.3671875-2.1035156,1.6191406
			c-0.5214844,0.2519531-1.0224609,0.2607422-1.5039063,0.0253906c-0.4804688-0.2353516-1.0761719-0.7314453-1.7851563-1.4863281
			l-16.4121094-17.4921875c-0.7089844-0.7558594-1.1591797-1.375-1.3515625-1.8574219s-0.1455078-0.9882813,0.1396484-1.5166016
			c0.2861328-0.5283203,0.8564453-1.1943359,1.7128906-1.9980469c0.0761719-0.0712891,0.0429688-0.1816406-0.0986328-0.3330078
			c-0.1425781-0.1513672-0.2509766-0.1914063-0.3261719-0.1201172l-2.0800781,2.0224609
			c-1.2128906,1.2324219-2.1582031,2.1669922-2.8388672,2.8046875c-1.0078125,0.9453125-2.1640625,1.984375-3.4707031,3.1152344
			l-1.8867188,1.6992188c-0.0751953,0.0703125-0.0429688,0.1816406,0.0996094,0.3330078
			c0.1416016,0.1503906,0.25,0.1904297,0.3261719,0.1201172c0.9306641-0.8740234,1.6816406-1.4365234,2.2519531-1.6875
			s1.1025391-0.2636719,1.5957031-0.0410156c0.4941406,0.2236328,1.0957031,0.7128906,1.8046875,1.46875l7.1953125,7.6691895
			l-12.2028198,11.4495239l-7.1956177-7.6694946c-0.7089844-0.7558594-1.1533203-1.3925781-1.3320313-1.9111328
			s-0.1259766-1.0546875,0.1611328-1.6074219c0.2861328-0.5527344,0.8828125-1.2548828,1.7900391-2.1054688
			c0.0498047-0.0478516,0.0039063-0.1464844-0.1376953-0.2978516s-0.2382813-0.203125-0.2880859-0.15625l-2.0419922,1.9873047
			c-1.2128906,1.2333984-2.296875,2.2978516-3.2539063,3.1953125c-0.7060547,0.6621094-1.6611328,1.5117188-2.8671875,2.5478516
			l-2.0751953,1.8759766c-0.0751953,0.0712891-0.0429688,0.1816406,0.0996094,0.3330078
			c0.1416016,0.1513672,0.25,0.1914063,0.3251953,0.1201172c0.8564453-0.8027344,1.5449219-1.3183594,2.0654297-1.546875
			c0.5205078-0.2265625,1.0214844-0.2353516,1.5039063-0.0253906c0.4824219,0.2119141,1.0771484,0.6943359,1.7861328,1.4501953
			l16.4121094,17.4921875c0.7089844,0.7558594,1.1591797,1.3867188,1.3505859,1.8935547
			c0.1914063,0.5078125,0.1445313,1.0136719-0.1396484,1.5166016c-0.2851563,0.5048828-0.8681641,1.1699219-1.75,1.9970703
			c-0.0507813,0.0478516-0.0048828,0.1464844,0.1367188,0.2978516c0.1425781,0.1503906,0.2382813,0.203125,0.2890625,0.1552734
			c0.8808594-0.8271484,1.5615234-1.4892578,2.0419922-1.9873047l2.7978516-2.6962891l3.3222656-3.0458984
			c0.5527344-0.4707031,1.2695313-1.1201172,2.1513672-1.9472656c0.0507813-0.046875,0.0048828-0.1464844-0.1367188-0.2978516
			s-0.2382813-0.203125-0.2880859-0.1552734c-0.9326172,0.8740234-1.6708984,1.4492188-2.2177734,1.7246094
			c-0.546875,0.2763672-1.0664063,0.3027344-1.5605469,0.0791016c-0.4931641-0.2236328-1.0947266-0.7128906-1.8037109-1.46875
			l-8.1528931-8.6898193l12.203125-11.4492188l8.1528931,8.6898193c0.7324219,0.7802734,1.1884766,1.4179688,1.3681641,1.9121094
			c0.1806641,0.4951172,0.1152344,1.0058594-0.1953125,1.5332031c-0.3095703,0.5283203-0.9316406,1.2294922-1.8632813,2.1035156
			c-0.0751953,0.0703125-0.0419922,0.1816406,0.0996094,0.3330078s0.2509766,0.1914063,0.3261719,0.1201172
			c0.7802734-0.7324219,1.3867188-1.3242188,1.8154297-1.7744141l3.3652344-3.2285156l2.9443359-2.6914063
			c0.5527344-0.4707031,1.2695313-1.1201172,2.1513672-1.9472656c0.0751953-0.0712891,0.0419922-0.1816406-0.0996094-0.3330078
			S420.2138672,404.8330078,420.1376953,404.9042969z"/>
		<path d="M438.9101563,380.3759766c-1.7529297-1.3457031-3.5927734-2.9765625-5.5185547-4.8916016
			c-0.0273438-0.0205078-0.0888672-0.0126953-0.1816406,0.0234375c-0.09375,0.0371094-0.1728516,0.0966797-0.2353516,0.1787109
			c-0.0849609,0.1103516-0.0986328,0.1855469-0.0439453,0.2275391c1.3720703,2.0126953,2.0019531,3.9990234,1.8896484,5.9589844
			c-0.1123047,1.9619141-0.9882813,4.0097656-2.6298828,6.1455078L431.1494141,389.375
			c-0.5048828,0.6572266-1.0644531,0.9902344-1.6796875,0.9960938c-0.6152344,0.0068359-1.3193359-0.2949219-2.1132813-0.9052734
			l-9.2857666-7.1312866l2.5875244-3.3687134c1.2412109-1.6162109,2.515625-2.6083984,3.8212891-2.9775391
			c1.3066406-0.3681641,2.5214844-0.1210938,3.6435547,0.7412109c0.0556641,0.0429688,0.1455078-0.0185547,0.2714844-0.1835938
			c0.1269531-0.1640625,0.1630859-0.2666016,0.1074219-0.3095703c-0.5478516-0.4199219-1.3085938-0.9609375-2.28125-1.6210938
			l-2.0039063-1.4736328l-3.6660156-2.8818359c-0.0820313-0.0625-0.1816406-0.0185547-0.296875,0.1318359
			c-0.1162109,0.1503906-0.1328125,0.2578125-0.0507813,0.3203125c0.9863281,0.7578125,1.4267578,1.7714844,1.3232422,3.0410156
			c-0.1044922,1.2705078-0.7675781,2.6992188-1.9873047,4.2880859l-2.6186523,3.4100952l-8.3823242-6.437439
			c-0.7392578-0.5683594-1.1396484-1.1796875-1.2011719-1.8378906c-0.0615234-0.65625,0.2226563-1.3955078,0.8544922-2.2177734
			l0.9462891-1.2324219c1.3046875-1.6982422,2.7402344-2.7724609,4.3056641-3.2246094
			c1.5664063-0.4521484,3.3125-0.2871094,5.2382813,0.4951172c0.1025391,0.0361328,0.1982422-0.0322266,0.2871094-0.2041016
			c0.0878906-0.1708984,0.1054688-0.2783203,0.0498047-0.3212891l-5.5273438-4.1142578
			c-0.2460938-0.1894531-0.4755859-0.1464844-0.6855469,0.1269531l-13.3789063,17.4199219
			c-0.0634766,0.0830078-0.0126953,0.1865234,0.1513672,0.3134766c0.1640625,0.1259766,0.2783203,0.1474609,0.3408203,0.0654297
			c0.6523438-0.8486328,1.2119141-1.4208984,1.6777344-1.7158203c0.4667969-0.2949219,0.9433594-0.3632813,1.4326172-0.2070313
			c0.4892578,0.1582031,1.1435547,0.5517578,1.9658203,1.1835938l19.0224609,14.6103516
			c0.8222656,0.6308594,1.3789063,1.1679688,1.6708984,1.609375c0.2919922,0.4423828,0.3535156,0.9150391,0.1855469,1.4160156
			c-0.1679688,0.5029297-0.5888672,1.1923828-1.2617188,2.0683594c-0.0634766,0.0820313-0.0126953,0.1865234,0.1513672,0.3125
			c0.1650391,0.1269531,0.2783203,0.1484375,0.3417969,0.0664063l13.9472656-18.1601563
			c0.1894531-0.2460938,0.2685547-0.4472656,0.2353516-0.6035156
			C439.2548828,380.7070313,439.1298828,380.5449219,438.9101563,380.3759766z"/>
		<path d="M436.4736328,334.6513672c-1.6103516-0.8701172-2.7060547-1.9130859-3.2851563-3.1289063
			s-0.5410156-2.4316406,0.1162109-3.6474609c0.0322266-0.0605469-0.0419922-0.140625-0.2246094-0.2392578
			s-0.2900391-0.1171875-0.3222656-0.0566406l-1.0634766,2.0761719c-0.5292969,1.1269531-0.9589844,1.9941406-1.2871094,2.6015625
			c-0.3613281,0.6689453-0.8349609,1.4726563-1.4208984,2.4121094l-1.1044922,1.9345703
			c-0.0332031,0.0615234,0.0419922,0.140625,0.2236328,0.2392578c0.1826172,0.0986328,0.2900391,0.1181641,0.3232422,0.0566406
			c0.6396484-1.1855469,1.6123047-1.8564453,2.9150391-2.0166016c1.3027344-0.1591797,2.7744141,0.2041016,4.4160156,1.0898438
			l14.7120361,7.9491577l-26.6964111,5.9502563c-0.3583984,0.0810547-1.0263672,0.1914063-2.0048828,0.3300781
			c-0.5585938,0.0908203-0.9316406,0.1640625-1.1191406,0.2197266c-0.1865234,0.0556641-0.3466797,0.2050781-0.4775391,0.4482422
			c-0.3291016,0.6083984-0.5917969,1.1328125-0.7919922,1.5742188l-1.8261719,3.4882813
			c-0.4101563,0.7597656-0.7373047,1.3300781-0.9814453,1.7080078l-1.0800781,1.8896484
			c-0.0322266,0.0605469,0.0419922,0.1396484,0.2246094,0.2382813s0.2900391,0.1181641,0.3232422,0.0566406
			c0.4267578-0.7900391,1.0732422-1.4414063,1.9394531-1.9550781c0.7883911-0.4671631,1.9817505-0.8883057,3.538147-1.2678833
			l19.258728,10.4055786c1.6113281,0.8701172,2.6777344,1.9472656,3.2011719,3.2304688
			c0.5234375,1.2841797,0.4228516,2.5947266-0.2988281,3.9316406c-0.0498047,0.0908203,0.0175781,0.1855469,0.1992188,0.2841797
			c0.1826172,0.0986328,0.2988281,0.1025391,0.3476563,0.0107422c0.5253906-0.9716797,0.9121094-1.7236328,1.1611328-2.2578125
			l1.4814453-2.8505859l1.375-2.4365234c0.2773438-0.4384766,0.6445313-1.0839844,1.1044922-1.9345703
			c0.0332031-0.0605469-0.0419922-0.140625-0.2246094-0.2392578c-0.1816406-0.0986328-0.2900391-0.1171875-0.3222656-0.0566406
			c-0.640625,1.1845703-1.6123047,1.8583984-2.9150391,2.0166016c-1.3027344,0.1601563-2.7597656-0.1953125-4.3701172-1.0654297
			l-17.7153931-9.5718994l35.8735962-8.2337646c0.0927734-0.0283203,0.1611328-0.1191406,0.2050781-0.2714844
			c0.0439453-0.1533203,0.0205078-0.2548828-0.0712891-0.3037109L436.4736328,334.6513672z"/>
		<path d="M472.2949219,305.5488281c-0.1640625-0.0527344-0.5771484-0.1230469-1.2392578-0.2099609
			c-0.6611328-0.0849609-1.7324219-0.3681641-3.2109375-0.8457031c-1.8740234-0.6044922-3.1777344-1.0605469-3.9121094-1.3710938
			c-0.7353516-0.3095703-1.1855469-0.6279297-1.3525391-0.9541016s-0.1386719-0.7792969,0.0849609-1.3603516
			c0.0527344-0.1640625-0.0380859-0.2753906-0.2734375-0.3330078s-0.375-0.0205078-0.4169922,0.1103516
			c-0.484375,1.8398438-0.9980469,3.5976563-1.5380859,5.2734375c-0.5625,1.7431641-1.3769531,3.984375-2.4423828,6.7246094
			c-0.0214844,0.0654297,0.0009766,0.1367188,0.0673828,0.2119141c0.0664063,0.0761719,0.1484375,0.1298828,0.2470703,0.1611328
			c0.2636719,0.0849609,0.4257813,0.0292969,0.4902344-0.1679688c0.5195313-1.6103516,0.9980469-2.6992188,1.4345703-3.265625
			c0.4375-0.5664063,1.0244141-0.8398438,1.7617188-0.8203125c0.7373047,0.0205078,1.9609375,0.3066406,3.6699219,0.8583984
			c1.6757813,0.5410156,2.8886719,1.1142578,3.6367188,1.7177734c0.7490234,0.6054688,1.1542969,1.3164063,1.2167969,2.1347656
			c0.0625,0.8193359-0.1240234,1.9023438-0.5585938,3.2490234c-0.8388672,2.5966797-2.2646484,4.7128906-4.28125,6.3486328
			c-2.015625,1.6357422-4.4277344,2.6455078-7.2373047,3.0263672c-2.8085938,0.3818359-5.7578125,0.0742188-8.8476563-0.9228516
			c-2.8261719-0.9121094-5.1455078-2.2138672-6.9589844-3.90625c-1.8125-1.6923828-3.0126953-3.59375-3.6015625-5.7080078
			c-0.5878906-2.1132813-0.5429688-4.2216797,0.1367188-6.3251953c0.6572266-2.0380859,1.7119141-3.6748047,3.1640625-4.9130859
			c1.4521484-1.2363281,2.9716797-2.1240234,4.5615234-2.6640625s2.9951172-0.8476563,4.2177734-0.9257813
			c0.1425781,0.0107422,0.2265625-0.0810547,0.2519531-0.2724609c0.0253906-0.1904297-0.0117188-0.3027344-0.1103516-0.3349609
			l-7.0595703-1.5703125c-0.4707031-0.1152344-0.7548828-0.1621094-0.8535156-0.1396484
			c-0.0976563,0.0234375-0.2705078,0.1943359-0.5185547,0.5126953c-0.7021484,0.8261719-1.4316406,1.9882813-2.1875,3.4863281
			c-0.7548828,1.4980469-1.3876953,3.0361328-1.8964844,4.6132813c-1.1777344,3.6484375-1.5566406,7.15625-1.1367188,10.5205078
			c0.4199219,3.3662109,1.5947266,6.2763672,3.5234375,8.7314453c1.9296875,2.4560547,4.4560547,4.1875,7.578125,5.1953125
			c2.9257813,0.9443359,5.8271484,1.0634766,8.703125,0.359375c2.8769531-0.7050781,5.4589844-2.2128906,7.7470703-4.5224609
			s4.0361328-5.3388672,5.2460938-9.0859375c1.0917969-3.3847656,1.8623047-7.3466797,2.3105469-11.8828125
			c0.0087891-0.2509766-0.0087891-0.4199219-0.0537109-0.5078125
			C472.6123047,305.6875,472.4921875,305.6123047,472.2949219,305.5488281z"/>
		<path d="M478.3154297,273.5849609c-2.1845703-0.3339844-4.5830078-0.8759766-7.1933594-1.625
			c-0.0341797-0.0048828-0.0839844,0.0322266-0.1484375,0.1083984c-0.0634766,0.078125-0.1035156,0.1679688-0.1191406,0.2705078
			c-0.0214844,0.1367188,0.0029297,0.2099609,0.0712891,0.2207031c2.171875,1.1005859,3.6816406,2.5371094,4.5283203,4.3085938
			c0.8476563,1.7724609,1.0673828,3.9892578,0.6601563,6.6523438l-0.2587891,1.6894531
			c-0.1259766,0.8193359-0.4550781,1.3808594-0.9912109,1.6826172c-0.5351563,0.3037109-1.2978516,0.3779297-2.2880859,0.2265625
			l-11.5740356-1.7705688l0.642395-4.1991577c0.3085938-2.0136719,0.9462891-3.4980469,1.9130859-4.4501953
			c0.9667969-0.953125,2.1503906-1.3222656,3.5498047-1.1083984c0.0683594,0.0107422,0.1181641-0.0859375,0.1494141-0.2910156
			s0.0136719-0.3125-0.0556641-0.3232422c-0.6826172-0.1044922-1.609375-0.2109375-2.78125-0.3203125l-2.4658203-0.3251953
			l-4.6005859-0.7558594c-0.1025391-0.015625-0.1679688,0.0703125-0.1972656,0.2578125
			c-0.0283203,0.1884766,0.0087891,0.2890625,0.1113281,0.3056641c1.2285156,0.1875,2.1035156,0.8632813,2.6240234,2.0253906
			c0.5214844,1.1630859,0.6298828,2.7353516,0.3271484,4.7148438l-0.6502075,4.2503662l-10.4464722-1.5980225
			c-0.921875-0.1416016-1.5683594-0.484375-1.9394531-1.0302734c-0.3701172-0.5458984-0.4775391-1.3310547-0.3203125-2.3554688
			l0.234375-1.5361328c0.3242188-2.1162109,1.0634766-3.75,2.2177734-4.9013672s2.7636719-1.8486328,4.8271484-2.0917969
			c0.1074219-0.0175781,0.1591797-0.1240234,0.1533203-0.3173828c-0.0048828-0.1923828-0.0419922-0.2949219-0.1103516-0.3046875
			l-6.8271484-0.9404297c-0.3066406-0.046875-0.4863281,0.1015625-0.5390625,0.4423828l-3.3212891,21.7128906
			c-0.015625,0.1025391,0.078125,0.1689453,0.2832031,0.2001953s0.3154297-0.0039063,0.3310547-0.1064453
			c0.1621094-1.0576172,0.3759766-1.8291016,0.6416016-2.3125c0.2666016-0.4833984,0.6513672-0.7734375,1.1552734-0.8710938
			c0.5048828-0.0976563,1.2685547-0.0683594,2.2929688,0.0878906l23.7099609,3.6279297
			c1.0244141,0.15625,1.7714844,0.3583984,2.2392578,0.6044922c0.4697266,0.2470703,0.7509766,0.6308594,0.8466797,1.1513672
			c0.0947266,0.5214844,0.0585938,1.328125-0.1083984,2.4208984c-0.015625,0.1025391,0.078125,0.1689453,0.2832031,0.2001953
			s0.3154297-0.0039063,0.3310547-0.1064453l3.4628906-22.6347656c0.046875-0.3076172,0.0195313-0.5214844-0.0849609-0.6416016
			C478.7773438,273.7080078,478.5888672,273.6269531,478.3154297,273.5849609z"/>
		<path d="M480.7558594,234.5375977c-0.0371094-0.1547852-0.1074219-0.2314453-0.2109375-0.2299805l-26.5214844,0.4301758
			c-1.8291016,0.0292969-3.2949219-0.3432617-4.3955078-1.1206055c-1.1005859-0.7763672-1.6621094-1.8554688-1.6845703-3.2368164
			c-0.0019531-0.0688477-0.1054688-0.1020508-0.3125-0.0986328c-0.2080078,0.003418-0.3105469,0.0400391-0.3095703,0.1088867
			l0.0898438,2.3300781c0.0898438,1.2416992,0.1396484,2.2084961,0.1503906,2.8989258
			c0.0126953,0.7597656-0.0068359,1.6928711-0.0585938,2.7988281l-0.015625,2.2280273
			c0.0009766,0.0698242,0.1054688,0.1020508,0.3125,0.0986328s0.3105469-0.0390625,0.3095703-0.1083984
			c-0.0224609-1.347168,0.4970703-2.4086914,1.5546875-3.1860352c1.0585938-0.7763672,2.5195313-1.1806641,4.3837891-1.2109375
			l16.7212524-0.2711182l-20.3667603,18.2579346c-0.2724609,0.2460938-0.8007813,0.6689453-1.5859375,1.2685547
			c-0.4423828,0.3535156-0.7324219,0.5996094-0.8691406,0.7392578c-0.1347656,0.140625-0.2011719,0.3496094-0.1972656,0.625
			c0.0117188,0.6914063,0.0390625,1.2783203,0.0810547,1.7607422l0.1152344,3.9355469
			c0.0136719,0.8642578,0.0078125,1.5205078-0.0195313,1.9697266l-0.0166016,2.1757813
			c0.0009766,0.0703125,0.1054688,0.1025391,0.3125,0.0986328c0.2070313-0.0029297,0.3095703-0.0390625,0.3085938-0.1083984
			c-0.0146484-0.8974609,0.2304688-1.7822266,0.734375-2.6542969c0.4591064-0.7937012,1.293335-1.7451172,2.4644165-2.8379517
			l21.887146-0.3544312c1.8310547-0.0302734,3.2890625,0.3867188,4.3730469,1.25
			c1.0849609,0.8632813,1.6396484,2.0546875,1.6640625,3.5742188c0.0019531,0.1035156,0.1064453,0.1533203,0.3134766,0.1503906
			c0.2070313-0.0039063,0.3095703-0.0566406,0.3076172-0.1601563c-0.0175781-1.1054688-0.0478516-1.9501953-0.0927734-2.5380859
			l-0.1035156-3.2099609l0.0068359-2.7978516c0.0263672-0.5185547,0.03125-1.2617188,0.015625-2.2285156
			c-0.0009766-0.0693359-0.1054688-0.1015625-0.3125-0.0986328s-0.3105469,0.0400391-0.3095703,0.1083984
			c0.0224609,1.3466797-0.4960938,2.4091797-1.5546875,3.1855469c-1.0576172,0.7773438-2.5019531,1.1806641-4.3320313,1.2109375
			l-20.1339722,0.3258057L480.7099609,234.875C480.7773438,234.8051758,480.7919922,234.6923828,480.7558594,234.5375977z"/>
		<path d="M466.8574219,203.8979492c-1.5341797,0.2480469-2.8310547,0.824707-3.8916016,1.730957
			c-1.0605469,0.9057617-1.9179688,1.9365234-2.5712891,3.0913086c-0.6523438,1.1552734-1.3867188,2.6733398-2.2021484,4.5541992
			c-0.7695313,1.7338867-1.4384766,3.1186523-2.0058594,4.1547852s-1.2763672,1.9472656-2.1298828,2.7319336
			c-0.8515625,0.7856445-1.8925781,1.2763672-3.1201172,1.4750977c-1.5,0.2421875-2.7119141-0.0083008-3.6376953-0.7509766
			c-0.9238281-0.7426758-1.4970703-1.7954102-1.7167969-3.159668c-0.3310547-2.0458984,0.1621094-3.7602539,1.4775391-5.1455078
			c1.3164063-1.3842773,2.9785156-2.6762695,4.9892578-3.8754883l0.9052734-0.5664063
			c0.0966797-0.0498047,0.1054688-0.15625,0.0273438-0.3193359c-0.0791016-0.1616211-0.1689453-0.2348633-0.2714844-0.2182617
			l-7.5185547,1.2143555c-0.2373047,0.0385742-0.4257813,0.121582-0.5625,0.2485352
			c-0.1376953,0.1269531-0.2490234,0.3549805-0.3359375,0.684082c-0.1855469,0.7998047-0.2900391,1.8310547-0.3134766,3.0942383
			s0.0615234,2.4916992,0.2539063,3.6845703c0.2919922,1.8076172,0.8691406,3.480957,1.7294922,5.0209961
			c0.8613281,1.5400391,1.9980469,2.7299805,3.4101563,3.5683594c1.4130859,0.8393555,3.0224609,1.1123047,4.8291016,0.8208008
			c1.4326172-0.2314453,2.625-0.7563477,3.5771484-1.5751953c0.9521484-0.8178711,1.7304688-1.7397461,2.3339844-2.7646484
			c0.6044922-1.0244141,1.3037109-2.440918,2.0957031-4.2480469c0.8212891-1.8466797,1.546875-3.3110352,2.1767578-4.3925781
			c0.6298828-1.0805664,1.453125-2.0454102,2.4707031-2.8916016c1.0185547-0.8466797,2.2773438-1.3916016,3.7773438-1.6337891
			c1.7734375-0.2861328,3.0976563-0.0454102,3.9736328,0.7226563c0.8769531,0.7685547,1.4248047,1.8344727,1.6455078,3.1977539
			c0.2421875,1.5004883-0.0361328,2.9179688-0.8349609,4.2543945c-0.7988281,1.3359375-1.7832031,2.4921875-2.9560547,3.46875
			c-1.1708984,0.9760742-2.7138672,2.144043-4.6289063,3.5029297c-0.1308594,0.0561523-0.1738281,0.1679688-0.1298828,0.3354492
			c0.0458984,0.168457,0.1357422,0.2407227,0.2714844,0.21875l0.0517578-0.0083008l8.1064453-1.4672852
			c0.2734375-0.0439453,0.4619141-0.1181641,0.5673828-0.2226563c0.1064453-0.1040039,0.2138672-0.2524414,0.3222656-0.4458008
			c0.4169922-0.6616211,0.703125-1.871582,0.8564453-3.6279297c0.1533203-1.7568359,0.109375-3.3842773-0.1328125-4.8852539
			c-0.3359375-2.0791016-1.0244141-3.9013672-2.0634766-5.465332c-1.0400391-1.5639648-2.3271484-2.7114258-3.8623047-3.4428711
			S468.6308594,203.6113281,466.8574219,203.8979492z"/>
		<path d="M441.7177734,194.1025391c-0.5273438-0.0341797-0.9609375-0.2739258-1.2978516-0.71875
			c-0.3369141-0.4453125-0.6464844-1.1835938-0.9287109-2.2167969c-0.0273438-0.0996094-0.140625-0.1220703-0.3408203-0.0673828
			s-0.2861328,0.1318359-0.2587891,0.2319336l0.7470703,2.534668c0.4873047,1.5141602,0.8710938,2.7875977,1.1533203,3.8198242
			c0.2558594,0.9331055,0.5605469,2.1748047,0.9121094,3.7250977l0.6894531,2.7119141
			c0.0175781,0.0673828,0.1269531,0.0727539,0.3271484,0.0180664c0.1992188-0.0546875,0.2900391-0.1152344,0.2724609-0.1821289
			c-0.2919922-1.065918-0.4140625-1.8740234-0.3681641-2.4238281s0.2773438-0.9799805,0.6933594-1.2910156
			c0.4169922-0.3105469,1.1240234-0.6030273,2.1240234-0.8764648l23.1347656-6.3330078
			c0.9990234-0.2739258,1.765625-0.3847656,2.2988281-0.3339844c0.5332031,0.0512695,0.9511719,0.3032227,1.2548828,0.7578125
			c0.3037109,0.4536133,0.6005859,1.2143555,0.8925781,2.2797852c0.0185547,0.0673828,0.1269531,0.0727539,0.3271484,0.0180664
			c0.1992188-0.0546875,0.2910156-0.1147461,0.2724609-0.1821289c-0.3105469-1.1318359-0.5732422-2.0268555-0.7890625-2.6845703
			l-1.0615234-3.684082l-0.9902344-3.8110352c-0.1396484-0.6416016-0.3603516-1.5126953-0.6611328-2.6118164
			c-0.0273438-0.1000977-0.140625-0.1225586-0.3408203-0.0678711s-0.2861328,0.1318359-0.2587891,0.2319336
			c0.2919922,1.0664063,0.4208984,1.8637695,0.3867188,2.3916016c-0.0341797,0.5288086-0.2617188,0.9404297-0.6826172,1.234375
			c-0.4208984,0.2949219-1.1474609,0.5825195-2.1806641,0.8652344l-23.0351563,6.3056641
			C443.0107422,194.0175781,442.2470703,194.137207,441.7177734,194.1025391z"/>
		<path d="M432.8251953,176.2978516c0.6699219,1.7041016,1.5888672,3.2158203,2.7578125,4.5380859
			c1.1689453,1.3217773,2.5322266,2.2426758,4.0908203,2.7617188c1.5595703,0.5195313,3.1894531,0.4443359,4.8935547-0.2250977
			c1.3496094-0.5307617,2.4033203-1.2973633,3.1591797-2.2993164c0.7568359-1.0019531,1.3212891-2.0683594,1.6933594-3.1982422
			c0.3730469-1.1293945,0.7539063-2.6621094,1.1435547-4.5961914c0.4111328-1.9790039,0.8076172-3.5644531,1.1933594-4.7548828
			s0.9853516-2.3076172,1.7998047-3.3515625c0.8144531-1.043457,1.9296875-1.8432617,3.34375-2.3994141
			c1.6708984-0.6567383,3.0166016-0.7026367,4.0361328-0.1386719c1.0205078,0.5644531,1.7822266,1.4892578,2.2871094,2.7749023
			c0.5556641,1.4145508,0.5859375,2.8588867,0.0888672,4.3344727c-0.4960938,1.4750977-1.2119141,2.8139648-2.1503906,4.0175781
			c-0.9365234,1.203125-2.1962891,2.6723633-3.7783203,4.4072266c-0.1152344,0.0830078-0.1337891,0.2016602-0.0546875,0.3554688
			c0.0800781,0.1547852,0.1835938,0.206543,0.3115234,0.15625l0.0478516-0.019043l7.609375-3.1577148
			c0.2578125-0.1010742,0.4267578-0.2133789,0.5078125-0.3383789c0.0810547-0.1240234,0.1542969-0.2919922,0.21875-0.503418
			c0.2675781-0.7358398,0.2900391-1.9785156,0.0664063-3.7275391s-0.6132813-3.3305664-1.1689453-4.7451172
			c-0.7705078-1.9604492-1.8300781-3.5947266-3.1787109-4.9018555c-1.3486328-1.3066406-2.8505859-2.1542969-4.5058594-2.5429688
			c-1.6552734-0.3876953-3.3193359-0.2539063-4.9912109,0.402832c-1.4462891,0.5683594-2.5908203,1.4082031-3.4345703,2.519043
			s-1.4619141,2.2998047-1.8544922,3.5673828s-0.7871094,2.9072266-1.1845703,4.918457
			c-0.3828125,1.8579102-0.7412109,3.3530273-1.0751953,4.4863281c-0.3339844,1.1328125-0.8339844,2.1738281-1.5009766,3.1220703
			c-0.6650391,0.9487305-1.578125,1.6499023-2.7353516,2.1044922c-1.4140625,0.5561523-2.6513672,0.5693359-3.7138672,0.0400391
			c-1.0605469-0.5292969-1.8447266-1.4360352-2.3496094-2.722168c-0.7578125-1.9287109-0.640625-3.7089844,0.3496094-5.3417969
			c0.9921875-1.6328125,2.3417969-3.2485352,4.0507813-4.8481445l0.7646484-0.7460938
			c0.0839844-0.0693359,0.0703125-0.175293-0.0410156-0.3173828c-0.1113281-0.1416016-0.2158203-0.1938477-0.3125-0.1557617
			l-7.0878906,2.7851563c-0.2236328,0.0883789-0.390625,0.2094727-0.4970703,0.362793s-0.1669922,0.3994141-0.1826172,0.7392578
			c-0.0117188,0.8212891,0.1064453,1.8510742,0.3515625,3.090332
			C432.0390625,173.9902344,432.3828125,175.1728516,432.8251953,176.2978516z"/>
		<path d="M112.4394531,67.4277344c0.887207-0.5981445,1.5996094-0.9633789,2.1347656-1.0961914
			c0.5361328-0.1318359,1.0102539-0.0454102,1.4238281,0.2587891c0.4135742,0.3046875,0.9101563,0.8857422,1.4892578,1.7451172
			l13.4091797,19.8876953c0.5791016,0.859375,0.9370117,1.5454102,1.0737305,2.0566406
			c0.1367188,0.512207,0.0454102,0.9794922-0.2729492,1.4023438c-0.3183594,0.4233398-0.9365234,0.9438477-1.8525391,1.5615234
			c-0.0859375,0.0576172-0.0708008,0.1723633,0.0449219,0.3442383s0.2167969,0.2290039,0.3027344,0.1708984l18.9858398-12.8007813
			c0.2578125-0.1738281,0.3959961-0.3393555,0.4140625-0.4975586c0.0185547-0.1582031-0.0493164-0.3515625-0.2041016-0.5810547
			c-1.2353516-1.8320313-2.4633789-3.9624023-3.6831055-6.3891602c-0.019043-0.0283203-0.0795898-0.0400391-0.1796875-0.0351563
			c-0.1005859,0.0058594-0.1938477,0.0371094-0.2797852,0.0952148c-0.1147461,0.0771484-0.1523438,0.1445313-0.1137695,0.2016602
			c0.6635742,2.34375,0.6313477,4.4272461-0.0966797,6.2504883c-0.7280273,1.824707-2.2089844,3.4887695-4.4423828,4.9951172
			l-1.4174805,0.9555664c-0.6875,0.4633789-1.3237305,0.6015625-1.9091797,0.4121094
			c-0.5854492-0.1879883-1.1577148-0.6972656-1.7177734-1.5283203l-6.545166-9.7077637l3.5222168-2.3747559
			c1.6894531-1.1391602,3.2124023-1.6757813,4.5678711-1.6118164c1.355957,0.0649414,2.4296875,0.6845703,3.2211914,1.8583984
			c0.0390625,0.0576172,0.144043,0.0283203,0.315918-0.0878906c0.1713867-0.1157227,0.2382813-0.2016602,0.199707-0.2597656
			c-0.3862305-0.5722656-0.9360352-1.3261719-1.6499023-2.2612305l-1.4331055-2.0332031l-2.5634766-3.8945313
			c-0.0581055-0.0859375-0.1660156-0.0756836-0.3232422,0.0302734c-0.1577148,0.1064453-0.2070313,0.2021484-0.1494141,0.2880859
			c0.6953125,1.0307617,0.7915039,2.1323242,0.2905273,3.3032227c-0.5014648,1.171875-1.5834961,2.3168945-3.2441406,3.4365234
			l-3.5651245,2.4038696l-5.90802-8.7627563c-0.5209961-0.7729492-0.7070313-1.4804688-0.5571289-2.1235352
			c0.1499023-0.6420898,0.6547852-1.253418,1.5136719-1.8330078l1.2885742-0.8686523
			c1.7753906-1.1967773,3.4775391-1.7607422,5.1064453-1.6933594c1.6289063,0.0683594,3.2324219,0.7788086,4.8100586,2.1303711
			c0.0864258,0.0668945,0.1992188,0.0327148,0.3374023-0.1025391c0.1376953-0.1337891,0.1879883-0.2304688,0.1494141-0.2880859
			l-3.9379883-5.6547852c-0.1738281-0.2578125-0.4042969-0.2900391-0.6899414-0.097168l-18.2128906,12.2792969
			c-0.0859375,0.0581055-0.0708008,0.1728516,0.0449219,0.3447266S112.3535156,67.4853516,112.4394531,67.4277344z"/>
		<path d="M180.9003906,64.5766602c-1.0615234,0.5014648-2.1235352,0.6791992-3.1865234,0.5317383
			c-1.0629883-0.1469727-2.2578125-0.6137695-3.5839844-1.4008789l-13.8991699-8.6209717l1.5974121-8.1988525
			c0.5576172-2.8608398,1.284668-5.1425781,2.1796875-6.8457031c0.8950195-1.7021484,1.8422852-2.7900391,2.8417969-3.262207
			c0.09375-0.0444336,0.0966797-0.1601563,0.0078125-0.3476563c-0.0883789-0.1875-0.1796875-0.2587891-0.2729492-0.2148438
			l-1.9453125,0.9765625c-0.7827148,0.4467773-1.5014648,0.8242188-2.1572266,1.1337891
			c-1.0620117,0.5019531-2.2324219,1.0170898-3.5107422,1.5444336l-2.3637695,1.0595703
			c-0.0629883,0.0297852-0.0498047,0.1376953,0.0390625,0.3251953c0.0883789,0.1875,0.1635742,0.2666016,0.2265625,0.2368164
			c1.6230469-0.7670898,2.7231445-0.5419922,3.2988281,0.6757813c0.5014648,1.0620117,0.5566406,2.7548828,0.1650391,5.0791016
			l-1.2330933,7.1390381l-10.6668091-6.6160889c-0.5024414-0.3354492-0.8125-0.6279297-0.9306641-0.8779297
			c-0.2509766-0.5307617,0.1542969-1.0473633,1.2163086-1.5488281c0.0620117-0.0292969,0.0493164-0.1381836-0.0390625-0.3251953
			c-0.0883789-0.1875-0.1645508-0.2661133-0.2265625-0.2368164l-2.6479492,1.3081055
			c-1.5942383,0.8305664-2.9379883,1.5029297-4.0307617,2.019043c-0.4375,0.2070313-1.1079102,0.4863281-2.0112305,0.8359375
			l-2.0366211,0.9047852c-0.09375,0.0444336-0.0961914,0.1601563-0.0078125,0.3476563
			c0.0888672,0.1875,0.1796875,0.2587891,0.2734375,0.2148438c0.8740234-0.4130859,1.8383789-0.5151367,2.8920898-0.3066406
			c1.0532227,0.2094727,2.3193359,0.7861328,3.796875,1.7299805l13.020752,8.0977783l-1.7390137,8.7454834
			c-0.5268555,2.847168-1.2495117,5.1171875-2.1674805,6.8115234c-0.918457,1.6943359-1.8623047,2.7705078-2.8295898,3.2275391
			c-0.09375,0.0444336-0.0961914,0.1601563-0.0078125,0.3476563c0.0883789,0.1870117,0.1796875,0.2587891,0.2734375,0.2143555
			c0.9052734-0.4277344,1.5537109-0.7529297,1.9448242-0.9760742l2.1796875-1.0874023l3.4882813-1.5908203
			c0.5454102-0.2192383,1.3334961-0.5727539,2.3642578-1.0595703c0.0620117-0.0292969,0.0493164-0.1381836-0.0395508-0.3251953
			c-0.0883789-0.1875-0.1640625-0.2661133-0.2260742-0.2368164c-1.6240234,0.7670898-2.7236328,0.5419922-3.2988281-0.6762695
			c-0.5014648-1.0610352-0.5493164-2.7387695-0.1430664-5.0317383l1.3234863-7.6645508l11.0915527,6.8979492
			c0.4731445,0.2734375,0.7758789,0.550293,0.9086914,0.8310547c0.2509766,0.5317383-0.1391602,1.0400391-1.1699219,1.5268555
			c-0.0932617,0.0444336-0.0961914,0.1601563-0.0073242,0.3476563c0.0883789,0.1870117,0.1791992,0.2587891,0.2729492,0.2143555
			c1.0615234-0.5014648,1.8818359-0.9077148,2.4604492-1.2197266l3.8188477-1.8618164l2.8325195-1.2807617
			c0.5141602-0.2045898,1.2241211-0.5209961,2.1298828-0.9492188c0.09375-0.0444336,0.0961914-0.1601563,0.0078125-0.3476563
			C181.0854492,64.6040039,180.9941406,64.5322266,180.9003906,64.5766602z"/>
		<path d="M225.2797852,22.7197266c1.0688477-0.0561523,1.8676758-0.0024414,2.3950195,0.1591797
			c0.5273438,0.1630859,0.8984375,0.4804688,1.1137695,0.953125c0.2143555,0.4736328,0.3496094,1.2265625,0.4042969,2.2612305
			l1.2617188,23.953125c0.0546875,1.034668-0.0004883,1.8076172-0.1630859,2.3168945
			c-0.1635742,0.5102539-0.4912109,0.8647461-0.9819336,1.0634766c-0.4912109,0.1992188-1.2885742,0.3271484-2.3916016,0.3852539
			c-0.0698242,0.0039063-0.0981445,0.1088867-0.0874023,0.315918s0.050293,0.3085938,0.1201172,0.3051758l24.418457-1.2866211
			c0.2753906-0.0141602,0.4707031-0.0844727,0.5849609-0.2124023c0.1142578-0.1264648,0.1650391-0.3276367,0.1503906-0.6044922
			c-0.1201172-2.2758789-0.1152344-5.1298828,0.015625-8.5605469c-0.0019531-0.0336914-0.0478516-0.0751953-0.1357422-0.1225586
			c-0.0898438-0.046875-0.1689453-0.0688477-0.2373047-0.0654297c-0.1386719,0.0073242-0.2050781,0.0458984-0.2011719,0.1147461
			c-0.5263672,2.4838867-1.7348633,4.4926758-3.6254883,6.0268555c-1.890625,1.5351563-4.1811523,2.3735352-6.8710938,2.5151367
			l-1.7587891,0.0922852c-0.8974609,0.0473633-1.5478516,0.0126953-1.9511719-0.1044922
			c-0.4042969-0.1166992-0.6855469-0.3701172-0.8442383-0.7597656c-0.1586914-0.3886719-0.2617188-1.0317383-0.309082-1.9291992
			l-1.2480469-23.6938477c-0.0541992-1.034668-0.0092773-1.8066406,0.1376953-2.315918
			c0.1455078-0.5087891,0.4726563-0.8720703,0.9799805-1.0893555c0.5073242-0.2163086,1.2954102-0.3535156,2.3647461-0.409668
			c0.1035156-0.0053711,0.1499023-0.1118164,0.1386719-0.3188477c-0.0107422-0.206543-0.0678711-0.3076172-0.1713867-0.3022461
			l-2.6357422,0.190918c-1.5830078,0.152832-2.8916016,0.2558594-3.9262695,0.3105469s-2.3476563,0.0898438-3.9370117,0.1035156
			l-2.6416016,0.0874023c-0.0693359,0.003418-0.0976563,0.1088867-0.0869141,0.315918
			S225.2104492,22.7236328,225.2797852,22.7197266z"/>
		<path d="M257.6484375,53.5527344l3.8300781,0.1694336l3.9277344,0.2792969
			c0.6533203,0.0727539,1.5488281,0.1416016,2.6865234,0.2070313c0.1035156,0.0063477,0.1611328-0.0942383,0.1738281-0.3012695
			c0.0117188-0.2070313-0.0341797-0.3134766-0.1376953-0.3193359c-1.1035156-0.0639648-1.9003906-0.1958008-2.3896484-0.3974609
			c-0.4902344-0.2011719-0.8076172-0.5478516-0.9521484-1.0410156c-0.1445313-0.4926758-0.1855469-1.2734375-0.1240234-2.3422852
			l1.3789063-23.8427734c0.0595703-1.0341797,0.1894531-1.7963867,0.3916016-2.2866211
			c0.2011719-0.4892578,0.5664063-0.8232422,1.0957031-1.0004883c0.5292969-0.1767578,1.328125-0.234375,2.3974609-0.1728516
			c0.1035156,0.0063477,0.1611328-0.0942383,0.1728516-0.3012695c0.0117188-0.206543-0.0341797-0.3129883-0.1376953-0.3193359
			l-2.640625-0.1005859c-1.5898438-0.0224609-2.9199219-0.0649414-3.9882813-0.1269531
			c-0.9658203-0.0556641-2.2392578-0.1635742-3.8212891-0.324707l-2.7900391-0.2133789
			c-0.0693359-0.0039063-0.109375,0.0976563-0.1210938,0.3046875c-0.0117188,0.206543,0.0166016,0.3120117,0.0859375,0.315918
			c1.1025391,0.0639648,1.9082031,0.2060547,2.4140625,0.425293c0.5058594,0.2197266,0.8398438,0.5761719,1.0019531,1.0698242
			c0.1611328,0.4941406,0.2128906,1.2578125,0.1523438,2.2919922l-1.3837891,23.9462891
			c-0.0605469,1.0341797-0.2001953,1.7963867-0.4179688,2.2851563c-0.21875,0.4892578-0.5917969,0.8046875-1.1181641,0.9467773
			c-0.5273438,0.1430664-1.3427734,0.1821289-2.4462891,0.1181641c-0.0693359-0.0039063-0.109375,0.0976563-0.1210938,0.3041992
			c-0.0117188,0.2070313,0.015625,0.3125,0.0849609,0.3164063
			C256.0244141,53.5107422,256.9570313,53.5478516,257.6484375,53.5527344z"/>
		<path d="M285.3378906,56.8735352c2.2099609,0.3930664,4.2890625,0.3334961,6.2402344-0.1791992
			c1.9501953-0.5126953,3.5625-1.3925781,4.8369141-2.6391602s2.0683594-2.7539063,2.3828125-4.5224609
			c0.3017578-1.7001953,0.0947266-3.2983398-0.6210938-4.793457c-0.7167969-1.4956055-1.8837891-2.7729492-3.5019531-3.8325195
			c-1.0861816-0.7108765-2.3344727-1.2615967-3.7180786-1.6779785c1.6989746-0.3067627,3.1706543-0.8407593,4.3635864-1.6535645
			c1.8154297-1.237793,2.8994141-2.8432617,3.25-4.8154297c0.3808594-2.1425781-0.1787109-3.9257813-1.6796875-5.3500977
			c-1.5009766-1.4248047-3.7988281-2.4121094-6.8925781-2.9619141c-0.5097656-0.0908203-1.1083984-0.1791992-1.7939453-0.2666016
			c-0.6865234-0.0869141-1.203125-0.1430664-1.5478516-0.1699219c-1.0390625-0.0795898-2.0341797-0.2041016-2.9863281-0.3730469
			c-0.9179688-0.1635742-2.1533203-0.4174805-3.7050781-0.7641602l-2.6943359-0.5317383
			c-0.0683594-0.012207-0.1201172,0.0839844-0.15625,0.2875977c-0.0361328,0.2041016-0.0205078,0.3120117,0.0478516,0.3242188
			c1.4619141,0.2602539,2.3896484,0.6621094,2.7851563,1.2055664c0.3935547,0.5439453,0.4638672,1.5297852,0.2099609,2.9580078
			l-4.1992188,23.6157227c-0.1748047,0.9863281-0.4179688,1.706543-0.7255859,2.159668
			c-0.3095703,0.4541016-0.7353516,0.7294922-1.2783203,0.8251953c-0.5429688,0.0966797-1.3085938,0.0566406-2.2939453-0.1186523
			c-0.1025391-0.0180664-0.1708984,0.074707-0.2080078,0.2788086c-0.0361328,0.2041016-0.0029297,0.3149414,0.0986328,0.3334961
			c1.15625,0.2050781,2.0771484,0.3515625,2.7636719,0.4384766l3.7324219,0.6113281
			c0.8496094,0.1508789,1.6201172,0.3061523,2.3115234,0.4633789c0.6904297,0.1582031,1.2714844,0.2958984,1.7421875,0.4150391
			C283.3066406,56.4599609,284.3847656,56.7041016,285.3378906,56.8735352z M286.8710938,25.7592773
			c0.4550781-0.3925781,1.1757813-0.5009766,2.1630859-0.3256836c1.5976563,0.2841797,2.7324219,1.0039063,3.4042969,2.1577148
			c0.6708984,1.1542969,0.8349609,2.7006836,0.4912109,4.6386719c-0.3691406,2.074707-1.1484375,3.6899414-2.3359375,4.8466797
			s-2.6660156,1.578125-4.4335938,1.2636719c-0.6209106-0.1105347-1.3031006-0.2435303-2.0349121-0.3950195l1.7263184-9.7099609
			C286.0751953,26.9780273,286.4150391,26.1518555,286.8710938,25.7592773z M281.6708984,51.7490234l2.1856079-12.2886353
			c0.8253174,0.0768433,1.710144,0.1949463,2.6708374,0.3657837c2.5498047,0.4536133,4.3183594,1.5571289,5.3046875,3.3110352
			c0.9853516,1.7539063,1.2460938,3.9404297,0.7802734,6.5585938c-0.8222656,4.6245117-3.4609375,6.5405273-7.9150391,5.7485352
			c-1.4970703-0.2661133-2.4248047-0.6679688-2.7851563-1.2055664S281.4716797,52.8710938,281.6708984,51.7490234z"/>
		<path d="M303.2529297,60.2827148l3.5820313,1.2138672l3.6943359,1.3637695
			c0.6064453,0.2519531,1.4472656,0.5678711,2.5214844,0.9487305c0.0654297,0.0229492,0.1328125-0.0629883,0.2011719-0.2587891
			c0.0693359-0.1953125,0.0712891-0.3041992,0.0068359-0.3271484c-1.0429688-0.3696289-1.7705078-0.7182617-2.1845703-1.0488281
			c-0.4150391-0.3300781-0.6220703-0.7514648-0.6230469-1.2651367c-0.0019531-0.5131836,0.1767578-1.2744141,0.5341797-2.2841797
			l3.8232422-10.7915039c0.5087891,0.2172852,1.3984375,0.550293,2.6679688,1.0004883
			c0.3812256,0.1349487,0.7670288,0.2390137,1.1537476,0.3365479c1.0874634,5.479126,2.135376,9.8676147,3.1411743,13.1385498
			c1.0546875,3.4335938,1.9570313,5.2827148,2.7060547,5.5483398l8.6923828,3.0791016
			c0.0644531,0.0229492,0.1318359-0.0629883,0.2011719-0.2583008s0.0712891-0.3046875,0.0058594-0.3276367
			c-1.3349609-0.4731445-2.5175781-1.4775391-3.5478516-3.015625c-1.03125-1.5375977-2.0400391-3.7817383-3.0283203-6.7338867
			c-0.9336548-2.7880859-1.9847412-6.5297241-3.1502686-11.1992188c1.8204956-0.272644,3.4770508-0.9135742,4.9539795-1.9570313
			c1.5878906-1.1225586,2.7109375-2.6118164,3.3681641-4.4672852c0.6923828-1.9536133,0.4169922-3.7631836-0.8232422-5.4311523
			c-1.2421875-1.6669922-3.34375-3.0258789-6.3056641-4.0751953c-0.78125-0.2768555-1.4960938-0.5107422-2.1416016-0.7036133
			c-0.6464844-0.1918945-1.1875-0.3466797-1.6220703-0.4648438c-1.2392578-0.3291016-2.4121094-0.6894531-3.5185547-1.081543
			c-0.8789063-0.3115234-2.0566406-0.7646484-3.5302734-1.3608398l-2.5712891-0.965332
			c-0.0654297-0.0234375-0.1318359,0.0629883-0.2011719,0.2583008s-0.0712891,0.3041992-0.0058594,0.3276367
			c1.0087891,0.3569336,1.7255859,0.7128906,2.1513672,1.0639648c0.4248047,0.3525391,0.6367188,0.7851563,0.6386719,1.2983398
			c0.0009766,0.5141602-0.1708984,1.2587891-0.5166016,2.2353516L305.515625,56.6875
			c-0.3457031,0.9765625-0.6923828,1.6694336-1.0380859,2.078125c-0.3466797,0.4086914-0.7851563,0.6103516-1.3144531,0.605957
			c-0.5292969-0.0039063-1.3154297-0.1914063-2.3564453-0.5600586c-0.0976563-0.034668-0.1816406,0.0454102-0.2509766,0.2407227
			c-0.0683594,0.1953125-0.0546875,0.3105469,0.0429688,0.3452148
			C301.7050781,59.7890625,302.5898438,60.0844727,303.2529297,60.2827148z M318.9609375,36.1137695
			c0.4033203-1.1391602,0.9677734-1.8554688,1.6953125-2.1474609c0.7255859-0.2924805,1.7402344-0.2080078,3.0429688,0.253418
			c1.4648438,0.519043,2.4082031,1.4223633,2.8330078,2.7075195c0.4228516,1.2866211,0.1621094,3.2646484-0.7832031,5.9335938
			c-0.8310547,2.34375-1.8486328,3.8979492-3.0537109,4.6616211c-1.2050781,0.7641602-2.7519531,0.8110352-4.6396484,0.1425781
			c-1.1064453-0.3925781-2.0273438-0.7915039-2.7626953-1.1987305L318.9609375,36.1137695z"/>
		<path d="M333.4101563,71.8994141c1.0449219,0.534668,1.8828125,0.9443359,2.5136719,1.2280273l3.4365234,1.699707
			l3.4824219,1.8388672c0.5673828,0.3295898,1.359375,0.7539063,2.3740234,1.2729492
			c0.0927734,0.046875,0.1855469-0.0214844,0.2802734-0.2060547s0.0957031-0.300293,0.0029297-0.3476563
			c-0.984375-0.503418-1.6601563-0.9453125-2.0263672-1.3276367c-0.3671875-0.3813477-0.5185547-0.8266602-0.4511719-1.3364258
			c0.0654297-0.5087891,0.3427734-1.2397461,0.8310547-2.1933594l10.875-21.262207
			c0.4726563-0.9228516,0.8984375-1.5673828,1.28125-1.9345703c0.3808594-0.3671875,0.8496094-0.5253906,1.4052734-0.4736328
			c0.5556641,0.0512695,1.3105469,0.3208008,2.2636719,0.8081055c0.0917969,0.0473633,0.1855469-0.0214844,0.2802734-0.2060547
			c0.09375-0.184082,0.0947266-0.300293,0.0029297-0.347168l-2.3759766-1.1572266
			c-1.4462891-0.6616211-2.6464844-1.2368164-3.5986328-1.7241211c-0.8613281-0.4404297-1.9833984-1.0527344-3.3662109-1.8378906
			l-2.4667969-1.3203125c-0.0615234-0.0317383-0.1396484,0.0449219-0.2333984,0.2294922
			c-0.0947266,0.1845703-0.1113281,0.2924805-0.0498047,0.3242188c0.9833984,0.5029297,1.6630859,0.9580078,2.0380859,1.3623047
			c0.375,0.4052734,0.5361328,0.8662109,0.4853516,1.3828125c-0.0517578,0.5175781-0.3125,1.2368164-0.7841797,2.1591797
			L338.6875,69.8857422c-0.4716797,0.9223633-0.9072266,1.5634766-1.3037109,1.9228516
			c-0.3974609,0.359375-0.8652344,0.4980469-1.4052734,0.4155273c-0.5400391-0.081543-1.3017578-0.375-2.2851563-0.8779297
			c-0.0625-0.0317383-0.1396484,0.0449219-0.234375,0.2294922S333.3476563,71.8676758,333.4101563,71.8994141z"/>
		<path d="M356.2109375,82.03125c-0.4462891-1.4907227-0.6337891-2.9980469-0.5625-4.5219727
			c0.0712891-1.5234375,0.2519531-3.4501953,0.5429688-5.7802734c0.0458984-0.1337891-0.0068359-0.2416992-0.1601563-0.3222656
			c-0.1552734-0.0800781-0.2695313-0.0620117-0.3447266,0.0527344l-0.0283203,0.043457l-4.3925781,6.9697266
			c-0.1523438,0.2314453-0.2246094,0.4208984-0.21875,0.5693359c0.0048828,0.1484375,0.0419922,0.3276367,0.1113281,0.5380859
			c0.2060547,0.7548828,0.9052734,1.7827148,2.0976563,3.0820313c1.1914063,1.2993164,2.421875,2.3662109,3.6923828,3.2006836
			c1.7607422,1.15625,3.5693359,1.8793945,5.4248047,2.168457c1.8554688,0.2895508,3.5712891,0.1147461,5.1474609-0.5234375
			s2.8574219-1.7075195,3.84375-3.2084961c0.8525391-1.2993164,1.3037109-2.6459961,1.3515625-4.0400391
			s-0.1337891-2.7216797-0.5439453-3.9833984c-0.4111328-1.2617188-1.0351563-2.828125-1.8720703-4.7001953
			c-0.7587891-1.7382813-1.3291016-3.1665039-1.7099609-4.284668s-0.5732422-2.2568359-0.5761719-3.4155273
			c-0.0039063-1.1591797,0.3369141-2.2583008,1.0195313-3.2973633c0.8339844-1.2700195,1.8369141-1.9951172,3.0097656-2.1762695
			c1.171875-0.1801758,2.3349609,0.1088867,3.4902344,0.8671875c1.7314453,1.1376953,2.6630859,2.6591797,2.796875,4.5649414
			c0.1318359,1.9052734-0.0380859,4.0039063-0.5107422,6.296875l-0.1933594,1.050293
			c-0.0292969,0.1049805,0.0439453,0.1835938,0.2167969,0.2353516c0.1728516,0.0512695,0.2871094,0.0341797,0.3447266-0.0527344
			l4.1806641-6.3647461c0.1328125-0.2016602,0.1982422-0.3964844,0.1972656-0.5834961
			c-0.0009766-0.1865234-0.09375-0.4228516-0.2773438-0.7094727c-0.4648438-0.6767578-1.1552734-1.449707-2.0712891-2.3208008
			c-0.9160156-0.8696289-1.8789063-1.637207-2.8886719-2.3007813c-1.5302734-1.0053711-3.1542969-1.7094727-4.8710938-2.1147461
			c-1.7177734-0.4047852-3.3632813-0.3701172-4.9355469,0.1054688c-1.5732422,0.4750977-2.8613281,1.4780273-3.8662109,3.0078125
			c-0.7958984,1.2124023-1.2148438,2.4462891-1.2529297,3.7011719c-0.0400391,1.2548828,0.1142578,2.4516602,0.4619141,3.5888672
			c0.3476563,1.1376953,0.9208984,2.609375,1.71875,4.4140625c0.8066406,1.8530273,1.3974609,3.3764648,1.7695313,4.5712891
			c0.3710938,1.1953125,0.5273438,2.4536133,0.4638672,3.7758789c-0.0625,1.3222656-0.5117188,2.6191406-1.3457031,3.8886719
			c-0.9863281,1.5014648-2.0585938,2.3154297-3.2158203,2.4433594c-1.1591797,0.1274414-2.3154297-0.1884766-3.4697266-0.9462891
			C357.5146484,84.6850586,356.6572266,83.5229492,356.2109375,82.03125z"/>
	</g>
	<path d="M249.9999237,8h0.0001526c32.6702423,0,64.3603363,6.3976669,94.189743,19.0153332
		c28.8158569,12.1890011,54.6974182,29.6398335,76.9256897,51.8679962
		c22.2283936,22.2281723,39.6795654,48.1096649,51.8686523,76.9255066C485.6021729,185.638504,492,217.3289948,492,249.9999237
		c0,32.6733246-6.3973389,64.3650665-19.0142517,94.1948395c-12.1882629,28.8162231-29.6384277,54.6975708-51.8659058,76.9250793
		c-22.227417,22.227417-48.1086731,39.6776428-76.9249268,51.8659058C314.3650818,485.6026611,282.6734314,492,250.0000763,492
		s-64.3650818-6.3973389-94.1948242-19.0142517c-28.8162537-12.1882629-54.6975861-29.6384277-76.9250031-51.8659058
		c-22.2275009-22.227417-39.6776657-48.1086731-51.8659134-76.9249268C14.3973331,314.3650818,8,282.6734314,8,250.0000763
		s6.3972502-64.3650818,19.0142498-94.1948242C39.2024994,126.9889984,56.652668,101.107666,78.8800812,78.880249
		s48.1087494-39.6776657,76.9250031-51.8659134C185.6349182,14.3973331,217.3265839,8,250.0000763,8H249.9999237 M249.9999237,0
		C111.9287491,0.0000833-0.0000833,111.9289169,0,250.0000763S111.9289169,500,250.0000763,500S500,388.0710754,500,249.9999237
		S388.0710754-0.0000833,249.9999237,0L249.9999237,0z"/>
</g>
<g id="图层_4">
	<path d="M250,146.0175781c0.9763184,0.1408691,4.9954834,0.8034058,10.2662354,2.7858887
		c-4.9415894,2.7677612-8.6009521,7.3428345-10.2661743,12.668335c-1.6653442-5.3255005-5.3248901-9.9003296-10.2666016-12.6680908
		C245.0064087,146.8203735,249.0266724,146.15802,250,146.0175781z"/>
	<path d="M377,234.4150391V118.9414063l-27-15.5883789l-50,28.8671875L200,74.4853516l-27,15.5883789v57.7353516L73,205.5439453
		v31.1772461l50,28.8666992v115.4707031l27,15.5888672l50-28.8681641l100,57.7353516l27-15.5888672v-57.7353516
		l99.0058594-57.1601563l1-0.578125v-30.9912109L377,234.4150391z M377,239.0411987l44.0057373,25.5606689L377,289.8476563
		V239.0411987z M352,286l-0.000061-4H373v4H352z M373,290v4h-20.9998779l-0.000061-4H373z M351.999939,278l-0.000061-2.5966797
		L347.5023193,278h-42.0050659l6.9282227-4H373v4H351.999939z M322.9989624,314l0.0003662,4h-20.9992065v-4H322.9989624z
		 M302.0001221,310v-4h20.9981689l0.0003662,4H302.0001221z M322.9971313,292.1482544L322.9973145,294h-45.2129517l6.9282227-4
		h42.0053711L322.9971313,292.1482544z M235.6359253,326l-6.6386719-3.8328247L229.2868042,322h42.0057373l-6.9282227,4H235.6359253
		z M257.4360962,330l-6.9282227,4h-1.0155029l-6.9282227-4H257.4360962z M227.000061,318.7042847l0.0006104-24.2485352
		l17.5419312-10.1278076c1.852417,0.0212402,8.8136597,0.4002075,10.6116943,4.9542847l1.8701172,4.7373047l1.8535156-4.7441406
		c0.078186-0.2012939,1.3236084-3.5845337-1.5250244-7.3344727c1.8832397,0.7158203,3.6326294,1.9038696,4.4117432,3.8764648
		l1.8710938,4.7382813l1.8525391-4.7451172c0.100769-0.2594604,2.1408081-5.8013306-5.145874-10.6046143l18.3843384-10.6141968
		c1.8729858,0.022644,8.8027344,0.4113159,10.5964966,4.9541626l1.8701172,4.7373047l1.8535156-4.7441406
		c0.0782471-0.201355,1.3239136-3.5853271-1.5262451-7.3355103c1.883728,0.7164307,3.6337891,1.9051514,4.4129639,3.878479
		l1.8710938,4.7392578l1.8525391-4.7460938c0.100769-0.2593384,2.1393433-5.7984619-5.1387939-10.600769l30.479126-17.5971069
		l20.9995117,12.1240234L227.000061,318.7042847z M233.3012695,217.4335938
		c-2.9743042-12.7137451-7.385437-22.6097412-10.2949829-28.2765503c0.5511475,0.1557617,1.1092529,0.2976074,1.6802368,0.4118042
		c1.4501953,0.2900391,2.8945313,0.4296875,4.3203125,0.4296875c6.8440552,0,13.2002563-3.2336426,17.3048706-8.4761963
		c0.6459961,1.3276978,1.2655029,2.6907349,1.8240356,4.12854L250,190.4501953l1.8642578-4.7993164
		c0.5551758-1.4293213,1.1712646-2.784729,1.8136597-4.1053467c1.4268799,1.8226318,3.138855,3.4347534,5.1209106,4.7562256
		c3.65625,2.4375,7.859375,3.7011719,12.15625,3.7011719c1.4482422,0,2.9072266-0.1435547,4.359375-0.434082
		c7.2322388-1.4464111,12.9231567-6.3100586,15.7421875-12.5722656
		c8.9692993,17.1906738,14.1790161,42.2650757,7.2001953,71.7006836l-73.3930664,42.3740234
		c-0.0108032-0.0054321-0.024292-0.0128174-0.0353394-0.0183716
		C239.4276733,262.8991699,237.5415039,235.5598755,233.3012695,217.4335938z M202.0003052,318v-4h20.9994507v4H202.0003052z
		 M221.2869263,322l-6.9281616,4h-12.3584595v-4H221.2869263z M202.0003052,310v-4h20.9994507v4H202.0003052z M202.0003052,302v-4
		h20.9994507v4H202.0003052z M206.145813,274c0.6814575,1.4251099,1.3665161,2.7561035,2.0507813,4h-6.1962891v-4H206.145813z
		 M202.0003052,270v-4h0.7699585c0.5232544,1.4008789,1.0540161,2.7279663,1.5895386,4H202.0003052z M210.579895,282
		c0.9613647,1.4899902,1.9096069,2.819397,2.8320923,4h-11.4116821v-4H210.579895z M243.4750366,178.6664429
		c-1.0789795,1.4619751-2.3650513,2.7398682-3.8108521,3.8046875l-5.2003784-9.0073242L243.4750366,178.6664429z
		 M236.4647827,170.0004883h1.3513794c1.0280151,0.5802612,1.8278198,1.151062,2.3571167,1.7039185
		c0.2076416,0.2647705,0.4172363,0.5251465,0.6218872,0.7962036L236.4647827,170.0004883z M241.0604248,142l6.9280396-4h0.0109863
		l0.0001221,4H241.0604248z M236.2054443,184.4800415c-1.6389771,0.7183228-3.3890991,1.201355-5.2054443,1.4041138v-10.4202271
		L236.2054443,184.4800415z M231.940918,168.5883789c-0.3251953,1.621582-1.9091797,2.675293-3.5292969,2.3525391
		c-1.6210938-0.324707-2.6767578-1.9077148-2.3525391-3.5292969c0.145752-0.7277832,0.546936-1.3386841,1.0893555-1.7648315
		c1.6549072,0.5527954,3.2671509,1.1228638,4.7736816,1.7000732
		C232.0116577,167.7440186,232.0257568,168.1640625,231.940918,168.5883789z M212.9663086,157.2529297l-0.9638672-0.2675781
		c-5.1181641-1.421875-11.2055664-4.9580078-15.5141602-7.7514648c7.4672852,0.590332,14.0649414,2.0625,14.5068359,2.1625977
		c8.2470703,2.1298828,15.4541016,7.0805664,20.6645508,11.5839844
		C226.2128906,160.9951172,219.5922852,159.090332,212.9663086,157.2529297z M221.5352173,170.0004883l-9.0152588,5.2049561
		c-0.7183228-1.6387939-1.2012939-3.3887939-1.4040527-5.2049561H221.5352173z M211.1265259,166.0004883
		c0.0574341-0.5088501,0.1241455-1.0185547,0.2264404-1.5299072c0.2262573-1.1314087,0.5651245-2.210022,0.9832153-3.2414551
		c0.5679321,0.1575928,1.171875,0.3255005,1.8082275,0.5032959l7.3925171,4.2680664H211.1265259z M223.5361938,173.4638062
		l-5.2026367,9.0112305c-1.4619141-1.0789185-2.7398682-2.3649902-3.8047485-3.8108521L223.5361938,173.4638062z M216.9498291,290
		c1.9716187,1.9502563,3.6968994,3.2138672,4.9890137,4h-19.9385376v-4H216.9498291z M221.7922974,184.4839478L227,175.4639282
		v10.4094849c-0.508667-0.0574341-1.0182495-0.1241455-1.5294189-0.2263794
		C224.178833,185.3886719,222.9523926,184.9899902,221.7922974,184.4839478z M265.5353394,173.4644165l-5.1998901,9.0064697
		c-1.4456177-1.0646973-2.7315063-2.3425293-3.8103638-3.8042603L265.5353394,173.4644165z M259.2211914,172.491333
		c0.2190552-0.2894897,0.4431763-0.5679321,0.6655884-0.8502808c0.5302124-0.5330811,1.3080444-1.0824585,2.296875-1.640564
		h1.3517456L259.2211914,172.491333z M276.4646606,173.4644165l9.0063477,5.1999512
		c-1.0646973,1.4456177-2.3425293,2.7315674-3.8041992,3.8104248L276.4646606,173.4644165z M278.2073364,184.4841309
		c-1.1599731,0.5059814-2.3862915,0.9046021-3.6779175,1.1629028c-0.5111694,0.1022339-1.020752,0.1689453-1.5294189,0.2263794
		v-10.4086304L278.2073364,184.4841309z M278.4645996,170.0004883h10.4194946
		c-0.2027588,1.8162231-0.68573,3.5662842-1.4041138,5.2052002L278.4645996,170.0004883z M278.4628906,166.0004883
		l7.3919678-4.2678833c0.6366577-0.1779785,1.2408447-0.3458252,1.80896-0.503479
		c0.4180908,1.0314941,0.756958,2.1100464,0.9832153,3.2414551c0.1022949,0.5113525,0.1690063,1.0210571,0.2264404,1.5299072
		H278.4628906z M287.9980469,156.9853516l-0.9658203,0.2680664c-6.625,1.8374023-13.2460938,3.7421875-18.6914063,5.7270508
		c5.2099609-4.503418,12.4179688-9.4541016,20.6650391-11.5839844c0.4404297-0.1000977,7.0332031-1.5742188,14.5097656-2.1635742
		C299.2089844,152.0258789,293.1230469,155.5620117,287.9980469,156.9853516z M272.840332,165.6506348
		c0.5449829,0.4265137,0.9547119,1.0314941,1.1010742,1.7609863c0.3242188,1.621582-0.7314453,3.2045898-2.3535156,3.5292969
		c-1.6191406,0.3232422-3.2041016-0.730957-3.5292969-2.3525391c-0.0845947-0.4243164-0.0703125-0.8443604,0.0192871-1.2415161
		C269.5810547,166.7709351,271.1893921,166.2022705,272.840332,165.6506348z M269,175.4647827v10.4193726
		c-1.8162231-0.2026978-3.5662231-0.6856689-5.2050781-1.4039307L269,175.4647827z M372.9998779,138v4h-31.9386597l6.9282227-4
		H372.9998779z M354.9176025,134l6.9282227-4h11.1540527v4H354.9176025z M372.9998779,146v4H327.204834l6.9282227-4H372.9998779z
		 M372.9998169,154v4h-59.6513672l6.9282227-4H372.9998169z M347.0665894,254l4.9337769-2.8485107V250h20.9995728v4H347.0665894z
		 M372.999939,258v4H333.210144l6.9282227-4H372.999939z M352.0003662,246l-0.000061-4h20.9996338v4H352.0003662z M352.0002441,226
		h20.9995117v4h-20.9994507L352.0002441,226z M352.0002441,222v-4h20.9995117v4H352.0002441z M352.0002441,214l-0.000061-4
		h20.9995728v4H352.0002441z M352.0001831,206v-4h20.9996338v4H352.0001831z M352.0001831,198l-0.000061-4h20.9996948v4H352.0001831
		z M352.0001221,190v-4h20.9996948v4H352.0001221z M352.000061,182v-4h20.9997559v4H352.000061z M352.000061,174v-4h20.9997559v4
		H352.000061z M352,166v-4h20.9998169v4H352z M348.4204712,162l-6.9282227,4h-42.0001221l6.9281616-4H348.4204712z M334.5640259,170
		l-6.9282837,4h-33.6599121c-0.4355469-0.7969971-0.8696289-1.569397-1.2984619-2.3002319
		c0.0963135-0.5604858,0.1613159-1.1289673,0.2141724-1.6997681H334.5640259z M306.8510742,186l-6.1752319,3.5652466
		c-0.4003296-1.2247925-0.8148804-2.4138794-1.2426147-3.5652466H306.8510742z M297.8422241,182
		c-0.5934448-1.3968506-1.1989136-2.7320557-1.810791-4h24.6760864l-6.9282227,4H297.8422241z M304.000061,192.2650146
		L323,181.2953491v21.9393921L304.000061,192.2650146z M323,207.8533325v24.2520142l-17.40979-10.0515747
		c0.0719604-9.776123-1.1494141-18.4603271-3.0465698-26.0109253L323,207.8533325z M291.6408081,286l6.9282227-4h42.005188
		l-6.9281006,4H291.6408081z M327,296.7653809l19.000061,10.9702759L327,318.7050781V296.7653809z M319.3536987,270l6.9282227-4
		h46.7180176L373,270H319.3536987z M372.999939,238h-20.9996338v-4h20.9994507v2.7207642l0.0001831,0.0001221V238z M372.9998779,126
		h-4.2258911l4.2258911-2.4398193V126z M153.2358398,390h-1.3820801l0.0109863-4h8.3413696L153.2358398,390z M167.1763916,382
		h-15.3006592l0.0109863-4h22.2600098L167.1763916,382z M181.1170044,374h-29.2192993l0.0109863-4h36.1786499L181.1170044,374z
		 M195.0576172,366h-43.1379395l0.0109863-4h38.059082l6.0008545,3.4645996L195.0576172,366z M165.2820435,290L171,293.3012695
		L169.7896729,294h-17.7901611l0.000061-4H165.2820435z M151.9995728,286l0.000061-3.6685791L158.3538208,286H151.9995728z
		 M173,296.7653809v21.9396973l-19.000061-10.9694214L173,296.7653809z M162.861084,298l-6.9285889,4h-3.9330444l0.000061-4
		H162.861084z M155.3486328,342h-3.3630371l0.0053101-1.9385986L155.3486328,342z M162.2768555,346l6.9282227,4H151.963623
		l0.0109863-4H162.2768555z M176.1333008,354l6.9282227,4h-31.119873l0.0109863-4H176.1333008z M141.6481323,214l-6.9281616-4
		h30.562439l-6.9282227,4H141.6481323z M151.4260254,218l-1.4248657,0.8226318L148.5762939,218H151.4260254z M179.138855,202
		l-6.9282227,4h-42.0009155l6.9281616-4H179.138855z M144.06604,198l6.9282227-4h42.0009766l-6.9281616,4H144.06604z
		 M173,210.1628418v21.9395752l-19.0003662-10.9699707L173,210.1628418z M197.9997559,190h-40.0773315l6.9282227-4h33.1491089V190z
		 M171.7788086,182l6.9281616-4h19.2927246l0.000061,4H171.7788086z M185.6351929,174l6.9281616-4h5.4363403v4H185.6351929z
		 M199.9970703,161.0893555L121,206.6987305l52,30.0222778v24.2487183l-94-54.270874l98-56.5802002v-0.0001831l52-30.0222778
		l-50-28.8675537l21-12.1241455l100,57.7348633l50-28.8671875l21,12.1241455l-78.1954956,45.1459351
		c-0.0654907-0.5178833-0.1322021-1.0359497-0.236145-1.5557251c-0.2509155-1.2555542-0.6237183-2.4638672-1.0809937-3.6312256
		c9.2044067-3.3535767,19.5046387-11.1040649,19.9755249-11.4605713l0.0231323-0.0175781
		c1.5074463-1.1413574,0.7229614-3.5441284-1.1675415-3.5761719l-0.0284424-0.0004883
		c-9.2220459-0.1757202-19.0346069,1.8096313-21.5849609,2.364563c-1.9707642-0.762146-8.5175781-3.0144043-20.0023804-4.3458252
		L250,132.2202148l-18.7041626,10.7991943c-11.4859009,1.3317261-18.0322266,3.5844727-20.0015259,4.3461304
		c-2.5567627-0.5536499-12.4033813-2.536499-21.583374-2.3650513l-0.0294189,0.0004883
		c-1.8905029,0.0320435-2.6749878,2.4348145-1.1675415,3.5762329l0.0231323,0.0175171
		c0.4711914,0.3563843,10.7643433,8.1018677,19.9666748,11.4572144c-0.4514771,1.1616211-0.8200073,2.3712158-1.0726318,3.6345825
		c-0.104126,0.5206299-0.1710205,1.0396118-0.2365112,1.5583496L199.9970703,161.0893555z M202.0003052,330h5.4302979
		l-5.4302979,3.1351929V330z M272.9990234,376.4394531l-68.9990845-39.8365479l21.0005493-12.1246948l47.9985352,27.7120361
		V376.4394531z M272.9990234,347.5708008l-18.9989624-10.9685059l18.9989624-10.9689331V347.5708008z M278.2207642,318h-42.0057373
		l6.9282227-4h42.0057373L278.2207642,318z M292.0771484,310h-42.0056763l6.9282227-4h42.0056763L292.0771484,310z M263.9279175,302
		l6.9282227-4h52.1414795l0.0003662,4H263.9279175z M301.999939,419.7409058V418h3.0152588L301.999939,419.7409058z
		 M311.9432983,414h-9.9433594v-4h16.87146L311.9432983,414z M322.9997559,406H301.999939v-4h20.9998169V406z M322.9998169,398H302
		v-4h20.9998169V398z M322.9998169,390H302v-4h20.9998169V390z M322.9998779,382H302v-4h20.9998779V382z M322.9998779,374H302v-4
		h20.999939L322.9998779,374z M322.999939,366H302l0.000061-4h20.9998779V366z M322.999939,358H302.000061v-4H323L322.999939,358z
		 M323,349.8815918V350h-20.999939v-4h27.7230225L323,349.8815918z M336.6512451,342H302.000061v-4h41.5794067L336.6512451,342z
		 M350.5076294,334H302.000061v-4h55.43573L350.5076294,334z M364.3639526,326H302.000061l0.000061-4h20.9995117
		l0.0003052,3.6317139L329.2908325,322h42.0013428L364.3639526,326z M378.2203369,318h-42.0006714l6.928833-4h42L378.2203369,318z
		 M392.0766602,310h-41.9992676l1.9229126-1.1101074L352.0002441,306h47.0046387L392.0766602,310z M405.9330444,302h-53.9328003
		l-0.000061-4h60.8610229L405.9330444,302z M422.9998779,292.1464233L419.7894287,294h-41.9997559l6.9282227-4h38.2819824
		V292.1464233z M422.999939,286h-31.3538208l6.9282227-4h24.4255981V286z M423,278h-17.4974365l6.9282227-4H423V278z
		 M423.000061,270h-3.6410522l3.6410522-2.1021729V270z"/>
</g>
</svg>
