<?xml version="1.0" encoding="utf-8"?>
<!-- Generator: Adobe Illustrator 24.0.1, SVG Export Plug-In . SVG Version: 6.00 Build 0)  -->
<svg version="1.1" id="图层_2" xmlns="http://www.w3.org/2000/svg" xmlns:xlink="http://www.w3.org/1999/xlink" x="0px" y="0px"
	 viewBox="0 0 300 300" style="enable-background:new 0 0 300 300;" xml:space="preserve">
<style type="text/css">
	.st0{fill:#006B7F;}
</style>
<g>
	<path class="st0" d="M175.270752,74.9031982c0.5286865-10.8984985,3.8425293-23.5814209,7.8812866-35.3790894
		c1.7769775,0.0812988,3.5575562,0.0521851,5.34375-0.0820313c4.3171387-0.34375,8.6003418-1.4135742,12.5679321-3.2299805
		c3.9596558-1.8269043,7.5845947-4.4001465,10.6218262-7.5210571c1.5570679-1.5297241,2.8933105-3.2524414,4.1920776-4.991333
		l1.7929077-2.6800537c0.5470581-0.8588867,1.1398315-1.6860962,1.7570801-2.4924316
		c2.4743652-3.2218628,5.512207-5.9864502,8.9514771-8.1079712c3.4379883-2.1257324,7.2683716-3.5911255,11.2329712-4.4060669
		c7.9516602-1.6159058,16.3709717-0.6314087,23.9121094,2.3676758c3.7750244,1.5004883,7.3475342,3.5064697,10.5515137,5.9750977
		c0.171936,0.1326904,0.3394775,0.2720947,0.5097046,0.4074707c0.8848267-0.8640137,1.7642822-1.6865234,2.6375122-2.4802856
		c-0.3283691-0.2602539-0.6569824-0.5201416-0.9916992-0.7722168c-3.513855-2.6299438-7.3948975-4.7363892-11.4759521-6.2938843
		c-8.1507568-3.1082153-17.1884766-4.0484619-25.774231-2.18396c-4.2786865,0.9401855-8.4214478,2.5899658-12.1272583,4.9529419
		c-3.7077637,2.3571777-6.961853,5.40802-9.574585,8.9100342c-0.6519775,0.8762207-1.2753906,1.7732544-1.8485107,2.7002563
		l-1.6868896,2.5999756c-1.2008667,1.6506958-2.432373,3.2905273-3.8687134,4.7374268
		c-2.8007202,2.9586792-6.1361694,5.3935547-9.8065796,7.1509399c-3.6778564,1.744812-7.6813965,2.8095703-11.7625122,3.1913452
		c-1.461731,0.1352539-2.9465942,0.1906128-4.4301758,0.1658936C191.02771,17.1470947,200,0,200,0h-23.3009644
		c-5.2799072,18.5617676-11.4204102,53.4091797-13.914917,68.1416016
		C168.2281494,69.8673706,172.3543701,72.4921875,175.270752,74.9031982z"/>
	<path class="st0" d="M199.8467407,275.1313477c-3.678833-5.7810059,7.5913696-10.9788818,2.0731201-22.6723022
		c-2.6832886-5.6859741-5.5408936-9.3543091-7.7741699-11.6350708c-0.2959595,3.0864868-1.1035156,9.7224121-2.9620361,15.5067139
		c1.2144775,1.2744141,1.9741821,2.6134033,1.4421387,3.7226563c-1.5827637,3.3001099-3.774231,13.1655884,2.2695923,17.5014038
		c6.0437622,4.3357544,16.9905396,8.8809204,16.9905396,8.8809204l2.1700439-1.0250854
		C214.0559692,285.4105835,203.5255737,280.9124146,199.8467407,275.1313477z"/>
	<path class="st0" d="M200.493103,291.1315918l2.3495483-0.8779907c0,0,0.2565918-2.1586304,0.8540039-5.3590088
		c-0.8731079-0.4292603-1.7776489-0.8860474-2.6899414-1.3639526
		C200.4954224,287.2344971,200.2752686,290.0478516,200.493103,291.1315918z"/>
	<path class="st0" d="M215.1110229,231.685791c-0.4393921,4.4254761-1.6102905,12.371582-4.4906006,15.06604
		c-2.4850464,2.324707-6.0512085,16.6057129-8.2450562,28.442749c0.7990112,0.9597168,1.7919922,1.8773193,2.8690796,2.7304077
		c1.609314-6.1868896,4.1300049-13.1821289,7.8723145-17.1148071c2.9729614-3.1241455,6.0187988-7.022644,8.6127319-11.085022
		c0.2398682-2.2374878,0.5733032-4.1610107,0.8486328-5.7446899c0.2333984-1.34375,0.4355469-2.5039063,0.4921875-3.3466797
		c0.2109375-3.1630859-1.5380859-7.6318359-2.7373047-10.1640625
		C218.5124512,230.866394,216.776123,231.2727661,215.1110229,231.685791z"/>
	<path class="st0" d="M243.8203125,182.9160156c0.7299805,0,1.4442139-0.0127563,2.1471558-0.0343628
		c-0.3868408-9.3624878-1.3795776-16.918396-2.3324585-19.8962402c0,0,0.3504028-2.1022339,11.5620728-8.4088135L252.7445068,150
		c0,0-11.5610962,0-19.7600098,5.4406738c0,0,0.1253662,12.6850586-2.0728149,26.4971924
		C234.517334,182.4512939,239.0797119,182.9160156,243.8203125,182.9160156z"/>
	<path class="st0" d="M245.6210327,204.8348389c-8.1494751-1.6856689-14.8651733-5.2250366-18.3456421-7.3355713
		c-1.7432251,5.2579346-4.0161743,9.986084-6.984436,13.4169922c-2.2736206,0.6398926-4.7522583,1.2709351-7.4588013,1.8752441
		c-13.8481445,3.092041-21.4655762,7.0378418-27.0724487,12.1897583c-0.0412598,0.0113525-0.0828247,0.0123901-0.1240234,0.0251465
		c-0.0145264,0.0044556-0.0289917,0.0090332-0.043457,0.0136719l-0.1395874,0.0457764
		c-0.0825806,0.0270996-0.463501,0.1338501-0.7306519,0.1913452c-0.2988281,0.0668335-0.6021729,0.1262817-0.9134521,0.1704102
		c-0.618103,0.1012573-1.2418823,0.1427612-1.8568115,0.1633911c-1.2293701,0.022644-2.402771-0.1434326-3.4520874-0.4891357
		c-1.0460205-0.3545532-2.0099487-0.8302612-2.8064575-1.5828247l-0.3178101-0.2560425l-0.2766113-0.3178711l-0.5700684-0.6229858
		l-0.493103-0.7363892c-0.1707153-0.2392578-0.3464966-0.4765015-0.4750977-0.7790527
		c-1.2869263-2.2719727-1.7489624-4.5605469-1.3337402-6.531189c0.0512085-0.2496338,0.1717529-0.4797363,0.2416992-0.7246704
		c0.0715942-0.2446899,0.1450195-0.4916382,0.2994995-0.7127686c0.1297607-0.229187,0.2525635-0.461731,0.369873-0.699707
		l0.5061035-0.6554565l0.2462769-0.3356323c0.0973511-0.1043701,0.2104492-0.2005615,0.3135376-0.3025513l0.6221313-0.6160889
		c0.2317505-0.1903076,0.489502-0.3630371,0.7296753-0.5501709c0.2460938-0.1821899,0.4725342-0.3850708,0.763916-0.5281372
		c2.1511841-1.3256836,4.8079224-2.1628418,7.5534668-2.4848022c0.6798096-0.1275635,1.3877563-0.0905762,2.0806885-0.151123
		c0.3585815-0.0357056,0.6799927-0.0123901,0.9995117,0.0106201l0.9682617,0.0481567
		c0.6477661,0.0420532,1.3037109,0.2131348,1.9587402,0.3011475c0.6560669,0.1486816,1.3132324,0.3651733,1.9736328,0.5358276
		c2.6378174,0.8615112,5.2489624,2.2701416,7.7752686,3.9154053c1.0297241,0.671814,2.0452881,1.3912354,3.0541382,2.1324463
		c2.4467163-0.795105,5.1369629-1.5390625,8.1054077-2.2401123c-2.3355713-1.9567871-4.7538452-3.8695679-7.3613281-5.633667
		c-2.817627-1.8950195-5.8634033-3.6453857-9.3173218-4.8463135c-0.8849487-0.2601929-1.7549438-0.5514526-2.6590576-0.7704468
		c-0.9285889-0.163147-1.8383179-0.3911743-2.7888794-0.4788208c-0.9414063-0.0497437-1.9449463-0.1866455-2.8392334-0.1359863
		c-0.9069214,0.0514526-1.8148804,0.0131226-2.7218018,0.1515503c-3.6228027,0.3735962-7.2689209,1.3811035-10.6276245,3.3684082
		c-0.8432617,0.4762573-1.6325684,1.1143799-2.4281006,1.7047729l-1.118042,1.0477295
		c-0.1834717,0.1785278-0.3718262,0.3492432-0.548645,0.536499l-0.4967041,0.6115723
		c-0.3265991,0.4125366-0.6591797,0.8189087-0.96698,1.2474976l-0.803894,1.4024048
		c-0.2838135,0.458252-0.4816284,0.9664307-0.6633911,1.4849854c-0.1791992,0.5163574-0.3933105,1.0251465-0.5209351,1.5551758
		c-0.187561,1.0722046-0.4641113,2.1599731-0.4066772,3.2338867c0.0012817,0.5373535-0.0108643,1.0825195,0.0227051,1.6130371
		l0.2454834,1.5490723c0.3619995,2.0595093,1.133606,3.9050903,2.0183716,5.6057129
		c1.7159424,3.4962158,5.1652832,6.762085,9.1838989,8.0651245c0.8798828,0.3054199,1.7722168,0.5210571,2.664978,0.6796875
		c-0.0649414,0.0892944-0.1299438,0.1769409-0.1948853,0.2667847c-6.9241943,9.5743408,2.8095703,14.2971191-2.263916,24.9562378
		c-5.0734253,10.6591187-8.0274048,40.4558716-8.0274048,40.4558716l3.8800659-0.5284424
		c0.9397583-22.9901733,12.0198975-31.0366211,15.7105103-38.7409668
		c3.6906738-7.7044067,4.5368652-20.6636963,4.5368652-20.6636963c4.8560181-4.7982178,18.0768433-8.4390259,29.1264648-10.7641602
		c0.0001221,0.0002441,3.992981,7.3195801,3.6425781,12.5750122c-0.3503418,5.2554932-5.1040649,17.8685913,3.2290039,36.7883301
		l2.6079102-1.6915894c0,0-7.2383423-20.7318115,5.7251587-38.250061
		C242.0175171,230.3296509,244.6196899,217.7163086,245.6210327,204.8348389z"/>
	<path class="st0" d="M242.3430786,60.7955933v-8.9342651c-20.4963379,1.5765991-26.8029175,8.9342651-26.8029175,8.9342651
		c2.1795044,25.06427,1.4047241,45.3919067-0.5418091,61.2670288c1.6904297,0.1880493,3.2971802,0.2601318,4.729187,0.2601318
		c0.8881836,0,1.7993164-0.0258789,2.6811523-0.0751953c2.6800537-0.1863403,5.2160034-0.7250366,7.5749512-1.600769
		c0.7770386-28.0297852-1.8303833-52.4935303-1.8303833-52.4935303
		C228.1532593,62.8977661,242.3430786,60.7955933,242.3430786,60.7955933z"/>
	<path class="st0" d="M220.7348633,133.3359375c-0.4248047,0-0.8457031-0.0078125-1.2172852-0.0234375
		c-1.0229492-0.0209961-2.2402344-0.0585938-3.4736328-0.1748047c-0.8829956-0.0653687-1.7667236-0.1652832-2.6488037-0.2821045
		c-3.9797974,22.6500244-9.9718018,33.3560791-9.9718018,33.3560791s-22.5693359,8.6277466-30.9780884,1.2700806
		S150,160.6495972,150,160.6495972s-14.036499-0.5255127-22.4452515,6.8321533s-30.9780884-1.2700806-30.9780884-1.2700806
		s-5.9920044-10.7060547-9.9718018-33.3560791c-0.8820801,0.1168213-1.7658081,0.2167358-2.6488037,0.2821045
		c-1.2333984,0.1162109-2.4506836,0.1538086-3.4736328,0.1748047c-0.371582,0.015625-0.7924805,0.0234375-1.2172852,0.0234375
		c-0.7783203,0-1.5708008-0.0253906-2.3496094-0.0644531c-2.1541138-0.1078491-4.2877808-0.40448-6.3666992-0.8584595
		c1.2005615,18.8015137,4.2180786,37.8966675,10.7577515,51.3606567c0,0,19.2897949,11.3060913,39.6138306,5.0835571
		l-0.000061,0.000061c0,0,8.4419556,14.7848511,21.4684448,19.3707886c-1.776123,2.5631714-3.1625366,6.326416-3.1625366,11.8521729
		C139.2262573,235.4963379,150,262.1240845,150,262.1240845s10.7737427-26.6277466,10.7737427-42.0438232
		c0-5.5257568-1.3864136-9.2890015-3.1625366-11.8521729c13.0264893-4.5859375,21.4684448-19.3707886,21.4684448-19.3707886
		l-0.000061-0.000061c20.3240356,6.2225342,39.6138306-5.0835571,39.6138306-5.0835571
		c6.5396729-13.4639893,9.5571899-32.5591431,10.7577515-51.3606567c-2.0789185,0.4539795-4.2125854,0.7506104-6.3666992,0.8584595
		C222.3056641,133.3105469,221.5131836,133.3359375,220.7348633,133.3359375z M150,190.7280273
		c0,0-11.6888428-0.9257202-17.0281372-7.8505859c1.1826782-0.8444824,2.3563232-1.7698975,3.5172119-2.7825928
		c0,0,5.4744263-4.7299194,13.5109253-4.7299194s13.5109253,4.7299194,13.5109253,4.7299194
		c1.1608887,1.0126953,2.3345337,1.9381104,3.5172119,2.7825928C161.6888428,189.8023071,150,190.7280273,150,190.7280273z"/>
	<path class="st0" d="M190.8376465,121.7319336c-3.5124512,15.4981079-7.9106445,22.932312-7.9106445,22.932312
		s-4.9926758,3.1532593-13.4014282-1.5766602C161.1167603,138.357666,150,138.8831787,150,138.8831787
		s-11.1167603-0.5255127-19.5255737,4.2044067c-8.4087524,4.7299194-13.4014282,1.5766602-13.4014282,1.5766602
		s-4.3981934-7.4342041-7.9106445-22.932312c-1.4375,1.5958862-3.0098877,3.0476074-4.7062988,4.3017578
		c-2.9490967,2.1739502-6.3983765,3.9066772-10.1115112,5.1073608c1.5755615,9.8829346,4.0330811,18.7846069,7.7503662,25.3479614
		c0,0,15.7664185,11.5620728,37.5765991-3.4160156c0,0,5.9416504-1.3139038,10.3284912-1.3139038
		s10.3284912,1.3139038,10.3284912,1.3139038c21.8101807,14.9780884,37.5765991,3.4160156,37.5765991,3.4160156
		c3.7172852-6.5633545,6.1748047-15.4650269,7.7503662-25.3479614c-3.7131348-1.2006836-7.1624146-2.9334106-10.1115112-5.1073608
		C193.8475342,124.779541,192.2751465,123.3278198,190.8376465,121.7319336z"/>
	<path class="st0" d="M195.1640625,109.7485352c1.6899414,3.1401367,3.9291992,5.7250977,6.6586914,7.6845703
		c1.6287842,1.1733398,3.3949585,2.0707397,5.2034912,2.7631226c3.1345825-32.9661255-1.237915-70.9188843-1.237915-70.9188843
		l-12.6642456-1.5765991c2.8609619,24.1271362,2.2952881,43.4891968,0.4223022,58.3972168
		C194.0244141,107.3793945,194.5495605,108.6129761,195.1640625,109.7485352z"/>
	<path class="st0" d="M222.3463135,54.2349854c-0.4055176-0.0412598-0.810791-0.0857544-1.2182007-0.105957
		c-4.3250122-0.2560425-8.6342773,0.4471436-12.6785889,1.8947144c0.1448364,1.6709595,0.3017578,3.5977173,0.4603271,5.7521362
		c0.2429199-0.1063232,0.4836426-0.2175903,0.7296753-0.3168945c1.2453003-0.505127,2.53302-0.9182129,3.8425903-1.2410889
		l-0.0075073-0.0860596l0.546875-0.6381836C214.1813354,59.307312,216.479187,56.7207031,222.3463135,54.2349854z"/>
	<path class="st0" d="M211.7810059,201.829895l6.5216064,3.1020508c0,0,1.4570923-5.5359497,7.5795288-10.7197876
		c0,0,21.6088867,15.6594849,41.7512207,6.9129639c-0.2280273-1.1141357-0.4761353-2.2576904-0.7676392-3.4708252
		c-0.6591797-2.7724609-1.4550781-5.75-2.434082-9.1103516c-0.5102539-1.7714844-1.0371094-3.5439453-1.565918-5.3222656
		c-0.1761475-0.5922852-0.3535156-1.1937866-0.5306396-1.7914429c-0.7319946,0.3950806-1.4946899,0.7526855-2.3010864,1.0527344
		c-14.6258545,5.4421997-37.0385742,0.0552368-37.0385742,0.0552368S214.5688477,191.6258545,211.7810059,201.829895z"/>
	<path class="st0" d="M259.1057739,79.9111328c-2.2738037-0.0617676-4.50354-0.4248047-6.6296997-1.1137695
		c-0.9549561-0.3077393-1.866272-0.6794434-2.755188-1.0787354c-0.3789673,8.005188-0.2151489,14.9311523,0.350647,21.0106201
		c-0.0402222,0.1399536-0.0699463,0.2816162-0.1115112,0.4212036c-0.5558472,1.8744507-1.2186279,3.7197266-1.9902344,5.5061035
		c-1.5422974,3.5718994-3.5153809,6.9237671-5.9614258,9.7989502c-2.43927,2.878418-5.3608398,5.2608643-8.6706543,6.9147949
		c-3.3060303,1.6592407-6.9798584,2.6071167-10.7904053,2.8723755c-7.7512817,0.4365234-15.8803711-0.8553467-21.8933105-5.1864014
		c-3.0028687-2.1561279-5.4573975-5.0264282-7.2510986-8.3599854c-1.802063-3.3309937-2.9648438-7.0855713-3.6171265-10.9666138
		c-0.3264771-1.9421997-0.5269165-3.9194946-0.6162109-5.9091797c-0.0969849-2.0443115-0.0658569-3.8499756,0.2035522-5.7558594
		c0.5229492-3.77771,1.8028564-7.517334,3.6220703-10.9666748c0.0270386-0.0511475,0.0568237-0.1008911,0.0841064-0.1519165
		c-0.0391235-3.2299194-0.1484375-6.5101929-0.3170166-9.8314819c-1.8917236,2.2230225-3.5519409,4.6370239-4.9530029,7.1972046
		c-2.1656494,3.9729004-3.7374268,8.303772-4.4423218,12.8740234c-0.3639526,2.2658081-0.4324341,4.6928101-0.3567505,6.8591919
		c0.0655518,2.2228394,0.2553101,4.4509888,0.5935059,6.671936c0.6773682,4.4345093,1.9477539,8.8726807,4.0960083,13.0014648
		c2.1298828,4.1233521,5.217041,7.8861694,9.0333862,10.7069702c3.8197021,2.8157349,8.2421875,4.6760254,12.7130127,5.6914673
		c2.2379761,0.5184937,4.4968872,0.8599243,6.7451172,1.0262451c1.1264648,0.105957,2.2474976,0.1472168,3.3674316,0.1698608
		c1.1082764,0.0457153,2.2820435,0.0181274,3.4260254-0.0391846c4.600769-0.2302856,9.2793579-1.3120117,13.5539551-3.3610229
		c4.2822876-2.0355225,8.0767822-5.0306396,11.1491699-8.5247192c1.7970581-2.0346069,3.3582764-4.2293091,4.7249756-6.5195923
		c3.5228271,14.0618896,9.6704712,22.1040649,15.104248,29.4785156c7.0307007,9.541687,7.5651855,23.8962402,1.4833984,32.9506836
		c0.5720215,1.8480225,1.1576538,3.6902466,1.737854,5.5041504c0.5678711,1.7753906,1.137207,3.5566406,1.690918,5.3398438
		c1.0869141,3.4628906,1.980957,6.5537109,2.7319336,9.4453125c0.0720825,0.2751465,0.132019,0.5328979,0.2009888,0.8035278
		c1.4135132-1.1506958,2.803772-2.4557495,4.1607666-3.937439c31.8716431-34.7999268-4.3843994-62.9909058-12.4468384-76.956665
		C263.9369507,110.0587769,259.8040771,96.380127,259.1057739,79.9111328z"/>
	<path class="st0" d="M273.2266235,196.0942383c-0.8209229-3.159668-1.7393188-6.2752075-2.7055054-9.3538818
		c-1.9140015-6.1643066-3.9941406-12.2252808-5.5992432-18.328186c-0.8000488-3.0478516-1.4580688-6.112793-1.7643433-9.1525269
		c-0.0755005-0.7589111-0.0950928-1.5106812-0.1480713-2.2672119c-0.0018311-0.7496948,0.020752-1.4814453,0.0395508-2.237915
		c0.1327515-1.5809326,0.225708-3.1710815,0.390564-4.7458496c0.2702637-2.7885132,0.6379395-5.5609741,1.1159668-8.3085327
		c-0.8787231-1.1950073-1.7739258-2.4279175-2.6708984-3.7147217c-0.8838501,3.8483276-1.524353,7.7471924-1.982605,11.6442871
		c-0.2022705,1.6143188-0.3305054,3.2281494-0.4990845,4.8430176c-0.0429077,0.8464355-0.0871582,1.7201538-0.0996094,2.5741577
		c0.0374756,0.8455811,0.0462646,1.7008667,0.1123047,2.5400391c0.2698975,3.3583984,0.9067993,6.6045532,1.6688843,9.7802734
		c1.5333252,6.352356,3.5036011,12.4882813,5.2692261,18.6240234c0.8934937,3.0661621,1.7271729,6.1295776,2.4577026,9.1998901
		c0.7375488,3.0684814,1.3560791,6.1468506,1.7435913,9.2201538c0.3937378,3.0708008,0.5828247,6.1408081,0.406189,9.1395264
		c-0.1981201,2.9910889-0.791687,5.8985596-1.9052124,8.5394287c-1.1064453,2.6438599-2.7520142,4.9953003-4.826416,6.9622192
		c-0.5488281,0.4639893-1.0224609,1.0005493-1.6237793,1.4124146l-1.7601318,1.2765503
		c-1.267395,0.71875-2.5291138,1.5603638-3.8312988,2.0591431c-2.585144,1.1383667-5.3250122,1.6640015-8.0820923,1.4951172
		c-2.7585449-0.1571045-5.5237427-0.980957-8.1887817-2.2113647c-0.052063-0.0240479-0.1026001-0.0529785-0.154541-0.0773315
		c-0.7340088,1.3897095-1.5155029,2.663208-2.3536377,3.7957764c-0.3051758,0.4124146-0.5956421,0.8273315-0.8773193,1.2435913
		c0.321228,0.1511841,0.6331787,0.3132935,0.9602051,0.4576416c3.1806641,1.3890991,6.6867676,2.3917236,10.3499146,2.5248413
		c3.6566772,0.1553345,7.3704834-0.6532593,10.6174316-2.1741943c1.6818848-0.7107544,3.0917969-1.6849976,4.5869751-2.5908813
		l2.1069946-1.5925293c0.7090454-0.5189209,1.3138428-1.1920776,1.9707031-1.784668
		c2.5328979-2.494812,4.574707-5.5534058,5.8723755-8.8615723c1.3121338-3.3076172,1.9229736-6.7973022,2.0776367-10.2111206
		c0.1313477-3.4197388-0.15448-6.7783813-0.6435547-10.062439
		C274.7716675,202.4630737,274.053772,199.2508545,273.2266235,196.0942383z"/>
	<path class="st0" d="M297.65448,83.5977783c-1.0327759,0.0849609-1.4690552,0.7972412-2.072876,1.331665l-1.7375488,1.6832275
		c-1.1663208,1.1142578-2.3184204,2.2435913-3.4213867,3.4239502l-3.3548584,3.4957886l-3.2163696,3.631897
		c-4.222229,4.9005737-8.187439,10.0601196-11.6038208,15.6099854c-0.7522583,1.21875-1.4707642,2.4605713-2.1639404,3.7174072
		c0.5585938,0.8101196,1.1959229,1.6713257,1.8847046,2.5721436c0.8311157-1.6486206,1.7114868-3.2744141,2.6506958-4.8686523
		c3.2067261-5.4581909,6.982666-10.5913086,11.0375977-15.4984741l3.0941772-3.6429443l3.2423096-3.5202637
		c1.0650635-1.1885376,2.1821899-2.3294678,3.3146362-3.456604l1.6865234-1.7023926
		c0.3314819-0.366333,0.7259521-0.6659546,1.0056763-1.0859375v-1.6188354
		c-0.0690918-0.0355835-0.1442261-0.0621338-0.2261963-0.0706787
		C297.7346191,83.5949707,297.6923828,83.5949097,297.65448,83.5977783z"/>
	<path class="st0" d="M166.284668,237.072998C163.1314087,259.8466797,150,280.5182495,150,280.5182495
		s-13.1314087-20.6715698-16.284668-43.4452515l-1.8845215,1.7518311c0,0,5.0231934,45.9707642,18.1691895,61.1751709
		c13.1459961-15.2044067,18.1691895-61.1751709,18.1691895-61.1751709L166.284668,237.072998z"/>
	<path class="st0" d="M124.605835,135.4671631C135.460144,128.8101807,150,129.1605835,150,129.1605835
		s14.539856-0.3504028,25.394165,6.3065796c0,0,1.7651367-2.642395,3.6854858-6.4014893
		c0,0-8.9263916-13.5693359-29.0796509-13.5693359s-29.0796509,13.5693359-29.0796509,13.5693359
		C122.8406982,132.8247681,124.605835,135.4671631,124.605835,135.4671631z"/>
	<path class="st0" d="M150,66.2260742c2.3616943,0,4.5682983,0.1833496,6.6395874,0.4960327
		C157.5570679,33.9417114,163.4354248,0,163.4354248,0H150h-13.4354248c0,0,5.8783569,33.9417114,6.7958374,66.7221069
		C145.4317017,66.4094238,147.6383057,66.2260742,150,66.2260742z"/>
	<path class="st0" d="M150,81.8905029c0,0,14.539856-0.3503418,25.394165,6.3065796c0,0,1.7651367-2.642395,3.6854858-6.4014893
		c0,0-8.9263916-13.5693359-29.0796509-13.5693359s-29.0796509,13.5693359-29.0796509,13.5693359
		c1.9203491,3.7590942,3.6854858,6.4014893,3.6854858,6.4014893C135.460144,81.5401611,150,81.8905029,150,81.8905029z"/>
	<path class="st0" d="M124.605835,111.8320923C135.460144,105.1751709,150,105.5255127,150,105.5255127
		s14.539856-0.3503418,25.394165,6.3065796c0,0,1.7651367-2.642395,3.6854858-6.4014893
		c0,0-8.9263916-13.5692749-29.0796509-13.5692749s-29.0796509,13.5692749-29.0796509,13.5692749
		C122.8406982,109.1896973,124.605835,111.8320923,124.605835,111.8320923z"/>
	<path class="st0" d="M108.8163452,256.3306885c-1.8585205-5.7843018-2.6660767-12.4202271-2.9620361-15.5067139
		c-2.2332764,2.2807617-5.0908813,5.9490967-7.7741699,11.6350708c-5.5182495,11.6934204,5.7519531,16.8912964,2.0731201,22.6723022
		c-3.678833,5.7810669-14.2092285,10.2792358-14.2092285,10.2792358l2.1700439,1.0250854
		c0,0,10.9467773-4.545166,16.9905396-8.8809204c6.0438232-4.3358154,3.852356-14.2012939,2.2695923-17.5014038
		C106.8421631,258.9440918,107.6018677,257.6051025,108.8163452,256.3306885z"/>
	<path class="st0" d="M96.3033447,284.8945923c0.5974121,3.2003784,0.8540039,5.3590088,0.8540039,5.3590088l2.3495483,0.8779907
		c0.2178345-1.0837402-0.0023193-3.8970947-0.5136108-7.6009521
		C98.0809937,284.0085449,97.1764526,284.465332,96.3033447,284.8945923z"/>
	<path class="st0" d="M94.7555542,277.9249878c1.0770874-0.8530884,2.0700684-1.7706909,2.8690796-2.7304077
		c-2.1938477-11.8370361-5.7600098-26.118042-8.2450562-28.442749c-2.8803101-2.694458-4.0512085-10.640564-4.4906006-15.06604
		c-1.6651001-0.4130249-3.4014282-0.819397-5.2219849-1.2160645c-1.1992188,2.5322266-2.9482422,7.0009766-2.7373047,10.1640625
		c0.0566406,0.8427734,0.2587891,2.0029297,0.4921875,3.3466797c0.2753296,1.5836792,0.6087646,3.5072021,0.8486328,5.7446899
		c2.5939331,4.0623779,5.6397705,7.9608765,8.6127319,11.085022
		C90.6255493,264.7428589,93.1462402,271.7380981,94.7555542,277.9249878z"/>
	<path class="st0" d="M47.2554932,150l-2.4525757,4.5765991c11.2116699,6.3065796,11.5620728,8.4088135,11.5620728,8.4088135
		c-0.9528809,2.9778442-1.9456177,10.5337524-2.3324585,19.8962402c0.7029419,0.0216064,1.4171753,0.0343628,2.1471558,0.0343628
		c4.7406006,0,9.3029785-0.4647217,12.9086304-0.9781494c-2.1981812-13.8121338-2.0728149-26.4971924-2.0728149-26.4971924
		C58.8165894,150,47.2554932,150,47.2554932,150z"/>
	<path class="st0" d="M121.5394897,233.4765625c-0.0649414-0.0898438-0.1299438-0.1774902-0.1948853-0.2667847
		c0.8927612-0.1586304,1.7850952-0.3742676,2.664978-0.6796875c4.0186157-1.3030396,7.4679565-4.5689087,9.1838989-8.0651245
		c0.8847656-1.7006226,1.6563721-3.5462036,2.0183716-5.6057129l0.2454834-1.5490723
		c0.0335693-0.5305176,0.0214233-1.0756836,0.0227051-1.6130371c0.0574341-1.0739136-0.2191162-2.1616821-0.4066772-3.2338867
		c-0.1276245-0.5300293-0.3417358-1.0388184-0.5209351-1.5551758c-0.1817627-0.5185547-0.3795776-1.0267334-0.6633911-1.4849854
		l-0.803894-1.4024048c-0.3078003-0.4285889-0.6403809-0.8349609-0.96698-1.2474976l-0.4967041-0.6115723
		c-0.1768188-0.1872559-0.3651733-0.3579712-0.548645-0.536499l-1.118042-1.0477295
		c-0.7955322-0.5903931-1.5848389-1.2285156-2.4281006-1.7047729c-3.3587036-1.9873047-7.0048218-2.994812-10.6276245-3.3684082
		c-0.9069214-0.1384277-1.8148804-0.1000977-2.7218018-0.1515503c-0.8942871-0.0506592-1.8978271,0.0862427-2.8392334,0.1359863
		c-0.9505615,0.0876465-1.8602905,0.3156738-2.7888794,0.4788208c-0.9041138,0.2189941-1.7741089,0.5102539-2.6590576,0.7704468
		c-3.4539185,1.2009277-6.4996948,2.9512939-9.3173218,4.8463135c-2.6074829,1.7640991-5.0257568,3.6768799-7.3613281,5.633667
		c2.9684448,0.7010498,5.6586914,1.4450073,8.1054077,2.2401123c1.0088501-0.7412109,2.0244141-1.4606323,3.0541382-2.1324463
		c2.5263062-1.6452637,5.1374512-3.053894,7.7752686-3.9154053c0.6604004-0.1706543,1.3175659-0.387146,1.9736328-0.5358276
		c0.6550293-0.0880127,1.3109741-0.2590942,1.9587402-0.3011475l0.9682617-0.0481567
		c0.319519-0.0230103,0.6409302-0.0463257,0.9995117-0.0106201c0.6929321,0.0605469,1.4008789,0.0235596,2.0806885,0.151123
		c2.7455444,0.3219604,5.4022827,1.1591187,7.5534668,2.4848022c0.2913818,0.1430664,0.5178223,0.3459473,0.763916,0.5281372
		c0.2401733,0.1871338,0.4979248,0.3598633,0.7296753,0.5501709l0.6221313,0.6160889
		c0.1030884,0.1019897,0.2161865,0.1981812,0.3135376,0.3025513l0.2462769,0.3356323l0.5061035,0.6554565
		c0.1173096,0.2379761,0.2401123,0.47052,0.369873,0.699707c0.15448,0.2211304,0.2279053,0.4680786,0.2994995,0.7127686
		c0.0699463,0.2449341,0.1904907,0.4750366,0.2416992,0.7246704c0.4152222,1.9706421-0.046814,4.2592163-1.3337402,6.531189
		c-0.1286011,0.3025513-0.3043823,0.5397949-0.4750977,0.7790527l-0.493103,0.7363892l-0.5700684,0.6229858l-0.2766113,0.3178711
		l-0.3178101,0.2560425c-0.7965088,0.7525635-1.760437,1.2282715-2.8064575,1.5828247
		c-1.0493164,0.3457031-2.2227173,0.5117798-3.4520874,0.4891357c-0.6149292-0.0206299-1.2387085-0.0621338-1.8568115-0.1633911
		c-0.3112793-0.0441284-0.614624-0.1035767-0.9134521-0.1704102c-0.2671509-0.0574951-0.6480713-0.1642456-0.7306519-0.1913452
		l-0.1395874-0.0457764c-0.0144653-0.0046387-0.0289307-0.0092163-0.043457-0.0136719
		c-0.0411987-0.0127563-0.0827637-0.0137939-0.1240234-0.0251465c-5.6068726-5.1519165-13.2243042-9.0977173-27.0724487-12.1897583
		c-2.706543-0.6043091-5.1851807-1.2353516-7.4588013-1.8752441c-2.9682617-3.4309082-5.2412109-8.1590576-6.984436-13.4169922
		c-3.4804688,2.1105347-10.196167,5.6499023-18.3456421,7.3355713c1.0013428,12.8814697,3.6035156,25.494812,8.9932861,32.7782593
		c12.963501,17.5182495,5.7251587,38.250061,5.7251587,38.250061l2.6079102,1.6915894
		c8.3330688-18.9197388,3.5793457-31.5328369,3.2290039-36.7883301c-0.3504028-5.2554321,3.6424561-12.5747681,3.6425781-12.5750122
		c11.0496216,2.3251343,24.2704468,5.9659424,29.1264648,10.7641602c0,0,0.8461914,12.9592896,4.5368652,20.6636963
		c3.6906128,7.7043457,14.770752,15.7507935,15.7105103,38.7409668l3.8800659,0.5284424
		c0,0-2.9539795-29.7967529-8.0274048-40.4558716C118.7299194,247.7736816,128.4636841,243.0509033,121.5394897,233.4765625z"/>
	<path class="st0" d="M70.0163574,120.6467896c2.3589478,0.8757324,4.8948975,1.4144287,7.5749512,1.600769
		c0.8818359,0.0493164,1.7929688,0.0751953,2.6811523,0.0751953c1.4320068,0,3.0387573-0.0720825,4.729187-0.2601318
		c-1.9465332-15.8751221-2.7213135-36.2027588-0.5418091-61.2670288c0,0-6.3065796-7.357666-26.8029175-8.9342651v8.9342651
		c0,0,14.1898193,2.1021729,14.1898193,7.357666C71.8467407,68.1532593,69.2393188,92.6170044,70.0163574,120.6467896z"/>
	<path class="st0" d="M94.2116699,49.2773438c0,0-4.3724976,37.9527588-1.237915,70.9188843
		c1.8085327-0.6923828,3.574707-1.5897827,5.2034912-2.7631226c2.7294922-1.9594727,4.96875-4.5444336,6.6586914-7.6845703
		c0.614502-1.1355591,1.1396484-2.3691406,1.6176758-3.6505737c-1.8729858-14.90802-2.4386597-34.2700806,0.4223022-58.3972168
		L94.2116699,49.2773438z"/>
	<path class="st0" d="M90.3604736,61.4589844c0.2460327,0.0993042,0.4867554,0.2105713,0.7296753,0.3168945
		c0.1585693-2.1544189,0.3154907-4.0811768,0.4603271-5.7521362c-4.0443115-1.4475708-8.3535767-2.1507568-12.6785889-1.8947144
		c-0.4074097,0.0202026-0.8126831,0.0646973-1.2182007,0.105957c5.8671265,2.4857178,8.164978,5.0723267,8.3248291,5.258667
		l0.546875,0.6381836l-0.0075073,0.0860596C87.8274536,60.5407715,89.1151733,60.9538574,90.3604736,61.4589844z"/>
	<path class="st0" d="M40.9248047,71.1890259c1.3270874-0.0845337,2.6208496-0.3297729,3.8549805-0.7485962
		c1.6541138-0.5542603,3.2624512-1.4076538,4.8185425-2.4130859C45.0182495,20.3198242,2,0,2,0v3.0032349
		C31.0755005,19.5281372,40.0682983,47.1522217,40.9248047,71.1890259z"/>
	<path class="st0" d="M19.9886475,19.9631348c-0.8117065-0.9150391-1.6486206-1.8210449-2.5274658-2.7114258
		c-1.0406494,1.1625366-2.0192871,2.3922119-2.9152222,3.7062378c-2.5159302,3.708252-4.2052612,7.9630737-5.0289917,12.3468628
		c-0.8305664,4.3887329-0.822937,8.8986816-0.1226196,13.2732544c1.4307251,8.7307129,5.4732056,17.0879517,11.9939575,23.3317871
		c3.2625732,3.0924683,7.2221069,5.6091309,11.6760864,6.942749c2.2285156,0.6202393,4.492981,1.055481,6.8618774,1.0817261
		c2.3527832,0.0335083,4.7450562-0.3152466,6.9841919-1.0408325c4.5159912-1.4549561,8.2370605-4.1624146,11.5993042-6.7861938
		c2.3256836-1.8252563,4.5430298-3.6559448,6.8050537-5.269165c-1.7936401-0.6963501-3.9331055-1.3068848-6.0884399-1.7364502
		c-1.2978516,1.0477905-2.5576782,2.0997925-3.81073,3.1080322c-3.2120972,2.5952148-6.4481812,4.9365845-9.9926147,6.1245728
		c-1.7651978,0.5992432-3.5967407,0.8910522-5.4598999,0.8948364c-1.8560181,0.0131226-3.772522-0.3287354-5.6068726-0.8075562
		c-3.6565552-1.0385742-7.0514526-3.0966797-9.9346313-5.7556152c-5.7755737-5.3549805-9.6082153-12.9035645-10.9907227-20.7617798
		c-1.401062-7.8537598-0.1583862-16.2481079,4.2329102-22.8740234
		C18.3636475,21.9683228,19.1484375,20.9475098,19.9886475,19.9631348z"/>
	<path class="st0" d="M25.9243164,14.355957c3.2039795-2.4686279,6.7764893-4.4746094,10.5515137-5.9750977
		c7.5411377-2.9990845,15.9604492-3.9835815,23.9121094-2.3676758c3.9645996,0.8149414,7.7949829,2.2803345,11.2329712,4.4060669
		c3.43927,2.121521,6.4771118,4.8861084,8.9514771,8.1079712c0.6172485,0.8063354,1.210022,1.6335449,1.7570801,2.4924316
		l1.7929077,2.6800537c1.2987671,1.7388916,2.6350098,3.4616089,4.1920776,4.991333
		c3.0372314,3.1209106,6.6621704,5.6941528,10.6218262,7.5210571c3.9675903,1.8164063,8.2507935,2.8862305,12.5679321,3.2299805
		c1.7861938,0.1342163,3.5667725,0.1633301,5.34375,0.0820313c4.0387573,11.7976685,7.3526001,24.4805908,7.8812866,35.3790894
		c2.9163818-2.4110107,7.0426025-5.0358276,12.4866333-6.7615967C134.7213745,53.4091797,128.5808716,18.5617676,123.3009644,0H100
		c0,0,8.97229,17.1470947,16.1242065,37.4418945c-1.4835815,0.0247192-2.9684448-0.0306396-4.4301758-0.1658936
		c-4.0811157-0.3817749-8.0846558-1.4465332-11.7625122-3.1913452c-3.6704102-1.7573853-7.0058594-4.1922607-9.8065796-7.1509399
		c-1.4363403-1.4468994-2.6678467-3.086731-3.8687134-4.7374268l-1.6868896-2.5999756
		c-0.5731201-0.927002-1.1965332-1.8240356-1.8485107-2.7002563c-2.6127319-3.5020142-5.8668213-6.5528564-9.574585-8.9100342
		c-3.7058105-2.3629761-7.8485718-4.0127563-12.1272583-4.9529419c-8.5857544-1.864502-17.6234741-0.9242554-25.774231,2.18396
		c-4.0810547,1.5574951-7.9620972,3.6639404-11.4759521,6.2938843c-0.3347168,0.2520752-0.6633301,0.5119629-0.9916992,0.7722168
		c0.87323,0.7937622,1.7526855,1.616272,2.6375122,2.4802856C25.5848389,14.6280518,25.7523804,14.4886475,25.9243164,14.355957z"/>
	<path class="st0" d="M37.664917,181.4302368c-0.177124,0.5976563-0.3544922,1.1991577-0.5306396,1.7914429
		c-0.5288086,1.7783203-1.0556641,3.5507813-1.565918,5.3222656c-0.9790039,3.3603516-1.7749023,6.3378906-2.434082,9.1103516
		c-0.2915039,1.2131348-0.5396118,2.3566895-0.7676392,3.4708252c20.142334,8.746521,41.7512207-6.9129639,41.7512207-6.9129639
		c6.1224365,5.1838379,7.5795288,10.7197876,7.5795288,10.7197876l6.5216064-3.1020508
		c-2.7878418-10.2040405-11.2144165-19.291687-11.2144165-19.291687s-22.4127197,5.3869629-37.0385742-0.0552368
		C39.1596069,182.1829224,38.3969116,181.8253174,37.664917,181.4302368z"/>
	<path class="st0" d="M24.8388672,195.5869141c0.7509766-2.8916016,1.6450195-5.9824219,2.7319336-9.4453125
		c0.5537109-1.7832031,1.1230469-3.5644531,1.690918-5.3398438c0.5802002-1.8139038,1.1658325-3.6561279,1.737854-5.5041504
		c-6.0817871-9.0544434-5.5473022-23.4089966,1.4833984-32.9506836c5.4337769-7.3744507,11.5814209-15.416626,15.104248-29.4785156
		c1.3666992,2.2902832,2.9279175,4.4849854,4.7249756,6.5195923c3.0723877,3.4940796,6.8668823,6.4891968,11.1491699,8.5247192
		c4.2745972,2.0490112,8.953186,3.1307373,13.5539551,3.3610229c1.1439819,0.057312,2.317749,0.0848999,3.4260254,0.0391846
		c1.1199341-0.022644,2.2409668-0.0639038,3.3674316-0.1698608c2.24823-0.1663208,4.5071411-0.5077515,6.7451172-1.0262451
		c4.4708252-1.0154419,8.8933105-2.8757324,12.7130127-5.6914673c3.8163452-2.8208008,6.9035034-6.5836182,9.0333862-10.7069702
		c2.1482544-4.1287842,3.4186401-8.5669556,4.0960083-13.0014648c0.3381958-2.2209473,0.5279541-4.4490967,0.5935059-6.671936
		c0.0756836-2.1663818,0.0072021-4.5933838-0.3567505-6.8591919c-0.704895-4.5702515-2.2766724-8.901123-4.4423218-12.8740234
		c-1.401062-2.5601807-3.0612793-4.9741821-4.9530029-7.1972046c-0.1685791,3.3212891-0.2778931,6.6015625-0.3170166,9.8314819
		c0.0272827,0.0510254,0.0570679,0.100769,0.0841064,0.1519165c1.8192139,3.4493408,3.0991211,7.1889648,3.6220703,10.9666748
		c0.2694092,1.9058838,0.3005371,3.7115479,0.2035522,5.7558594c-0.0892944,1.9896851-0.2897339,3.96698-0.6162109,5.9091797
		c-0.6522827,3.8810425-1.8150635,7.6356201-3.6171265,10.9666138c-1.7937012,3.3335571-4.24823,6.2038574-7.2510986,8.3599854
		c-6.0129395,4.3310547-14.1420288,5.6229248-21.8933105,5.1864014c-3.8105469-0.2652588-7.484375-1.2131348-10.7904053-2.8723755
		c-3.3098145-1.6539307-6.2313843-4.036377-8.6706543-6.9147949c-2.4460449-2.8751831-4.4191284-6.2270508-5.9614258-9.7989502
		c-0.7716064-1.786377-1.4343872-3.6316528-1.9902344-5.5061035c-0.0415649-0.1395874-0.0712891-0.28125-0.1115112-0.4212036
		c0.5657959-6.0794678,0.7296143-13.0054321,0.350647-21.0106201c-0.888916,0.399292-1.8002319,0.7709961-2.755188,1.0787354
		c-2.1261597,0.6889648-4.355896,1.052002-6.6296997,1.1137695c-0.6983032,16.4689941-4.8311768,30.147644-7.9702759,35.5852051
		c-8.062439,13.9657593-44.3184814,42.1567383-12.4468384,76.956665c1.3569946,1.4816895,2.7472534,2.7867432,4.1607666,3.937439
		C24.7068481,196.119812,24.7667847,195.8620605,24.8388672,195.5869141z"/>
	<path class="st0" d="M59.4110107,235.006958c-0.0519409,0.024353-0.102478,0.0532837-0.154541,0.0773315
		c-2.6650391,1.2304077-5.4302368,2.0542603-8.1887817,2.2113647c-2.7570801,0.1688843-5.4969482-0.3567505-8.0820923-1.4951172
		c-1.3021851-0.4987793-2.5639038-1.3403931-3.8312988-2.0591431l-1.7601318-1.2765503
		c-0.6013184-0.4118652-1.0749512-0.9484253-1.6237793-1.4124146c-2.0744019-1.9669189-3.7199707-4.3183594-4.826416-6.9622192
		c-1.1135254-2.6408691-1.7070923-5.5483398-1.9052124-8.5394287c-0.1766357-2.9987183,0.0124512-6.0687256,0.406189-9.1395264
		c0.3875122-3.0733032,1.0060425-6.1516724,1.7435913-9.2201538c0.7305298-3.0703125,1.564209-6.133728,2.4577026-9.1998901
		c1.765625-6.1357422,3.7359009-12.2716675,5.2692261-18.6240234c0.762085-3.1757202,1.3989868-6.421875,1.6688843-9.7802734
		c0.06604-0.8391724,0.0748291-1.694458,0.1123047-2.5400391c-0.0124512-0.8540039-0.0567017-1.7277222-0.0996094-2.5741577
		c-0.1685791-1.6148682-0.296814-3.2286987-0.4990845-4.8430176c-0.458252-3.8970947-1.0987549-7.7959595-1.982605-11.6442871
		c-0.8969727,1.2868042-1.7921753,2.5197144-2.6708984,3.7147217c0.4780273,2.7475586,0.8457031,5.5200195,1.1159668,8.3085327
		c0.164856,1.5747681,0.2578125,3.164917,0.390564,4.7458496c0.0187988,0.7564697,0.0413818,1.4882202,0.0395508,2.237915
		c-0.0529785,0.7565308-0.0725708,1.5083008-0.1480713,2.2672119c-0.3062744,3.0397339-0.9642944,6.1046753-1.7643433,9.1525269
		c-1.6051025,6.1029053-3.6852417,12.1638794-5.5992432,18.328186c-0.9661865,3.0786743-1.8845825,6.1942139-2.7055054,9.3538818
		c-0.8271484,3.1566162-1.5450439,6.3688354-2.0300903,9.6571655c-0.4890747,3.2840576-0.7749023,6.6427002-0.6435547,10.062439
		c0.1546631,3.4138184,0.7655029,6.9035034,2.0776367,10.2111206c1.2976685,3.3081665,3.3394775,6.3667603,5.8723755,8.8615723
		c0.6568604,0.5925903,1.2616577,1.2657471,1.9707031,1.784668l2.1069946,1.5925293
		c1.4951782,0.9058838,2.9050903,1.880127,4.5869751,2.5908813c3.2469482,1.5209351,6.9607544,2.3295288,10.6174316,2.1741943
		c3.663147-0.1331177,7.1692505-1.1357422,10.3499146-2.5248413c0.3270264-0.1443481,0.6389771-0.3064575,0.9602051-0.4576416
		c-0.2816772-0.4162598-0.5721436-0.8311768-0.8773193-1.2435913
		C60.9265137,237.670166,60.1450195,236.3966675,59.4110107,235.006958z"/>
	<path class="st0" d="M11.2491455,95.053772l3.0941772,3.6429443c4.0549316,4.9071655,7.8308716,10.0402832,11.0375977,15.4984741
		c0.939209,1.5942383,1.8195801,3.2200317,2.6506958,4.8686523c0.6887817-0.9008179,1.3261108-1.7620239,1.8847046-2.5721436
		c-0.6931763-1.2568359-1.4116821-2.4986572-2.1639404-3.7174072c-3.4163818-5.5498657-7.3815918-10.7094116-11.6038208-15.6099854
		l-3.2163696-3.631897l-3.3548584-3.4957886c-1.1029663-1.1803589-2.2550659-2.3096924-3.4213867-3.4239502L4.418396,84.9294434
		c-0.6038208-0.5344238-1.0401001-1.2467041-2.072876-1.331665c-0.0379028-0.0028687-0.0801392-0.0028076-0.1193237,0.0012817
		C2.1442261,83.607605,2.0690918,83.6341553,2,83.6697388v1.6188354c0.2797241,0.4199829,0.6741943,0.7196045,1.0056763,1.0859375
		l1.6865234,1.7023926c1.1324463,1.1271362,2.2495728,2.2680664,3.3146362,3.456604L11.2491455,95.053772z"/>
	<path class="st0" d="M250.4016724,68.0273438c1.5560913,1.0054321,3.1644287,1.8588257,4.8185425,2.4130859
		c1.2341309,0.4188232,2.5278931,0.6640625,3.8549805,0.7485962C259.9317017,47.1522217,268.9244995,19.5281372,298,3.0032349V0
		C298,0,254.9817505,20.3198242,250.4016724,68.0273438z"/>
	<path class="st0" d="M275.5783691,66.6659546c-2.8831787,2.6589355-6.2780762,4.717041-9.9346313,5.7556152
		c-1.8343506,0.4788208-3.7508545,0.8206787-5.6068726,0.8075562c-1.8631592-0.0037842-3.6947021-0.2955933-5.4598999-0.8948364
		c-3.5444336-1.1879883-6.7805176-3.5293579-9.9926147-6.1245728c-1.2530518-1.0082397-2.5128784-2.0602417-3.81073-3.1080322
		c-2.1553345,0.4295654-4.2947998,1.0401001-6.0884399,1.7364502c2.2620239,1.6132202,4.4793701,3.4439087,6.8050537,5.269165
		c3.3622437,2.6237793,7.083313,5.3312378,11.5993042,6.7861938c2.2391357,0.7255859,4.6314087,1.0743408,6.9841919,1.0408325
		c2.3688965-0.0262451,4.6333618-0.4614868,6.8618774-1.0817261c4.4539795-1.3336182,8.4135132-3.8502808,11.6760864-6.942749
		c6.520752-6.2438354,10.5632324-14.6010742,11.9939575-23.3317871c0.7003174-4.3745728,0.7079468-8.8845215-0.1226196-13.2732544
		c-0.8237305-4.3837891-2.5130615-8.6386108-5.0289917-12.3468628c-0.8959351-1.3140259-1.8745728-2.5437012-2.9152222-3.7062378
		c-0.8788452,0.8903809-1.7157593,1.7963867-2.5274658,2.7114258c0.84021,0.984375,1.625,2.005188,2.3248291,3.0670166
		c4.3912964,6.6259155,5.6339722,15.0202637,4.2329102,22.8740234
		C285.1865845,53.7623901,281.3539429,61.3109741,275.5783691,66.6659546z"/>
</g>
</svg>
